<?xml version="1.0" standalone="no"?>
<!DOCTYPE svg PUBLIC "-//W3C//DTD SVG 1.1//EN" "http://www.w3.org/Graphics/SVG/1.1/DTD/svg11.dtd" >
<svg>
<metadata>
Created by FontForge 20090622 at Wed Oct 17 16:36:14 2018
 By deploy user
Digitized data copyright (c) 2010-2012 Google Corporation.
</metadata>
<defs>
<font id="Arimo" horiz-adv-x="1139" >
  <font-face 
    font-family="Arimo"
    font-weight="400"
    font-stretch="normal"
    units-per-em="2048"
    panose-1="2 11 6 4 2 2 2 2 2 4"
    ascent="1638"
    descent="-410"
    x-height="1082"
    cap-height="1409"
    bbox="-1114 -621 2666 2007"
    underline-thickness="150"
    underline-position="-142"
    unicode-range="U+0020-U+FFFC"
  />
<missing-glyph horiz-adv-x="1536" 
d="M205 1409h1125v-1409h-1125v1409zM281 1333v-1257h973v1257h-973z" />
    <glyph glyph-name=".notdef" horiz-adv-x="1536" 
d="M205 1409h1125v-1409h-1125v1409zM281 1333v-1257h973v1257h-973z" />
    <glyph glyph-name=".null" horiz-adv-x="0" 
 />
    <glyph glyph-name="nonmarkingreturn" horiz-adv-x="569" 
 />
    <glyph glyph-name="space" unicode=" " horiz-adv-x="569" 
 />
    <glyph glyph-name="space" unicode="&#xa0;" horiz-adv-x="569" 
 />
    <glyph glyph-name="exclam" unicode="!" horiz-adv-x="569" 
d="M359 397h-148l-24 1012h196zM185 0v201h194v-201h-194z" />
    <glyph glyph-name="quotedbl" unicode="&#x22;" horiz-adv-x="727" 
d="M618 966h-142l-20 443h184zM249 966h-141l-21 443h184z" />
    <glyph glyph-name="numbersign" unicode="#" 
d="M896 885l-78 -369h260v-108h-283l-88 -408h-110l86 408h-363l-84 -408h-110l84 408h-201v108h225l78 369h-252v108h274l89 408h110l-88 -408h363l88 408h110l-88 -408h211v-108h-233zM425 885l-80 -369h362l78 369h-360z" />
    <glyph glyph-name="dollar" unicode="$" 
d="M518 20q-426 18 -496 359l170 37q25 -119 104.5 -179t221.5 -69v496q-177 44 -244.5 79t-109 80.5t-60 97.5t-18.5 125q0 155 112.5 242.5t319.5 96.5v131h124v-131q187 -9 289 -84.5t144 -235.5l-174 -33q-20 94 -81 146.5t-178 63.5v-445q179 -42 254.5 -77t119.5 -79
t67 -104t23 -141q0 -165 -121 -265t-343 -111v-162h-124v162zM934 394q0 65 -26 107t-75 69.5t-191 64.5v-468q141 9 216.5 67t75.5 160zM258 1048q0 -59 25 -100t74.5 -69t160.5 -56v421q-260 -14 -260 -196z" />
    <glyph glyph-name="percent" unicode="%" horiz-adv-x="1821" 
d="M1748 434q0 -215 -81 -330.5t-239 -115.5q-156 0 -235.5 112.5t-79.5 333.5q0 228 76.5 339.5t242.5 111.5q164 0 240 -114.5t76 -336.5zM527 0h-155l922 1409h157zM394 1421q159 0 236 -112t77 -334q0 -217 -79.5 -334t-237.5 -117t-237.5 116t-79.5 335q0 223 77 334.5
t244 111.5zM1600 434q0 179 -38.5 259.5t-129.5 80.5t-131.5 -79t-40.5 -261q0 -171 39.5 -253.5t130.5 -82.5q88 0 129 83.5t41 252.5zM560 975q0 176 -38 257t-128 81q-94 0 -134 -79.5t-40 -258.5q0 -173 40 -255.5t132 -82.5q87 0 127.5 84t40.5 254z" />
    <glyph glyph-name="ampersand" unicode="&#x26;" horiz-adv-x="1366" 
d="M1193 -12q-177 0 -298 127q-75 -65 -171 -100t-201 -35q-215 0 -333 103.5t-118 287.5q0 278 343 429q-33 62 -57 147t-24 155q0 150 91.5 232.5t259.5 82.5q151 0 243.5 -76t92.5 -208q0 -118 -91.5 -210t-317.5 -182q111 -205 293 -412q113 166 171 410l145 -43
q-63 -249 -212 -469q96 -98 208 -98q71 0 117 16v-135q-56 -22 -141 -22zM869 1133q0 72 -50 117.5t-136 45.5q-96 0 -146 -51.5t-50 -142.5q0 -114 65 -244q131 53 192.5 92t93 84t31.5 99zM795 217q-198 234 -319 457q-236 -100 -236 -301q0 -121 77.5 -191.5t211.5 -70.5
q71 0 142 27.5t124 78.5z" />
    <glyph glyph-name="quotesingle" unicode="'" horiz-adv-x="391" 
d="M266 966h-141l-21 443h184z" />
    <glyph glyph-name="parenleft" unicode="(" horiz-adv-x="682" 
d="M127 532q0 289 90.5 519t278.5 433h174q-187 -208 -274.5 -442t-87.5 -512q0 -277 86.5 -510t275.5 -444h-174q-189 204 -279 434.5t-90 517.5v4z" />
    <glyph glyph-name="parenright" unicode=")" horiz-adv-x="682" 
d="M555 528q0 -289 -90.5 -519t-278.5 -433h-174q188 210 275 442.5t87 511.5t-87.5 512t-274.5 442h174q189 -204 279 -434.5t90 -517.5v-4z" />
    <glyph glyph-name="asterisk" unicode="*" horiz-adv-x="797" 
d="M456 1114l264 103l45 -132l-282 -73l185 -250l-119 -72l-150 258l-156 -256l-119 72l189 248l-280 73l45 134l267 -107l-12 297h136z" />
    <glyph glyph-name="plus" unicode="+" horiz-adv-x="1196" 
d="M671 608v-428h-147v428h-424v146h424v428h147v-428h424v-146h-424z" />
    <glyph glyph-name="comma" unicode="," horiz-adv-x="569" 
d="M385 219v-168q0 -106 -19 -177t-59 -136h-123q94 136 94 262h-88v219h195z" />
    <glyph glyph-name="hyphen" unicode="-" horiz-adv-x="682" 
d="M91 464v160h500v-160h-500z" />
    <glyph glyph-name="hyphen" unicode="&#xad;" horiz-adv-x="682" 
d="M91 464v160h500v-160h-500z" />
    <glyph glyph-name="period" unicode="." horiz-adv-x="569" 
d="M187 0v219h195v-219h-195z" />
    <glyph glyph-name="slash" unicode="/" horiz-adv-x="569" 
d="M0 -20l411 1504h158l-407 -1504h-162z" />
    <glyph glyph-name="zero" unicode="0" 
d="M1059 705q0 -353 -124.5 -539t-367.5 -186t-365 185t-122 540q0 363 118.5 544t374.5 181q249 0 367.5 -183t118.5 -542zM876 705q0 305 -70.5 442t-232.5 137q-166 0 -238.5 -135t-72.5 -444q0 -300 73.5 -439t233.5 -139q159 0 233 142t74 436z" />
    <glyph glyph-name="one" unicode="1" 
d="M156 0v153h359v1084l-318 -227v170l333 229h166v-1256h343v-153h-883z" />
    <glyph glyph-name="two" unicode="2" 
d="M103 0v127q51 117 124.5 206.5t154.5 162t160.5 134.5t143.5 124t103.5 130t39.5 154q0 116 -68 180t-189 64q-115 0 -189.5 -62.5t-87.5 -175.5l-184 17q20 169 143.5 269t317.5 100q213 0 327.5 -100.5t114.5 -285.5q0 -82 -37.5 -163t-111.5 -162t-283 -251
q-115 -94 -183 -169.5t-98 -145.5h735v-153h-933z" />
    <glyph glyph-name="three" unicode="3" 
d="M1049 389q0 -195 -124 -302t-354 -107q-214 0 -341.5 96.5t-151.5 285.5l186 17q36 -250 307 -250q136 0 213.5 67t77.5 199q0 115 -88.5 179.5t-255.5 64.5h-102v156h98q148 0 229.5 64.5t81.5 178.5q0 113 -66.5 178.5t-197.5 65.5q-119 0 -192.5 -61t-85.5 -172
l-181 14q20 173 143.5 270t317.5 97q212 0 329.5 -98.5t117.5 -274.5q0 -135 -75.5 -219.5t-219.5 -114.5v-4q158 -17 246 -106t88 -224z" />
    <glyph glyph-name="four" unicode="4" 
d="M881 319v-319h-170v319h-664v140l645 950h189v-948h198v-142h-198zM711 1206q-2 -6 -28 -53t-39 -66l-361 -532l-54 -74l-16 -20h498v745z" />
    <glyph glyph-name="five" unicode="5" 
d="M1053 459q0 -223 -132.5 -351t-367.5 -128q-197 0 -318 86t-153 249l182 21q57 -209 293 -209q145 0 227 87.5t82 240.5q0 133 -82.5 215t-222.5 82q-73 0 -136 -23t-126 -78h-176l47 758h801v-153h-637l-27 -447q117 90 291 90q208 0 331.5 -122t123.5 -318z" />
    <glyph glyph-name="six" unicode="6" 
d="M1049 461q0 -223 -121 -352t-334 -129q-238 0 -364 177t-126 515q0 366 131 562t373 196q319 0 402 -287l-172 -31q-53 172 -232 172q-154 0 -238.5 -143.5t-84.5 -415.5q49 91 138 138.5t204 47.5q195 0 309.5 -122t114.5 -328zM866 453q0 153 -75 236t-209 83
q-126 0 -203.5 -73.5t-77.5 -202.5q0 -163 80.5 -267t206.5 -104q130 0 204 87.5t74 240.5z" />
    <glyph glyph-name="seven" unicode="7" 
d="M1036 1263q-216 -330 -305 -517t-133.5 -369t-44.5 -377h-188q0 270 114.5 568.5t382.5 687.5h-757v153h931v-146z" />
    <glyph glyph-name="eight" unicode="8" 
d="M1050 393q0 -195 -124 -304t-356 -109q-226 0 -353.5 107t-127.5 304q0 138 79 232t202 114v4q-115 27 -181.5 117t-66.5 211q0 161 120.5 261t323.5 100q208 0 328.5 -98t120.5 -265q0 -121 -67 -211t-183 -113v-4q135 -22 210 -114.5t75 -231.5zM828 1057
q0 239 -262 239q-127 0 -193.5 -60t-66.5 -179q0 -121 68.5 -184.5t193.5 -63.5q127 0 193.5 58.5t66.5 189.5zM863 410q0 131 -78 197.5t-219 66.5q-137 0 -214 -71.5t-77 -196.5q0 -291 297 -291q147 0 219 70.5t72 224.5z" />
    <glyph glyph-name="nine" unicode="9" 
d="M1042 733q0 -363 -132.5 -558t-377.5 -195q-165 0 -264.5 69.5t-142.5 224.5l172 27q54 -176 238 -176q155 0 240 144t89 411q-40 -90 -137 -144.5t-213 -54.5q-190 0 -304 130t-114 345q0 221 124 347.5t345 126.5q235 0 356 -174t121 -523zM846 907q0 170 -78 273.5
t-209 103.5q-130 0 -205 -88.5t-75 -239.5q0 -154 75 -243.5t203 -89.5q78 0 145 35.5t105.5 100.5t38.5 148z" />
    <glyph glyph-name="colon" unicode=":" horiz-adv-x="569" 
d="M187 875v207h195v-207h-195zM187 0v207h195v-207h-195z" />
    <glyph glyph-name="semicolon" unicode=";" horiz-adv-x="569" 
d="M385 207v-156q0 -106 -19 -177t-59 -136h-123q94 136 94 262h-88v207h195zM190 875v207h195v-207h-195z" />
    <glyph glyph-name="semicolon" unicode="&#x37e;" horiz-adv-x="569" 
d="M385 207v-156q0 -106 -19 -177t-59 -136h-123q94 136 94 262h-88v207h195zM190 875v207h195v-207h-195z" />
    <glyph glyph-name="less" unicode="&#x3c;" horiz-adv-x="1196" 
d="M101 571v205l995 418v-154l-858 -366l858 -367v-153z" />
    <glyph glyph-name="equal" unicode="=" horiz-adv-x="1196" 
d="M100 856v148h995v-148h-995zM100 344v148h995v-148h-995z" />
    <glyph glyph-name="greater" unicode="&#x3e;" horiz-adv-x="1196" 
d="M101 154v153l858 367l-858 366v154l995 -418v-205z" />
    <glyph glyph-name="question" unicode="?" 
d="M1063 1032q0 -75 -22 -134t-63 -109t-134 -118l-80 -59q-72 -52 -107 -109.5t-36 -125.5h-175q2 69 21.5 121t50.5 92t70 71.5t79 60l78.5 57t68.5 63.5t48.5 79t18.5 103q0 114 -77.5 180t-217.5 66t-222 -70t-96 -192l-184 12q26 198 156 304t344 106q223 0 351 -105.5
t128 -292.5zM438 0v201h195v-201h-195z" />
    <glyph glyph-name="at" unicode="@" horiz-adv-x="2079" 
d="M1902 755q0 -186 -57.5 -336.5t-160 -232.5t-229.5 -82q-99 0 -153 44t-54 132l3 70h-6q-66 -123 -163.5 -184.5t-210.5 -61.5q-157 0 -243.5 102t-86.5 283q0 164 64.5 305t180.5 224t257 83q219 0 301 -182h6l39 160h156l-116 -506q-37 -164 -37 -253q0 -94 81 -94
q80 0 147.5 69t106.5 190t39 268q0 179 -77 317.5t-222 213t-339 74.5q-242 0 -428 -107t-292 -308.5t-106 -451.5q0 -193 78.5 -340.5t227 -226.5t346.5 -79q145 0 294 37.5t309 124.5l55 -112q-145 -87 -314.5 -132.5t-343.5 -45.5q-241 0 -421.5 95.5t-276 272
t-95.5 406.5q0 280 124.5 509t345.5 356.5t495 127.5q241 0 416 -90.5t267.5 -255.5t92.5 -383zM1296 747q0 102 -66 164.5t-176 62.5q-101 0 -179.5 -63.5t-123.5 -176t-45 -243.5q0 -120 47.5 -188t146.5 -68q125 0 229 105t144 262q23 92 23 145z" />
    <glyph glyph-name="A" unicode="A" horiz-adv-x="1366" 
d="M1167 0l-161 412h-642l-162 -412h-198l575 1409h217l566 -1409h-195zM685 1265l-9 -28q-25 -83 -74 -213l-180 -463h527l-181 465q-28 69 -56 156z" />
    <glyph glyph-name="B" unicode="B" horiz-adv-x="1366" 
d="M1258 397q0 -188 -137 -292.5t-381 -104.5h-572v1409h512q496 0 496 -342q0 -125 -70 -210t-198 -114q168 -20 259 -112.5t91 -233.5zM984 1044q0 114 -78 163t-226 49h-321v-446h321q153 0 228.5 57.5t75.5 176.5zM1065 412q0 249 -350 249h-356v-508h371q175 0 255 65
t80 194z" />
    <glyph glyph-name="C" unicode="C" horiz-adv-x="1479" 
d="M792 1274q-234 0 -364 -150.5t-130 -412.5q0 -259 135.5 -416.5t366.5 -157.5q296 0 445 293l156 -78q-87 -182 -244.5 -277t-365.5 -95q-213 0 -368.5 88.5t-237 253t-81.5 389.5q0 337 182 528t504 191q225 0 376 -88t222 -261l-181 -60q-49 123 -157.5 188t-257.5 65z
" />
    <glyph glyph-name="D" unicode="D" horiz-adv-x="1479" 
d="M1381 719q0 -218 -85 -381.5t-241 -250.5t-360 -87h-527v1409h466q358 0 552.5 -179.5t194.5 -510.5zM1189 719q0 262 -143.5 399.5t-415.5 137.5h-271v-1103h314q155 0 272.5 68t180.5 196t63 302z" />
    <glyph glyph-name="E" unicode="E" horiz-adv-x="1366" 
d="M168 0v1409h1069v-156h-878v-452h818v-154h-818v-491h919v-156h-1110z" />
    <glyph glyph-name="F" unicode="F" horiz-adv-x="1251" 
d="M359 1253v-524h786v-158h-786v-571h-191v1409h1001v-156h-810z" />
    <glyph glyph-name="G" unicode="G" horiz-adv-x="1593" 
d="M103 711q0 343 184 531t517 188q234 0 380 -79t225 -253l-182 -54q-60 120 -165.5 175t-262.5 55q-244 0 -373 -147.5t-129 -415.5q0 -267 137 -421.5t379 -154.5q138 0 257.5 42t193.5 114v254h-421v160h597v-486q-112 -114 -274.5 -176.5t-352.5 -62.5q-221 0 -381 88
t-244.5 253.5t-84.5 389.5z" />
    <glyph glyph-name="H" unicode="H" horiz-adv-x="1479" 
d="M1121 0v653h-762v-653h-191v1409h191v-596h762v596h191v-1409h-191z" />
    <glyph glyph-name="I" unicode="I" horiz-adv-x="569" 
d="M189 0v1409h191v-1409h-191z" />
    <glyph glyph-name="J" unicode="J" horiz-adv-x="1024" 
d="M457 -20q-358 0 -425 370l187 31q18 -116 81 -181t158 -65q104 0 164 71.5t60 209.5v837h-271v156h461v-989q0 -205 -111 -322.5t-304 -117.5z" />
    <glyph glyph-name="K" unicode="K" horiz-adv-x="1366" 
d="M1106 0l-563 680l-184 -140v-540h-191v1409h191v-706l679 706h225l-600 -612l680 -797h-237z" />
    <glyph glyph-name="L" unicode="L" 
d="M168 0v1409h191v-1253h712v-156h-903z" />
    <glyph glyph-name="M" unicode="M" horiz-adv-x="1706" 
d="M1366 0v940q0 156 9 300q-49 -179 -88 -280l-364 -960h-134l-369 960l-56 170l-33 110l3 -111l4 -189v-940h-170v1409h251l375 -977q20 -59 38.5 -126.5t24.5 -97.5q8 40 33.5 121.5t34.5 102.5l368 977h245v-1409h-172z" />
    <glyph glyph-name="N" unicode="N" horiz-adv-x="1479" 
d="M1082 0l-754 1200l5 -97l5 -167v-936h-170v1409h222l762 -1208q-12 196 -12 284v924h172v-1409h-230z" />
    <glyph glyph-name="O" unicode="O" horiz-adv-x="1593" 
d="M1495 711q0 -221 -84.5 -387t-242.5 -255t-373 -89q-217 0 -374.5 88t-240.5 254.5t-83 388.5q0 338 185 528.5t515 190.5q215 0 373 -85.5t241.5 -248.5t83.5 -385zM1300 711q0 263 -131.5 413t-371.5 150q-242 0 -374 -148t-132 -415q0 -265 133.5 -420.5t370.5 -155.5
q244 0 374.5 150.5t130.5 425.5z" />
    <glyph glyph-name="P" unicode="P" horiz-adv-x="1366" 
d="M1258 985q0 -200 -130.5 -318t-354.5 -118h-414v-549h-191v1409h593q237 0 367 -111t130 -313zM1066 983q0 273 -328 273h-379v-556h387q320 0 320 283z" />
    <glyph glyph-name="Q" unicode="Q" horiz-adv-x="1593" 
d="M1495 711q0 -298 -150 -490t-417 -227q41 -126 107.5 -182t168.5 -56q55 0 115 13v-134q-93 -22 -178 -22q-151 0 -248.5 85.5t-159.5 285.5q-198 10 -341.5 100.5t-219 252t-75.5 374.5q0 338 185 528.5t515 190.5q215 0 373 -85.5t241.5 -248.5t83.5 -385zM1300 711
q0 263 -131.5 413t-371.5 150q-242 0 -374 -148t-132 -415q0 -265 133.5 -420.5t370.5 -155.5q244 0 374.5 150.5t130.5 425.5z" />
    <glyph glyph-name="R" unicode="R" horiz-adv-x="1479" 
d="M1164 0l-366 585h-439v-585h-191v1409h663q238 0 367.5 -106.5t129.5 -296.5q0 -157 -91.5 -264t-252.5 -135l400 -607h-220zM1136 1004q0 123 -83.5 187.5t-240.5 64.5h-453v-520h461q151 0 233.5 70.5t82.5 197.5z" />
    <glyph glyph-name="S" unicode="S" horiz-adv-x="1366" 
d="M1272 389q0 -195 -152.5 -302t-429.5 -107q-515 0 -597 358l185 37q32 -127 136 -186.5t283 -59.5q185 0 285.5 63.5t100.5 186.5q0 69 -31.5 112t-88.5 71t-136 47l-175 41q-167 37 -253.5 74t-136.5 82.5t-76.5 106.5t-26.5 140q0 181 138.5 279t396.5 98
q240 0 367 -73.5t178 -250.5l-188 -33q-31 112 -118 162.5t-241 50.5q-169 0 -258 -56t-89 -167q0 -65 34.5 -107.5t99.5 -72t259 -72.5l129.5 -30.5t123.5 -37t110.5 -50.5t89.5 -71t59.5 -99t21.5 -134z" />
    <glyph glyph-name="T" unicode="T" horiz-adv-x="1251" 
d="M720 1253v-1253h-190v1253h-484v156h1158v-156h-484z" />
    <glyph glyph-name="U" unicode="U" horiz-adv-x="1479" 
d="M731 -20q-173 0 -302 63t-200 183t-71 286v897h191v-881q0 -193 98 -293t283 -100q190 0 295.5 103.5t105.5 302.5v868h190v-879q0 -171 -72.5 -295t-205 -189.5t-312.5 -65.5z" />
    <glyph glyph-name="V" unicode="V" horiz-adv-x="1366" 
d="M782 0h-198l-575 1409h201l390 -992l84 -249l84 249l388 992h201z" />
    <glyph glyph-name="W" unicode="W" horiz-adv-x="1933" 
d="M1511 0h-228l-244 895q-24 84 -70 301l-44 -194t-273 -1002h-228l-415 1409h199l253 -895q45 -168 83 -346q24 110 55.5 240t277.5 1001h183l245 -877q56 -215 88 -364l9 35l44 187.5t281 1018.5h199z" />
    <glyph glyph-name="X" unicode="X" horiz-adv-x="1366" 
d="M1112 0l-423 616l-432 -616h-211l536 732l-495 677h211l392 -553l381 553h211l-482 -670l523 -739h-211z" />
    <glyph glyph-name="Y" unicode="Y" horiz-adv-x="1366" 
d="M777 584v-584h-190v584l-542 825h210l429 -671l427 671h210z" />
    <glyph glyph-name="Z" unicode="Z" horiz-adv-x="1251" 
d="M1187 0h-1122v143l858 1110h-785v156h1002v-139l-858 -1114h905v-156z" />
    <glyph glyph-name="bracketleft" unicode="[" horiz-adv-x="569" 
d="M146 -425v1909h407v-129h-233v-1651h233v-129h-407z" />
    <glyph glyph-name="backslash" unicode="\" horiz-adv-x="569" 
d="M407 -20l-407 1504h158l411 -1504h-162z" />
    <glyph glyph-name="bracketright" unicode="]" horiz-adv-x="569" 
d="M16 -425v129h233v1651h-233v129h407v-1909h-407z" />
    <glyph glyph-name="asciicircum" unicode="^" horiz-adv-x="961" 
d="M787 673l-309 633l-306 -633h-162l368 736h203l370 -736h-164z" />
    <glyph glyph-name="underscore" unicode="_" 
d="M-31 -407v130h1193v-130h-1193z" />
    <glyph glyph-name="grave" unicode="`" horiz-adv-x="682" 
d="M436 1201l-330 278v29h207l217 -287v-20h-94z" />
    <glyph glyph-name="a" unicode="a" 
d="M414 -20q-163 0 -245 86t-82 236q0 168 110.5 258t356.5 96l243 4v59q0 132 -56 189t-176 57q-121 0 -176 -41t-66 -131l-188 17q46 292 434 292q204 0 307 -93.5t103 -270.5v-466q0 -80 21 -120.5t80 -40.5q26 0 59 7v-112q-68 -16 -139 -16q-100 0 -145.5 52.5
t-51.5 164.5h-6q-69 -124 -160.5 -175.5t-222.5 -51.5zM455 115q99 0 176 45t121.5 123.5t44.5 161.5v89l-197 -4q-127 -2 -192.5 -26t-100.5 -74t-35 -131q0 -88 47.5 -136t135.5 -48z" />
    <glyph glyph-name="b" unicode="b" 
d="M1053 546q0 -566 -398 -566q-123 0 -204.5 44.5t-132.5 143.5h-2q0 -31 -4 -94.5t-6 -73.5h-174q6 54 6 223v1261h180v-423q0 -65 -4 -153h4q50 104 132.5 149t204.5 45q205 0 301.5 -138t96.5 -418zM864 540q0 227 -60 325t-195 98q-152 0 -221.5 -104t-69.5 -330
q0 -213 68 -314.5t221 -101.5q136 0 196.5 100.5t60.5 326.5z" />
    <glyph glyph-name="c" unicode="c" horiz-adv-x="1024" 
d="M275 546q0 -216 68 -320t205 -104q96 0 160.5 52t79.5 160l182 -12q-21 -156 -133 -249t-284 -93q-227 0 -346.5 143.5t-119.5 418.5q0 273 120 416.5t344 143.5q166 0 275.5 -86t137.5 -237l-185 -14q-14 90 -71 143t-162 53q-143 0 -207 -95t-64 -320z" />
    <glyph glyph-name="d" unicode="d" 
d="M821 174q-50 -104 -132.5 -149t-204.5 -45q-205 0 -301.5 138t-96.5 418q0 566 398 566q123 0 205 -45t132 -143h2l-2 121v449h180v-1261q0 -169 6 -223h-172q-3 16 -6.5 74t-3.5 100h-4zM275 542q0 -227 60 -325t195 -98q153 0 222 106t69 329q0 215 -69 315t-220 100
q-136 0 -196.5 -100.5t-60.5 -326.5z" />
    <glyph glyph-name="e" unicode="e" 
d="M276 503q0 -186 77 -287t225 -101q117 0 187.5 47t95.5 119l158 -45q-97 -256 -441 -256q-240 0 -365.5 143t-125.5 425q0 268 125.5 411t358.5 143q477 0 477 -575v-24h-772zM862 641q-15 171 -87 249.5t-207 78.5q-131 0 -207.5 -87.5t-82.5 -240.5h584z" />
    <glyph glyph-name="f" unicode="f" horiz-adv-x="569" 
d="M361 951v-951h-180v951h-152v131h152v122q0 148 65 213t199 65q75 0 127 -12v-137q-45 8 -80 8q-69 0 -100 -35t-31 -127v-97h211v-131h-211z" />
    <glyph glyph-name="g" unicode="g" 
d="M548 -425q-177 0 -282 69.5t-135 197.5l181 26q18 -75 79.5 -115.5t161.5 -40.5q269 0 269 315v174h-2q-51 -104 -140 -156.5t-208 -52.5q-199 0 -292.5 132t-93.5 415q0 287 100.5 423.5t305.5 136.5q115 0 199.5 -52.5t130.5 -149.5h2q0 30 4 104t8 81h171
q-6 -54 -6 -224v-827q0 -456 -453 -456zM822 541q0 132 -36 227.5t-101.5 146t-148.5 50.5q-138 0 -201 -100t-63 -324q0 -222 59 -319t202 -97q85 0 151 50t102 143.5t36 222.5z" />
    <glyph glyph-name="h" unicode="h" 
d="M317 897q58 106 139.5 155.5t206.5 49.5q176 0 259.5 -87.5t83.5 -293.5v-721h-181v686q0 114 -21 169.5t-69 81.5t-133 26q-127 0 -203.5 -88t-76.5 -237v-638h-180v1484h180v-386q0 -61 -3.5 -126t-4.5 -75h3z" />
    <glyph glyph-name="i" unicode="i" horiz-adv-x="455" 
d="M137 1312v172h180v-172h-180zM137 0v1082h180v-1082h-180z" />
    <glyph glyph-name="j" unicode="j" horiz-adv-x="455" 
d="M137 1312v172h180v-172h-180zM317 -134q0 -153 -60 -222t-180 -69q-77 0 -127 9v139l62 -6q69 0 97 36t28 140v1189h180v-1216z" />
    <glyph glyph-name="k" unicode="k" horiz-adv-x="1024" 
d="M816 0l-366 494l-132 -109v-385h-180v1484h180v-927l475 525h211l-439 -465l462 -617h-211z" />
    <glyph glyph-name="l" unicode="l" horiz-adv-x="455" 
d="M138 0v1484h180v-1484h-180z" />
    <glyph glyph-name="m" unicode="m" horiz-adv-x="1706" 
d="M768 0v686q0 157 -43 217t-155 60q-115 0 -182 -88t-67 -248v-627h-179v851q0 189 -6 231h170q1 -5 2 -27t2.5 -50.5t3.5 -107.5h3q58 115 133 160t183 45q123 0 194.5 -49t99.5 -156h3q56 109 135.5 157t192.5 48q164 0 238.5 -89t74.5 -292v-721h-178v686
q0 157 -43 217t-155 60q-118 0 -183.5 -87.5t-65.5 -248.5v-627h-178z" />
    <glyph glyph-name="n" unicode="n" 
d="M825 0v686q0 107 -21 166t-67 85t-135 26q-130 0 -205 -89t-75 -247v-627h-180v851q0 189 -6 231h170q1 -5 2 -27t2.5 -50.5t3.5 -107.5h3q62 112 143.5 158.5t202.5 46.5q178 0 260.5 -88.5t82.5 -292.5v-721h-181z" />
    <glyph glyph-name="o" unicode="o" 
d="M1053 542q0 -284 -125 -423t-363 -139q-237 0 -358 144.5t-121 417.5q0 560 485 560q248 0 365 -136.5t117 -423.5zM864 542q0 224 -66.5 325.5t-223.5 101.5q-158 0 -228.5 -103.5t-70.5 -323.5q0 -214 69.5 -321.5t218.5 -107.5q162 0 231.5 104t69.5 325z" />
    <glyph glyph-name="p" unicode="p" 
d="M1053 546q0 -566 -398 -566q-250 0 -336 188h-5q4 -8 4 -170v-423h-180v1286q0 167 -6 221h174q1 -4 3 -28.5t4.5 -75.5t2.5 -70h4q48 100 127 146.5t208 46.5q200 0 299 -134t99 -421zM864 542q0 226 -61 323t-194 97q-107 0 -167.5 -45t-92 -140.5t-31.5 -248.5
q0 -213 68 -314t221 -101q134 0 195.5 98.5t61.5 330.5z" />
    <glyph glyph-name="q" unicode="q" 
d="M484 -20q-206 0 -302 139t-96 417q0 566 398 566q123 0 203 -43.5t134 -144.5h2q0 30 4 103.5t8 78.5h173q-7 -59 -7 -295v-1226h-180v439l4 164h-2q-54 -107 -133 -152.5t-206 -45.5zM821 554q0 211 -69 313t-220 102q-137 0 -197 -102t-60 -325q0 -227 60.5 -325
t194.5 -98q153 0 222 109t69 326z" />
    <glyph glyph-name="r" unicode="r" horiz-adv-x="682" 
d="M142 0v830q0 114 -6 252h170q8 -184 8 -221h4q43 139 99 190t158 51q36 0 73 -10v-165q-36 10 -96 10q-112 0 -171 -96.5t-59 -276.5v-564h-180z" />
    <glyph glyph-name="s" unicode="s" horiz-adv-x="1024" 
d="M950 299q0 -153 -115.5 -236t-323.5 -83q-202 0 -311.5 66.5t-142.5 207.5l159 31q23 -87 95 -127.5t200 -40.5q137 0 200.5 42t63.5 126q0 64 -44 104t-142 66l-129 34q-155 40 -220.5 78.5t-102.5 93.5t-37 135q0 148 105.5 225.5t307.5 77.5q179 0 284.5 -63
t133.5 -202l-162 -20q-15 72 -80.5 110.5t-175.5 38.5q-122 0 -180 -37t-58 -112q0 -46 24 -76t71 -51t198 -58q143 -36 206 -66.5t99.5 -67.5t56.5 -85.5t20 -110.5z" />
    <glyph glyph-name="t" unicode="t" horiz-adv-x="569" 
d="M554 8q-89 -24 -182 -24q-216 0 -216 245v722h-125v131h132l53 242h120v-242h200v-131h-200v-683q0 -78 25.5 -109.5t88.5 -31.5q36 0 104 14v-133z" />
    <glyph glyph-name="u" unicode="u" 
d="M314 1082v-686q0 -107 21 -166t67 -85t135 -26q130 0 205 89t75 247v627h180v-851q0 -189 6 -231h-170q-1 5 -2 27t-2.5 50.5t-3.5 107.5h-3q-62 -112 -143.5 -158.5t-202.5 -46.5q-178 0 -260.5 88.5t-82.5 292.5v721h181z" />
    <glyph glyph-name="v" unicode="v" horiz-adv-x="1024" 
d="M613 0h-213l-393 1082h192l238 -704q13 -40 69 -237l35 117l39 118l246 706h191z" />
    <glyph glyph-name="w" unicode="w" horiz-adv-x="1479" 
d="M1174 0h-209l-189 765l-36 169q-9 -45 -28 -129.5t-204 -804.5h-208l-303 1082h178l183 -735q7 -24 43 -198l17 74l226 859h193l189 -743l46 -190l31 139l205 794h176z" />
    <glyph glyph-name="x" unicode="x" horiz-adv-x="1024" 
d="M801 0l-291 444l-293 -444h-194l385 556l-367 526h199l270 -421l268 421h201l-367 -524l390 -558h-201z" />
    <glyph glyph-name="y" unicode="y" horiz-adv-x="1024" 
d="M191 -425q-74 0 -124 11v135q38 -6 84 -6q168 0 266 247l17 43l-429 1077h192l228 -598l12 -33.5l45 -130.5t41 -124l70 197l237 689h190l-416 -1082q-67 -173 -125 -257.5t-128.5 -126t-159.5 -41.5z" />
    <glyph glyph-name="z" unicode="z" horiz-adv-x="1024" 
d="M83 0v137l605 806h-571v139h784v-137l-606 -806h627v-139h-839z" />
    <glyph glyph-name="braceleft" unicode="{" horiz-adv-x="684" 
d="M513 -425q-127 0 -195.5 77t-68.5 216v361q0 117 -52.5 174.5t-162.5 62.5v127q109 4 162 61.5t53 174.5v362q0 141 66.5 217t197.5 76h135v-129h-63q-91 0 -129.5 -53.5t-38.5 -161.5v-356q0 -94 -53 -162.5t-141 -89.5v-2q89 -21 141.5 -89t52.5 -165v-357
q0 -106 38.5 -160.5t129.5 -54.5h63v-129h-135z" />
    <glyph glyph-name="bar" unicode="|" horiz-adv-x="532" 
d="M183 -434v1918h166v-1918h-166z" />
    <glyph glyph-name="braceright" unicode="}" horiz-adv-x="684" 
d="M94 -296q91 0 130.5 54.5t39.5 160.5v357q0 98 52 166t141 88v2q-86 20 -139.5 87.5t-53.5 164.5v356q0 108 -39.5 161.5t-130.5 53.5h-60v129h132q131 0 197.5 -76t66.5 -217v-362q0 -116 53 -174t164 -62v-127q-112 -4 -164.5 -62t-52.5 -175v-361q0 -138 -68.5 -215.5
t-195.5 -77.5h-132v129h60z" />
    <glyph glyph-name="asciitilde" unicode="~" horiz-adv-x="1196" 
d="M844 553q-69 0 -141.5 22t-145.5 48q-129 45 -217 45q-67 0 -125 -20.5t-123 -67.5v143q111 84 263 84q52 0 115.5 -13t193.5 -59q31 -12 91 -28.5t105 -16.5q130 0 244 92v-149q-58 -42 -116.5 -61t-143.5 -19z" />
    <glyph glyph-name="Adieresis" unicode="&#xc4;" horiz-adv-x="1366" 
d="M1167 0l-161 412h-642l-162 -412h-198l575 1409h217l566 -1409h-195zM685 1265l-9 -28q-25 -83 -74 -213l-180 -463h527l-181 465q-28 69 -56 156zM803 1530v184h163v-184h-163zM409 1530v184h165v-184h-165z" />
    <glyph glyph-name="Aring" unicode="&#xc5;" horiz-adv-x="1366" 
d="M1167 0l-161 412h-642l-162 -412h-198l575 1409h217l566 -1409h-195zM685 1265l-9 -28q-25 -83 -74 -213l-180 -463h527l-181 465q-28 69 -56 156zM928 1546q0 -100 -71 -171t-171 -71t-171 71t-71 171q0 101 71 171t171 70q99 0 170.5 -70.5t71.5 -170.5zM820 1546
q0 56 -39 95t-95 39q-57 0 -96 -39t-39 -95q0 -55 38 -96t97 -41q58 0 96 40.5t38 96.5z" />
    <glyph glyph-name="Ccedilla" unicode="&#xc7;" horiz-adv-x="1479" 
d="M792 1274q-234 0 -364 -150.5t-130 -412.5q0 -259 135.5 -416.5t366.5 -157.5q296 0 445 293l156 -78q-87 -182 -244.5 -277t-365.5 -95q-213 0 -368.5 88.5t-237 253t-81.5 389.5q0 337 182 528t504 191q225 0 376 -88t222 -261l-181 -60q-49 123 -157.5 188t-257.5 65z
M993 -253q0 -181 -274 -181q-57 0 -90 4v98q49 -6 86 -6q147 0 147 81q0 77 -133 77q-43 0 -57 -2l65 182h107l-39 -100q94 -3 141 -43.5t47 -109.5z" />
    <glyph glyph-name="Eacute" unicode="&#xc9;" horiz-adv-x="1366" 
d="M168 0v1409h1069v-156h-878v-452h818v-154h-818v-491h919v-156h-1110zM551 1530v20l217 226h207v-29l-310 -217h-114z" />
    <glyph glyph-name="Ntilde" unicode="&#xd1;" horiz-adv-x="1479" 
d="M1082 0l-754 1200l5 -97l5 -167v-936h-170v1409h222l762 -1208q-12 196 -12 284v924h172v-1409h-230zM909 1530q-42 0 -84 18.5t-81 41t-74.5 41t-66.5 18.5q-55 0 -82 -31t-36 -88h-91q11 102 35 154.5t64.5 83t103.5 30.5q44 0 86 -18.5t81 -41l73.5 -41t64.5 -18.5
q100 0 117 119h92q-17 -148 -67 -208t-135 -60z" />
    <glyph glyph-name="Odieresis" unicode="&#xd6;" horiz-adv-x="1593" 
d="M1495 711q0 -221 -84.5 -387t-242.5 -255t-373 -89q-217 0 -374.5 88t-240.5 254.5t-83 388.5q0 338 185 528.5t515 190.5q215 0 373 -85.5t241.5 -248.5t83.5 -385zM1300 711q0 263 -131.5 413t-371.5 150q-242 0 -374 -148t-132 -415q0 -265 133.5 -420.5t370.5 -155.5
q244 0 374.5 150.5t130.5 425.5zM910 1530v184h163v-184h-163zM516 1530v184h165v-184h-165z" />
    <glyph glyph-name="Udieresis" unicode="&#xdc;" horiz-adv-x="1479" 
d="M731 -20q-173 0 -302 63t-200 183t-71 286v897h191v-881q0 -193 98 -293t283 -100q190 0 295.5 103.5t105.5 302.5v868h190v-879q0 -171 -72.5 -295t-205 -189.5t-312.5 -65.5zM853 1530v184h163v-184h-163zM459 1530v184h165v-184h-165z" />
    <glyph glyph-name="aacute" unicode="&#xe1;" 
d="M414 -20q-163 0 -245 86t-82 236q0 168 110.5 258t356.5 96l243 4v59q0 132 -56 189t-176 57q-121 0 -176 -41t-66 -131l-188 17q46 292 434 292q204 0 307 -93.5t103 -270.5v-466q0 -80 21 -120.5t80 -40.5q26 0 59 7v-112q-68 -16 -139 -16q-100 0 -145.5 52.5
t-51.5 164.5h-6q-69 -124 -160.5 -175.5t-222.5 -51.5zM455 115q99 0 176 45t121.5 123.5t44.5 161.5v89l-197 -4q-127 -2 -192.5 -26t-100.5 -74t-35 -131q0 -88 47.5 -136t135.5 -48zM412 1201v20l217 287h207v-29l-330 -278h-94z" />
    <glyph glyph-name="agrave" unicode="&#xe0;" 
d="M414 -20q-163 0 -245 86t-82 236q0 168 110.5 258t356.5 96l243 4v59q0 132 -56 189t-176 57q-121 0 -176 -41t-66 -131l-188 17q46 292 434 292q204 0 307 -93.5t103 -270.5v-466q0 -80 21 -120.5t80 -40.5q26 0 59 7v-112q-68 -16 -139 -16q-100 0 -145.5 52.5
t-51.5 164.5h-6q-69 -124 -160.5 -175.5t-222.5 -51.5zM455 115q99 0 176 45t121.5 123.5t44.5 161.5v89l-197 -4q-127 -2 -192.5 -26t-100.5 -74t-35 -131q0 -88 47.5 -136t135.5 -48zM624 1201l-330 278v29h207l217 -287v-20h-94z" />
    <glyph glyph-name="acircumflex" unicode="&#xe2;" 
d="M414 -20q-163 0 -245 86t-82 236q0 168 110.5 258t356.5 96l243 4v59q0 132 -56 189t-176 57q-121 0 -176 -41t-66 -131l-188 17q46 292 434 292q204 0 307 -93.5t103 -270.5v-466q0 -80 21 -120.5t80 -40.5q26 0 59 7v-112q-68 -16 -139 -16q-100 0 -145.5 52.5
t-51.5 164.5h-6q-69 -124 -160.5 -175.5t-222.5 -51.5zM455 115q99 0 176 45t121.5 123.5t44.5 161.5v89l-197 -4q-127 -2 -192.5 -26t-100.5 -74t-35 -131q0 -88 47.5 -136t135.5 -48zM880 1221v-20h-105l-219 169h-2l-232 -169h-104v20l234 270h204z" />
    <glyph glyph-name="adieresis" unicode="&#xe4;" 
d="M414 -20q-163 0 -245 86t-82 236q0 168 110.5 258t356.5 96l243 4v59q0 132 -56 189t-176 57q-121 0 -176 -41t-66 -131l-188 17q46 292 434 292q204 0 307 -93.5t103 -270.5v-466q0 -80 21 -120.5t80 -40.5q26 0 59 7v-112q-68 -16 -139 -16q-100 0 -145.5 52.5
t-51.5 164.5h-6q-69 -124 -160.5 -175.5t-222.5 -51.5zM455 115q99 0 176 45t121.5 123.5t44.5 161.5v89l-197 -4q-127 -2 -192.5 -26t-100.5 -74t-35 -131q0 -88 47.5 -136t135.5 -48zM674 1219v184h163v-184h-163zM280 1219v184h165v-184h-165z" />
    <glyph glyph-name="atilde" unicode="&#xe3;" 
d="M414 -20q-163 0 -245 86t-82 236q0 168 110.5 258t356.5 96l243 4v59q0 132 -56 189t-176 57q-121 0 -176 -41t-66 -131l-188 17q46 292 434 292q204 0 307 -93.5t103 -270.5v-466q0 -80 21 -120.5t80 -40.5q26 0 59 7v-112q-68 -16 -139 -16q-100 0 -145.5 52.5
t-51.5 164.5h-6q-69 -124 -160.5 -175.5t-222.5 -51.5zM455 115q99 0 176 45t121.5 123.5t44.5 161.5v89l-197 -4q-127 -2 -192.5 -26t-100.5 -74t-35 -131q0 -88 47.5 -136t135.5 -48zM737 1201q-42 0 -84 18.5t-81 41t-74.5 41t-66.5 18.5q-55 0 -82 -31t-36 -88h-91
q11 102 35 154.5t64.5 83t103.5 30.5q44 0 86 -18.5t81 -41l73.5 -41t64.5 -18.5q100 0 117 119h92q-17 -148 -67 -208t-135 -60z" />
    <glyph glyph-name="aring" unicode="&#xe5;" 
d="M414 -20q-163 0 -245 86t-82 236q0 168 110.5 258t356.5 96l243 4v59q0 132 -56 189t-176 57q-121 0 -176 -41t-66 -131l-188 17q46 292 434 292q204 0 307 -93.5t103 -270.5v-466q0 -80 21 -120.5t80 -40.5q26 0 59 7v-112q-68 -16 -139 -16q-100 0 -145.5 52.5
t-51.5 164.5h-6q-69 -124 -160.5 -175.5t-222.5 -51.5zM455 115q99 0 176 45t121.5 123.5t44.5 161.5v89l-197 -4q-127 -2 -192.5 -26t-100.5 -74t-35 -131q0 -88 47.5 -136t135.5 -48zM799 1410q0 -100 -71 -171t-171 -71t-171 71t-71 171q0 101 71 171t171 70
q99 0 170.5 -70.5t71.5 -170.5zM691 1410q0 56 -39 95t-95 39q-57 0 -96 -39t-39 -95q0 -55 38 -96t97 -41q58 0 96 40.5t38 96.5z" />
    <glyph glyph-name="ccedilla" unicode="&#xe7;" horiz-adv-x="1024" 
d="M275 546q0 -216 68 -320t205 -104q96 0 160.5 52t79.5 160l182 -12q-21 -156 -133 -249t-284 -93q-227 0 -346.5 143.5t-119.5 418.5q0 273 120 416.5t344 143.5q166 0 275.5 -86t137.5 -237l-185 -14q-14 90 -71 143t-162 53q-143 0 -207 -95t-64 -320zM751 -253
q0 -181 -274 -181q-57 0 -90 4v98q49 -6 86 -6q147 0 147 81q0 77 -133 77q-43 0 -57 -2l65 182h107l-39 -100q94 -3 141 -43.5t47 -109.5z" />
    <glyph glyph-name="eacute" unicode="&#xe9;" 
d="M276 503q0 -186 77 -287t225 -101q117 0 187.5 47t95.5 119l158 -45q-97 -256 -441 -256q-240 0 -365.5 143t-125.5 425q0 268 125.5 411t358.5 143q477 0 477 -575v-24h-772zM862 641q-15 171 -87 249.5t-207 78.5q-131 0 -207.5 -87.5t-82.5 -240.5h584zM440 1201v20
l217 287h207v-29l-330 -278h-94z" />
    <glyph glyph-name="egrave" unicode="&#xe8;" 
d="M276 503q0 -186 77 -287t225 -101q117 0 187.5 47t95.5 119l158 -45q-97 -256 -441 -256q-240 0 -365.5 143t-125.5 425q0 268 125.5 411t358.5 143q477 0 477 -575v-24h-772zM862 641q-15 171 -87 249.5t-207 78.5q-131 0 -207.5 -87.5t-82.5 -240.5h584zM657 1201
l-330 278v29h207l217 -287v-20h-94z" />
    <glyph glyph-name="ecircumflex" unicode="&#xea;" 
d="M276 503q0 -186 77 -287t225 -101q117 0 187.5 47t95.5 119l158 -45q-97 -256 -441 -256q-240 0 -365.5 143t-125.5 425q0 268 125.5 411t358.5 143q477 0 477 -575v-24h-772zM862 641q-15 171 -87 249.5t-207 78.5q-131 0 -207.5 -87.5t-82.5 -240.5h584zM907 1221v-20
h-105l-219 169h-2l-232 -169h-104v20l234 270h204z" />
    <glyph glyph-name="edieresis" unicode="&#xeb;" 
d="M276 503q0 -186 77 -287t225 -101q117 0 187.5 47t95.5 119l158 -45q-97 -256 -441 -256q-240 0 -365.5 143t-125.5 425q0 268 125.5 411t358.5 143q477 0 477 -575v-24h-772zM862 641q-15 171 -87 249.5t-207 78.5q-131 0 -207.5 -87.5t-82.5 -240.5h584zM687 1219v184
h163v-184h-163zM293 1219v184h165v-184h-165z" />
    <glyph glyph-name="iacute" unicode="&#xed;" horiz-adv-x="569" 
d="M194 0v1082h180v-1082h-180zM135 1201v20l217 287h207v-29l-330 -278h-94z" />
    <glyph glyph-name="igrave" unicode="&#xec;" horiz-adv-x="569" 
d="M194 0v1082h180v-1082h-180zM340 1201l-330 278v29h207l217 -287v-20h-94z" />
    <glyph glyph-name="icircumflex" unicode="&#xee;" horiz-adv-x="569" 
d="M194 0v1082h180v-1082h-180zM617 1221v-20h-105l-219 169h-2l-232 -169h-104v20l234 270h204z" />
    <glyph glyph-name="idieresis" unicode="&#xef;" horiz-adv-x="569" 
d="M194 0v1082h180v-1082h-180zM402 1219v184h163v-184h-163zM8 1219v184h165v-184h-165z" />
    <glyph glyph-name="ntilde" unicode="&#xf1;" 
d="M829 0v686q0 107 -21 166t-67 85t-135 26q-130 0 -205 -89t-75 -247v-627h-180v851q0 189 -6 231h170q1 -5 2 -27t2.5 -50.5t3.5 -107.5h3q62 112 143.5 158.5t202.5 46.5q178 0 260.5 -88.5t82.5 -292.5v-721h-181zM737 1201q-42 0 -84 18.5t-81 41t-74.5 41t-66.5 18.5
q-55 0 -82 -31t-36 -88h-91q11 102 35 154.5t64.5 83t103.5 30.5q44 0 86 -18.5t81 -41l73.5 -41t64.5 -18.5q100 0 117 119h92q-17 -148 -67 -208t-135 -60z" />
    <glyph glyph-name="oacute" unicode="&#xf3;" 
d="M1053 542q0 -284 -125 -423t-363 -139q-237 0 -358 144.5t-121 417.5q0 560 485 560q248 0 365 -136.5t117 -423.5zM864 542q0 224 -66.5 325.5t-223.5 101.5q-158 0 -228.5 -103.5t-70.5 -323.5q0 -214 69.5 -321.5t218.5 -107.5q162 0 231.5 104t69.5 325zM431 1201v20
l217 287h207v-29l-330 -278h-94z" />
    <glyph glyph-name="ograve" unicode="&#xf2;" 
d="M1053 542q0 -284 -125 -423t-363 -139q-237 0 -358 144.5t-121 417.5q0 560 485 560q248 0 365 -136.5t117 -423.5zM864 542q0 224 -66.5 325.5t-223.5 101.5q-158 0 -228.5 -103.5t-70.5 -323.5q0 -214 69.5 -321.5t218.5 -107.5q162 0 231.5 104t69.5 325zM659 1201
l-330 278v29h207l217 -287v-20h-94z" />
    <glyph glyph-name="ocircumflex" unicode="&#xf4;" 
d="M1053 542q0 -284 -125 -423t-363 -139q-237 0 -358 144.5t-121 417.5q0 560 485 560q248 0 365 -136.5t117 -423.5zM864 542q0 224 -66.5 325.5t-223.5 101.5q-158 0 -228.5 -103.5t-70.5 -323.5q0 -214 69.5 -321.5t218.5 -107.5q162 0 231.5 104t69.5 325zM902 1221
v-20h-105l-219 169h-2l-232 -169h-104v20l234 270h204z" />
    <glyph glyph-name="odieresis" unicode="&#xf6;" 
d="M1053 542q0 -284 -125 -423t-363 -139q-237 0 -358 144.5t-121 417.5q0 560 485 560q248 0 365 -136.5t117 -423.5zM864 542q0 224 -66.5 325.5t-223.5 101.5q-158 0 -228.5 -103.5t-70.5 -323.5q0 -214 69.5 -321.5t218.5 -107.5q162 0 231.5 104t69.5 325zM689 1219
v184h163v-184h-163zM295 1219v184h165v-184h-165z" />
    <glyph glyph-name="otilde" unicode="&#xf5;" 
d="M1053 542q0 -284 -125 -423t-363 -139q-237 0 -358 144.5t-121 417.5q0 560 485 560q248 0 365 -136.5t117 -423.5zM864 542q0 224 -66.5 325.5t-223.5 101.5q-158 0 -228.5 -103.5t-70.5 -323.5q0 -214 69.5 -321.5t218.5 -107.5q162 0 231.5 104t69.5 325zM739 1201
q-42 0 -84 18.5t-81 41t-74.5 41t-66.5 18.5q-55 0 -82 -31t-36 -88h-91q11 102 35 154.5t64.5 83t103.5 30.5q44 0 86 -18.5t81 -41l73.5 -41t64.5 -18.5q100 0 117 119h92q-17 -148 -67 -208t-135 -60z" />
    <glyph glyph-name="uacute" unicode="&#xfa;" 
d="M320 1082v-686q0 -107 21 -166t67 -85t135 -26q130 0 205 89t75 247v627h180v-851q0 -189 6 -231h-170q-1 5 -2 27t-2.5 50.5t-3.5 107.5h-3q-62 -112 -143.5 -158.5t-202.5 -46.5q-178 0 -260.5 88.5t-82.5 292.5v721h181zM415 1201v20l217 287h207v-29l-330 -278h-94z
" />
    <glyph glyph-name="ugrave" unicode="&#xf9;" 
d="M320 1082v-686q0 -107 21 -166t67 -85t135 -26q130 0 205 89t75 247v627h180v-851q0 -189 6 -231h-170q-1 5 -2 27t-2.5 50.5t-3.5 107.5h-3q-62 -112 -143.5 -158.5t-202.5 -46.5q-178 0 -260.5 88.5t-82.5 292.5v721h181zM672 1201l-330 278v29h207l217 -287v-20h-94z
" />
    <glyph glyph-name="ucircumflex" unicode="&#xfb;" 
d="M320 1082v-686q0 -107 21 -166t67 -85t135 -26q130 0 205 89t75 247v627h180v-851q0 -189 6 -231h-170q-1 5 -2 27t-2.5 50.5t-3.5 107.5h-3q-62 -112 -143.5 -158.5t-202.5 -46.5q-178 0 -260.5 88.5t-82.5 292.5v721h181zM901 1221v-20h-105l-219 169h-2l-232 -169
h-104v20l234 270h204z" />
    <glyph glyph-name="udieresis" unicode="&#xfc;" 
d="M320 1082v-686q0 -107 21 -166t67 -85t135 -26q130 0 205 89t75 247v627h180v-851q0 -189 6 -231h-170q-1 5 -2 27t-2.5 50.5t-3.5 107.5h-3q-62 -112 -143.5 -158.5t-202.5 -46.5q-178 0 -260.5 88.5t-82.5 292.5v721h181zM676 1219v184h163v-184h-163zM282 1219v184
h165v-184h-165z" />
    <glyph glyph-name="dagger" unicode="&#x2020;" 
d="M649 1000l-22 -1138h-115l-22 1138l-352 -27v164l352 -29l-28 376h215l-28 -376l353 29v-164z" />
    <glyph glyph-name="degree" unicode="&#xb0;" horiz-adv-x="819" 
d="M696 1145q0 -119 -84.5 -202t-202.5 -83t-202.5 84t-84.5 201t83.5 201t203.5 84t203.5 -83t83.5 -202zM587 1145q0 76 -51.5 128t-126.5 52t-126.5 -53t-51.5 -127t52.5 -127t125.5 -53q74 0 126 52.5t52 127.5z" />
    <glyph glyph-name="cent" unicode="&#xa2;" 
d="M596 277q96 0 160.5 52t79.5 160l182 -12q-19 -144 -114 -235t-242 -105v-168h-124v168q-199 18 -301 160.5t-102 399.5q0 253 102 396.5t301 160.5v155h124v-155q143 -15 233 -98t117 -222l-185 -14q-14 90 -71 143t-162 53q-143 0 -207 -95t-64 -320q0 -216 68 -320
t205 -104z" />
    <glyph glyph-name="sterling" unicode="&#xa3;" 
d="M1104 311q-17 -150 -105 -230.5t-232 -80.5h-698v154q89 46 132 126t43 201v144h-186v129h186v280q0 195 103 295.5t299 100.5q147 0 247 -60.5t134 -169.5l-174 -57q-21 64 -76.5 101.5t-126.5 37.5q-114 0 -170 -57.5t-56 -182.5v-288h408v-129h-408v-126
q0 -119 -46 -212t-123 -134h483q174 0 203 176z" />
    <glyph glyph-name="section" unicode="&#xa7;" 
d="M588 1484q173 0 279.5 -66.5t133.5 -193.5l-161 -20q-27 150 -252 150q-125 0 -189.5 -39.5t-64.5 -110.5q0 -48 30 -83t85.5 -61t185.5 -57q147 -35 225 -76.5t121 -100.5t43 -140q0 -99 -59.5 -174t-159.5 -99q112 -48 162.5 -112.5t50.5 -155.5q0 -148 -115.5 -232.5
t-325.5 -84.5q-209 0 -318.5 66.5t-143.5 205.5l161 31q20 -90 88 -131t213 -41q136 0 208.5 44t72.5 126q0 57 -33 95.5t-94.5 67.5t-212.5 66q-194 45 -279.5 123t-85.5 190q0 89 61.5 163t166.5 104q-96 32 -151.5 99t-55.5 153q0 139 105.5 216.5t308.5 77.5zM866 663
q0 72 -69.5 124t-245.5 93q-109 -6 -173.5 -59t-64.5 -137q0 -49 29.5 -85.5t85 -63.5t184.5 -60q119 2 186.5 52.5t67.5 135.5z" />
    <glyph glyph-name="bullet" unicode="&#x2022;" horiz-adv-x="717" 
d="M636 682q0 -113 -81.5 -197t-199.5 -84q-113 0 -193.5 83t-80.5 198t81 194.5t193 79.5q116 0 198.5 -80.5t82.5 -193.5z" />
    <glyph glyph-name="paragraph" unicode="&#xb6;" horiz-adv-x="1100" 
d="M884 1307v-1571h-112v1571h-217v-1571h-113v958q-168 0 -265 92.5t-97 262.5q0 169 98.5 264.5t271.5 95.5h563v-102h-129z" />
    <glyph glyph-name="germandbls" unicode="&#xdf;" horiz-adv-x="1251" 
d="M1167 295q0 -150 -94 -232.5t-264 -82.5q-171 0 -283 49l-2 164q52 -29 132 -49t149 -20q92 0 141 43t49 122q0 64 -42.5 115t-139.5 109q-92 54 -137.5 120t-45.5 152q0 61 28.5 111t82.5 95q58 48 84.5 90t26.5 92q0 77 -67 123.5t-176 46.5q-148 0 -217.5 -80
t-69.5 -242v-1021h-180v1027q0 227 117.5 342t349.5 115q190 0 302.5 -80.5t112.5 -216.5q0 -143 -113 -246q-79 -72 -96 -96.5t-17 -53.5q0 -38 27.5 -67.5t68.5 -58l89 -60.5q184 -124 184 -310z" />
    <glyph glyph-name="registered" unicode="&#xae;" horiz-adv-x="1509" 
d="M1477 707q0 -193 -96.5 -361.5t-265 -265t-361.5 -96.5q-197 0 -366.5 100.5t-263 267t-93.5 355.5q0 193 97 361t265 265t361 97q194 0 362.5 -97.5t264.5 -264.5t96 -361zM1385 707q0 169 -84 313.5t-230.5 229.5t-316.5 85q-168 0 -314 -84.5t-230 -230.5t-84 -313
q0 -169 84.5 -315t229.5 -230t314 -84t316 84t231 230t84 315zM955 289l-199 336h-161v-336h-127v831h307q142 0 217.5 -63t75.5 -174q0 -102 -52 -163.5t-137 -80.5l221 -350h-145zM941 881q0 69 -47.5 105t-128.5 36h-170v-301h182q80 0 122 42.5t42 117.5z" />
    <glyph glyph-name="copyright" unicode="&#xa9;" horiz-adv-x="1509" 
d="M1477 707q0 -193 -96.5 -361.5t-265 -265t-361.5 -96.5q-197 0 -366.5 100.5t-263 267t-93.5 355.5q0 193 97 361t265 265t361 97q194 0 362.5 -97.5t264.5 -264.5t96 -361zM1385 707q0 169 -84 313.5t-230.5 229.5t-316.5 85q-168 0 -314 -84.5t-230 -230.5t-84 -313
q0 -169 84.5 -315t229.5 -230t314 -84t316 84t231 230t84 315zM498 709q0 -155 71 -240.5t196 -85.5q158 0 233 156l115 -35q-62 -121 -146.5 -173t-201.5 -52q-188 0 -292 113t-104 317q0 203 100 313.5t289 110.5q244 0 340 -209l-114 -33q-32 69 -90 103t-134 34
q-127 0 -194.5 -80.5t-67.5 -238.5z" />
    <glyph glyph-name="trademark" unicode="&#x2122;" horiz-adv-x="2048" 
d="M1691 634v619l-9 -22l-11 -32l-230 -565h-108l-163 413l-77 206l-1 -20l-1 -17v-582h-128v775h190l223 -563l15 -42l74 192l168 413h184v-775h-126zM577 1298v-664h-134v664h-255v111h650v-111h-261z" />
    <glyph glyph-name="acute" unicode="&#xb4;" horiz-adv-x="682" 
d="M72 1201v20l217 287h207v-29l-330 -278h-94z" />
    <glyph glyph-name="dieresis" unicode="&#xa8;" horiz-adv-x="682" 
d="M439 1219v184h163v-184h-163zM45 1219v184h165v-184h-165z" />
    <glyph glyph-name="notequal" unicode="&#x2260;" horiz-adv-x="1124" 
d="M448 344l-152 -289h-145l151 289h-237v148h311l190 364h-501v148h573l154 292h143l-152 -292h277v-148h-350l-191 -364h541v-148h-612z" />
    <glyph glyph-name="AE" unicode="&#xc6;" horiz-adv-x="2048" 
d="M969 0v412h-548l-198 -412h-199l686 1409h1209v-156h-759v-452h699v-154h-699v-491h800v-156h-991zM969 1262h-151l-28 -63l-299 -638h478v701z" />
    <glyph glyph-name="Oslash" unicode="&#xd8;" horiz-adv-x="1593" 
d="M1495 711q0 -221 -84.5 -387t-242.5 -255t-373 -89q-246 0 -414 112l-120 -145h-190l200 241q-174 192 -174 523q0 338 185 528.5t515 190.5q247 0 414 -110l121 146h192l-201 -242q172 -190 172 -513zM1300 711q0 224 -98 368l-709 -853q122 -91 302 -91
q244 0 374.5 150.5t130.5 425.5zM291 711q0 -229 101 -378l707 853q-124 88 -302 88q-242 0 -374 -148t-132 -415z" />
    <glyph glyph-name="infinity" unicode="&#x221e;" horiz-adv-x="1460" 
d="M1373 590q0 -166 -89 -276.5t-222 -110.5q-203 0 -335 282q-68 -133 -153.5 -204.5t-173.5 -71.5q-139 0 -226 105.5t-87 281.5q0 171 88.5 279t224.5 108q201 0 329 -283q65 130 151.5 203.5t183.5 73.5q140 0 224.5 -107t84.5 -280zM1040 846q-70 0 -129.5 -63
t-115.5 -193q51 -128 110.5 -192t136.5 -64q83 0 137.5 72.5t54.5 185.5q0 107 -54.5 180.5t-139.5 73.5zM664 596q-51 128 -110.5 192t-137.5 64q-84 0 -136.5 -73.5t-52.5 -184.5q0 -112 52 -183t139 -71q70 0 130 63t116 193z" />
    <glyph glyph-name="plusminus" unicode="&#xb1;" horiz-adv-x="1124" 
d="M636 680v-395h-147v395h-424v145h424v394h147v-394h424v-145h-424zM65 0v145h995v-145h-995z" />
    <glyph glyph-name="lessequal" unicode="&#x2264;" horiz-adv-x="1124" 
d="M65 631v205l995 395v-154l-858 -344l858 -344v-153zM63 0v145h995v-145h-995z" />
    <glyph glyph-name="greaterequal" unicode="&#x2265;" horiz-adv-x="1124" 
d="M65 236v153l858 344l-858 344v154l995 -395v-205zM65 0v145h995v-145h-995z" />
    <glyph glyph-name="yen" unicode="&#xa5;" 
d="M720 709h321v-125h-383v-154h383v-127h-383v-303h-178v303h-381v127h381l2 154h-383v125h320l-421 700h199l371 -647l375 647h199z" />
    <glyph glyph-name="mu1" unicode="&#xb5;" horiz-adv-x="1180" 
d="M140 -425v1507h181v-686q0 -138 53.5 -207.5t172.5 -69.5q128 0 201 87t73 249v627h180v-816q0 -76 18 -110.5t60 -34.5q25 0 54 8v-129q-65 -20 -113 -20q-91 0 -138.5 47t-52.5 147h-3q-106 -194 -299 -194q-67 0 -121.5 20.5t-85.5 58.5v-484h-180z" />
    <glyph glyph-name="partialdiff" unicode="&#x2202;" horiz-adv-x="1012" 
d="M954 938q0 -158 -36 -346.5t-109.5 -330t-180.5 -215t-239 -73.5q-161 0 -247 101.5t-86 281.5q0 166 63.5 325t166.5 241t229 82q84 0 150.5 -49.5t98.5 -133.5h4l4 117q0 196 -65 300.5t-194 104.5q-53 0 -114.5 -20t-107.5 -55l36 147q113 62 225 62q195 0 298.5 -140
t103.5 -399zM743 680q-17 88 -71.5 145.5t-123.5 57.5q-81 0 -148 -66t-110.5 -196.5t-43.5 -262.5q0 -115 45 -182t127 -67q78 0 145.5 75.5t115 209t64.5 286.5z" />
    <glyph glyph-name="summation" unicode="&#x2211;" horiz-adv-x="1460" 
d="M154 -434v109l635 816l-619 812v106h1090v-152h-846l584 -764l-600 -775h930v-152h-1174z" />
    <glyph glyph-name="product" unicode="&#x220f;" horiz-adv-x="1686" 
d="M1268 -434v1681h-842v-1681h-191v1843h1217v-1843h-184z" />
    <glyph glyph-name="integral" unicode="&#x222b;" horiz-adv-x="561" 
d="M36 -434q-79 0 -134 19v147q60 -24 117 -24q172 0 172 233l-2 1212q0 172 87 263t253 91q87 0 131 -18v-148q-49 27 -115 27q-83 0 -127.5 -59.5t-44.5 -173.5v-1214q0 -172 -87 -263.5t-250 -91.5z" />
    <glyph glyph-name="ordfeminine" unicode="&#xaa;" horiz-adv-x="758" 
d="M260 651q-108 0 -171 58t-63 161q0 116 78.5 178t233.5 64l178 4v60q0 81 -35 118t-116 37q-67 0 -107.5 -29.5t-49.5 -105.5l-149 10q16 106 95.5 166t208.5 60q145 0 220.5 -62.5t75.5 -187.5v-308q0 -58 14 -83t49 -25q19 0 43 8v-104q-49 -13 -83 -13
q-73 0 -113.5 38t-44.5 103h-4q-73 -147 -260 -147zM299 762q90 0 153.5 59t63.5 138v65l-138 -4q-118 -6 -160 -39t-42 -98q0 -121 123 -121z" />
    <glyph glyph-name="ordmasculine" unicode="&#xba;" horiz-adv-x="748" 
d="M723 1042q0 -188 -88 -289.5t-263 -101.5q-168 0 -256.5 100.5t-88.5 290.5q0 189 89 289.5t260 100.5q347 0 347 -390zM574 1042q0 154 -45.5 219.5t-149.5 65.5q-108 0 -154 -67.5t-46 -217.5q0 -145 45.5 -215.5t146.5 -70.5q111 0 157 69t46 217z" />
    <glyph glyph-name="Ohm" unicode="&#x2126;" horiz-adv-x="1573" 
d="M786 1430q303 0 476.5 -167.5t173.5 -461.5q0 -201 -107.5 -371t-316.5 -285l81 5l127 6h244v-156h-589v224q179 95 272.5 237.5t93.5 326.5q0 232 -119 359t-335 127q-218 0 -337 -127t-119 -359q0 -183 93 -325.5t273 -238.5v-224h-589v156h244l127 -6l81 -5
q-208 113 -316 283.5t-108 372.5q0 294 173.5 461.5t476.5 167.5z" />
    <glyph glyph-name="ae" unicode="&#xe6;" horiz-adv-x="1821" 
d="M968 503v-17q2 -181 77 -276t215 -95q117 0 187.5 47t95.5 119l158 -45q-97 -256 -441 -256q-321 0 -423 257q-79 -140 -184 -198.5t-251 -58.5q-167 0 -251.5 86t-84.5 236q0 174 119 262t361 92l240 4v59q0 135 -55.5 190.5t-176.5 55.5q-126 0 -182.5 -40t-69.5 -132
l-188 17q46 292 444 292q250 0 349 -139q118 139 346 139q477 0 477 -575v-24h-762zM786 534l-195 -4q-133 -3 -203.5 -29.5t-103.5 -77t-33 -124.5q0 -87 50 -135.5t143 -48.5q102 0 178.5 44.5t120 122t43.5 163.5v89zM1544 641q-15 171 -87 249.5t-207 78.5
q-127 0 -200.5 -85.5t-79.5 -242.5h574z" />
    <glyph glyph-name="oslash" unicode="&#xf8;" horiz-adv-x="1251" 
d="M1112 542q0 -284 -125 -423t-363 -139q-195 0 -313 98l-100 -116h-167l184 214q-83 138 -83 366q0 560 485 560q201 0 316 -91l91 105h167l-173 -201q81 -133 81 -373zM923 542q0 129 -23 221l-483 -562q68 -88 205 -88q162 0 231.5 104t69.5 325zM334 542
q0 -130 24 -215l482 561q-67 81 -207 81q-158 0 -228.5 -103.5t-70.5 -323.5z" />
    <glyph glyph-name="questiondown" unicode="&#xbf;" horiz-adv-x="1251" 
d="M131 50q0 75 22 134t63 109t134 118l81 59q71 52 106 109.5t36 125.5h175q-2 -69 -21.5 -121t-50.5 -92t-70 -71.5t-79 -60l-78.5 -57t-68.5 -63.5t-48.5 -79t-18.5 -103q0 -114 77.5 -180t217.5 -66t222 70t96 192l184 -12q-26 -198 -156 -304t-344 -106
q-223 0 -351 105.5t-128 292.5zM756 1082v-201h-195v201h195z" />
    <glyph glyph-name="exclamdown" unicode="&#xa1;" horiz-adv-x="682" 
d="M266 685h148l24 -1012h-196zM440 1082v-201h-194v201h194z" />
    <glyph glyph-name="logicalnot" unicode="&#xac;" horiz-adv-x="1196" 
d="M950 180v428h-850v146h995v-574h-145z" />
    <glyph glyph-name="radical" unicode="&#x221a;" horiz-adv-x="1124" 
d="M622 -14h-106l-283 792h-182v117h270l242 -690l430 1415h129z" />
    <glyph glyph-name="florin" unicode="&#x192;" 
d="M932 1312q-51 15 -110 15q-60 0 -92 -37t-51 -131l-26 -137h211l-25 -131h-213l-254 -1325h-180l254 1325h-152l27 131h151l29 152q31 153 105.5 216.5t207.5 63.5q79 0 149 -20z" />
    <glyph glyph-name="approxequal" unicode="&#x2248;" horiz-adv-x="1124" 
d="M808 758q-69 0 -141.5 21.5t-145.5 47.5q-133 45 -217 45q-63 0 -120 -18.5t-128 -69.5v144q114 84 263 84q103 0 235 -47q110 -40 167.5 -56t102.5 -16q130 0 244 94v-149q-58 -42 -116.5 -61t-143.5 -19zM808 336q-69 0 -141.5 22t-145.5 48q-133 47 -217 47
q-67 0 -125 -20.5t-123 -67.5v141q111 84 263 84q52 0 115.5 -13t193.5 -59q31 -12 91 -28.5t105 -16.5q130 0 244 92v-147q-66 -47 -122.5 -64.5t-137.5 -17.5z" />
    <glyph glyph-name="uni2206" unicode="&#x2206;" horiz-adv-x="1253" 
d="M522 1409h217l510 -1268v-141h-1245l1 141zM1049 156l-338 862q-30 74 -55.5 154.5t-27.5 92.5l-9 -32q-31 -111 -74 -217l-339 -860h843z" />
    <glyph glyph-name="guillemotleft" unicode="&#xab;" 
d="M886 141l-338 365v63l338 371h168v-31l-338 -372l340 -367v-29h-170zM419 141l-336 365v63l336 371h167v-31l-335 -372l337 -367v-29h-169z" />
    <glyph glyph-name="guillemotright" unicode="&#xbb;" 
d="M718 141h-168v29l338 367l-336 372v31h166l338 -371v-63zM253 141h-170v29l338 367l-336 372v31h168l335 -371v-63z" />
    <glyph glyph-name="ellipsis" unicode="&#x2026;" horiz-adv-x="2048" 
d="M1576 0v219h194v-219h-194zM929 0v219h192v-219h-192zM278 0v219h195v-219h-195z" />
    <glyph glyph-name="Agrave" unicode="&#xc0;" horiz-adv-x="1366" 
d="M1167 0l-161 412h-642l-162 -412h-198l575 1409h217l566 -1409h-195zM685 1265l-9 -28q-25 -83 -74 -213l-180 -463h527l-181 465q-28 69 -56 156zM750 1530l-310 217v29h207l217 -226v-20h-114z" />
    <glyph glyph-name="Atilde" unicode="&#xc3;" horiz-adv-x="1366" 
d="M1167 0l-161 412h-642l-162 -412h-198l575 1409h217l566 -1409h-195zM685 1265l-9 -28q-25 -83 -74 -213l-180 -463h527l-181 465q-28 69 -56 156zM842 1530q-42 0 -84 18.5t-81 41t-74.5 41t-66.5 18.5q-55 0 -82 -31t-36 -88h-91q11 102 35 154.5t64.5 83t103.5 30.5
q44 0 86 -18.5t81 -41l73.5 -41t64.5 -18.5q100 0 117 119h92q-17 -148 -67 -208t-135 -60z" />
    <glyph glyph-name="Otilde" unicode="&#xd5;" horiz-adv-x="1593" 
d="M1495 711q0 -221 -84.5 -387t-242.5 -255t-373 -89q-217 0 -374.5 88t-240.5 254.5t-83 388.5q0 338 185 528.5t515 190.5q215 0 373 -85.5t241.5 -248.5t83.5 -385zM1300 711q0 263 -131.5 413t-371.5 150q-242 0 -374 -148t-132 -415q0 -265 133.5 -420.5t370.5 -155.5
q244 0 374.5 150.5t130.5 425.5zM941 1530q-42 0 -84 18.5t-81 41t-74.5 41t-66.5 18.5q-55 0 -82 -31t-36 -88h-91q11 102 35 154.5t64.5 83t103.5 30.5q44 0 86 -18.5t81 -41l73.5 -41t64.5 -18.5q100 0 117 119h92q-17 -148 -67 -208t-135 -60z" />
    <glyph glyph-name="OE" unicode="&#x152;" horiz-adv-x="2048" 
d="M999 0q-67 -10 -210 -10q-323 0 -507.5 193t-184.5 528q0 332 184 520.5t510 188.5q107 0 212 -11h914v-156h-803v-452h743v-154h-743v-491h844v-156h-959zM789 145q82 0 134 4v1111q-44 4 -80.5 4h-51.5q-245 0 -372.5 -143t-127.5 -410q0 -268 131.5 -417t366.5 -149z
" />
    <glyph glyph-name="oe" unicode="&#x153;" horiz-adv-x="1933" 
d="M1070 503q0 -186 77 -287t225 -101q117 0 187.5 47t95.5 119l158 -45q-97 -256 -441 -256q-275 0 -396 183q-124 -183 -401 -183q-238 0 -363.5 144.5t-125.5 417.5q0 279 126.5 419.5t368.5 140.5q281 0 398 -177q126 177 386 177q477 0 477 -575v-24h-772zM881 542
q0 219 -69 323t-228 104q-162 0 -235.5 -106.5t-73.5 -320.5q0 -429 298 -429q164 0 236 104t72 325zM1656 641q-15 171 -87 249.5t-207 78.5q-131 0 -207.5 -87.5t-82.5 -240.5h584z" />
    <glyph glyph-name="endash" unicode="&#x2013;" 
d="M0 451v137h1138v-137h-1138z" />
    <glyph glyph-name="emdash" unicode="&#x2014;" horiz-adv-x="2048" 
d="M0 451v137h2048v-137h-2048z" />
    <glyph glyph-name="quotedblleft" unicode="&#x201c;" horiz-adv-x="682" 
d="M407 952v146q0 95 18 169.5t60 141.5h122q-94 -136 -94 -262h88v-195h-194zM75 952v146q0 97 18.5 170.5t61.5 140.5h121q-95 -137 -95 -262h89v-195h-195z" />
    <glyph glyph-name="quotedblright" unicode="&#x201d;" horiz-adv-x="682" 
d="M607 1264q0 -93 -17 -166t-62 -146h-121q94 136 94 262h-88v195h194v-145zM276 1264q0 -105 -19 -176.5t-59 -135.5h-123q94 136 94 262h-88v195h195v-145z" />
    <glyph glyph-name="quoteleft" unicode="&#x2018;" horiz-adv-x="455" 
d="M127 952v146q0 97 18.5 170.5t61.5 140.5h121q-95 -137 -95 -262h89v-195h-195z" />
    <glyph glyph-name="quoteright" unicode="&#x2019;" horiz-adv-x="455" 
d="M328 1264q0 -105 -19 -176.5t-59 -135.5h-123q94 136 94 260h-88v197h195v-145z" />
    <glyph glyph-name="divide" unicode="&#xf7;" horiz-adv-x="1124" 
d="M478 958v183h168v-183h-168zM65 608v146h995v-146h-995zM478 223v183h168v-183h-168z" />
    <glyph glyph-name="lozenge" unicode="&#x25ca;" horiz-adv-x="1012" 
d="M547 0h-82l-457 719l457 721h82l459 -719zM508 1286l-354 -565l354 -574l352 574z" />
    <glyph glyph-name="ydieresis" unicode="&#xff;" horiz-adv-x="1024" 
d="M191 -425q-74 0 -124 11v135q38 -6 84 -6q168 0 266 247l17 43l-429 1077h192l228 -598l12 -33.5l45 -130.5t41 -124l70 197l237 689h190l-416 -1082q-67 -173 -125 -257.5t-128.5 -126t-159.5 -41.5zM626 1219v184h163v-184h-163zM232 1219v184h165v-184h-165z" />
    <glyph glyph-name="Ydieresis" unicode="&#x178;" horiz-adv-x="1366" 
d="M777 584v-584h-190v584l-542 825h210l429 -671l427 671h210zM799 1530v184h163v-184h-163zM405 1530v184h165v-184h-165z" />
    <glyph glyph-name="fraction" unicode="&#x2044;" horiz-adv-x="342" 
d="M-268 0h-148l881 1409h145z" />
    <glyph glyph-name="fraction" unicode="&#x2215;" horiz-adv-x="342" 
d="M-268 0h-148l881 1409h145z" />
    <glyph glyph-name="Euro" unicode="&#x20ac;" 
d="M691 126q100 0 160 50t74 141l185 -14q-30 -155 -139.5 -239t-283.5 -84q-217 0 -343.5 131t-156.5 391h-171l40 129h120l-3 78l3 86h-160l40 127h129q32 257 156 382.5t343 125.5q175 0 284.5 -84.5t138.5 -238.5l-185 -14q-14 91 -74.5 141t-166.5 50
q-142 0 -217.5 -87t-96.5 -275h446l-40 -127h-413q-3 -24 -3 -86q0 -40 4 -78h452l-40 -129h-404q22 -195 103 -285.5t219 -90.5z" />
    <glyph glyph-name="guilsinglleft" unicode="&#x2039;" horiz-adv-x="682" 
d="M424 141l-336 365v63l336 371h167v-31l-335 -372l337 -367v-29h-169z" />
    <glyph glyph-name="guilsinglright" unicode="&#x203a;" horiz-adv-x="682" 
d="M257 141h-168v29l338 367l-336 372v31h166l337 -371v-63z" />
    <glyph glyph-name="fi" unicode="&#xf001;" horiz-adv-x="1024" 
d="M361 951v-951h-180v951h-152v131h152v122q0 148 65 213t199 65q75 0 127 -12v-137q-45 8 -80 8q-69 0 -100 -35t-31 -127v-97h211v-131h-211zM706 1312v172h180v-172h-180zM706 0v1082h180v-1082h-180z" />
    <glyph glyph-name="fi" unicode="&#xfb01;" horiz-adv-x="1024" 
d="M361 951v-951h-180v951h-152v131h152v122q0 148 65 213t199 65q75 0 127 -12v-137q-45 8 -80 8q-69 0 -100 -35t-31 -127v-97h211v-131h-211zM706 1312v172h180v-172h-180zM706 0v1082h180v-1082h-180z" />
    <glyph glyph-name="fl" unicode="&#xf002;" horiz-adv-x="1024" 
d="M361 951v-951h-180v951h-152v131h152v122q0 148 65 213t199 65q75 0 127 -12v-137q-45 8 -80 8q-69 0 -100 -35t-31 -127v-97h211v-131h-211zM707 0v1484h180v-1484h-180z" />
    <glyph glyph-name="fl" unicode="&#xfb02;" horiz-adv-x="1024" 
d="M361 951v-951h-180v951h-152v131h152v122q0 148 65 213t199 65q75 0 127 -12v-137q-45 8 -80 8q-69 0 -100 -35t-31 -127v-97h211v-131h-211zM707 0v1484h180v-1484h-180z" />
    <glyph glyph-name="daggerdbl" unicode="&#x2021;" 
d="M497 1000l-360 -27v164l360 -29l-16 376h175l-16 -376l361 29v-164l-361 27l-26 -330l26 -327l360 27v-164l-360 29l16 -376h-175l16 376l-361 -29v164l361 -27l26 327z" />
    <glyph glyph-name="periodcentered" unicode="&#x2219;" horiz-adv-x="569" 
d="M187 446v220h195v-220h-195z" />
    <glyph glyph-name="quotesinglbase" unicode="&#x201a;" horiz-adv-x="455" 
d="M328 51q0 -106 -19 -177t-59 -136h-123q94 136 94 262h-88v195h195v-144z" />
    <glyph glyph-name="quotedblbase" unicode="&#x201e;" horiz-adv-x="682" 
d="M607 51q0 -95 -17.5 -168.5t-61.5 -144.5h-121q94 136 94 262h-88v195h194v-144zM276 51q0 -106 -19 -177t-59 -136h-123q94 136 94 262h-88v195h195v-144z" />
    <glyph glyph-name="perthousand" unicode="&#x2030;" horiz-adv-x="2048" 
d="M304 0h-155l922 1409h157zM356 1421q150 0 221.5 -91.5t71.5 -269.5q0 -180 -76 -273t-221 -93q-148 0 -222.5 94t-74.5 272q0 181 72.5 271t228.5 90zM502 1060q0 133 -33.5 193t-112.5 60q-84 0 -119 -59.5t-35 -193.5q0 -132 36.5 -192.5t115.5 -60.5q75 0 111.5 62
t36.5 191zM1044 716q150 0 221.5 -91.5t71.5 -269.5q0 -180 -76 -273t-221 -93q-148 0 -222.5 94t-74.5 272q0 181 72.5 271t228.5 90zM1190 355q0 133 -33.5 193t-112.5 60q-84 0 -119 -59.5t-35 -193.5q0 -132 36.5 -192.5t115.5 -60.5q75 0 111.5 62t36.5 191zM1699 716
q150 0 221.5 -91.5t71.5 -269.5q0 -180 -76 -273t-221 -93q-148 0 -222.5 94t-74.5 272q0 181 72.5 271t228.5 90zM1845 355q0 133 -33.5 193t-112.5 60q-84 0 -119 -59.5t-35 -193.5q0 -132 36.5 -192.5t115.5 -60.5q75 0 111.5 62t36.5 191z" />
    <glyph glyph-name="Acircumflex" unicode="&#xc2;" horiz-adv-x="1366" 
d="M1167 0l-161 412h-642l-162 -412h-198l575 1409h217l566 -1409h-195zM685 1265l-9 -28q-25 -83 -74 -213l-180 -463h527l-181 465q-28 69 -56 156zM1014 1550v-20h-105l-219 139h-2l-232 -139h-104v20l234 240h204z" />
    <glyph glyph-name="Ecircumflex" unicode="&#xca;" horiz-adv-x="1366" 
d="M168 0v1409h1069v-156h-878v-452h818v-154h-818v-491h919v-156h-1110zM1037 1550v-20h-105l-219 139h-2l-232 -139h-104v20l234 240h204z" />
    <glyph glyph-name="Aacute" unicode="&#xc1;" horiz-adv-x="1366" 
d="M1167 0l-161 412h-642l-162 -412h-198l575 1409h217l566 -1409h-195zM685 1265l-9 -28q-25 -83 -74 -213l-180 -463h527l-181 465q-28 69 -56 156zM547 1530v20l217 226h207v-29l-310 -217h-114z" />
    <glyph glyph-name="Edieresis" unicode="&#xcb;" horiz-adv-x="1366" 
d="M168 0v1409h1069v-156h-878v-452h818v-154h-818v-491h919v-156h-1110zM816 1530v184h163v-184h-163zM422 1530v184h165v-184h-165z" />
    <glyph glyph-name="Egrave" unicode="&#xc8;" horiz-adv-x="1366" 
d="M168 0v1409h1069v-156h-878v-452h818v-154h-818v-491h919v-156h-1110zM735 1530l-310 217v29h207l217 -226v-20h-114z" />
    <glyph glyph-name="Iacute" unicode="&#xcd;" horiz-adv-x="569" 
d="M189 0v1409h191v-1409h-191zM142 1530v20l217 226h207v-29l-310 -217h-114z" />
    <glyph glyph-name="Icircumflex" unicode="&#xce;" horiz-adv-x="569" 
d="M189 0v1409h191v-1409h-191zM616 1550v-20h-105l-219 139h-2l-232 -139h-104v20l234 240h204z" />
    <glyph glyph-name="Idieresis" unicode="&#xcf;" horiz-adv-x="569" 
d="M189 0v1409h191v-1409h-191zM401 1530v184h163v-184h-163zM7 1530v184h165v-184h-165z" />
    <glyph glyph-name="Igrave" unicode="&#xcc;" horiz-adv-x="569" 
d="M189 0v1409h191v-1409h-191zM319 1530l-310 217v29h207l217 -226v-20h-114z" />
    <glyph glyph-name="Oacute" unicode="&#xd3;" horiz-adv-x="1593" 
d="M1495 711q0 -221 -84.5 -387t-242.5 -255t-373 -89q-217 0 -374.5 88t-240.5 254.5t-83 388.5q0 338 185 528.5t515 190.5q215 0 373 -85.5t241.5 -248.5t83.5 -385zM1300 711q0 263 -131.5 413t-371.5 150q-242 0 -374 -148t-132 -415q0 -265 133.5 -420.5t370.5 -155.5
q244 0 374.5 150.5t130.5 425.5zM621 1530v20l217 226h207v-29l-310 -217h-114z" />
    <glyph glyph-name="Ocircumflex" unicode="&#xd4;" horiz-adv-x="1593" 
d="M1495 711q0 -221 -84.5 -387t-242.5 -255t-373 -89q-217 0 -374.5 88t-240.5 254.5t-83 388.5q0 338 185 528.5t515 190.5q215 0 373 -85.5t241.5 -248.5t83.5 -385zM1300 711q0 263 -131.5 413t-371.5 150q-242 0 -374 -148t-132 -415q0 -265 133.5 -420.5t370.5 -155.5
q244 0 374.5 150.5t130.5 425.5zM1131 1550v-20h-105l-219 139h-2l-232 -139h-104v20l234 240h204z" />
    <glyph glyph-name="Ograve" unicode="&#xd2;" horiz-adv-x="1593" 
d="M1495 711q0 -221 -84.5 -387t-242.5 -255t-373 -89q-217 0 -374.5 88t-240.5 254.5t-83 388.5q0 338 185 528.5t515 190.5q215 0 373 -85.5t241.5 -248.5t83.5 -385zM1300 711q0 263 -131.5 413t-371.5 150q-242 0 -374 -148t-132 -415q0 -265 133.5 -420.5t370.5 -155.5
q244 0 374.5 150.5t130.5 425.5zM854 1530l-310 217v29h207l217 -226v-20h-114z" />
    <glyph glyph-name="Uacute" unicode="&#xda;" horiz-adv-x="1479" 
d="M731 -20q-173 0 -302 63t-200 183t-71 286v897h191v-881q0 -193 98 -293t283 -100q190 0 295.5 103.5t105.5 302.5v868h190v-879q0 -171 -72.5 -295t-205 -189.5t-312.5 -65.5zM565 1530v20l217 226h207v-29l-310 -217h-114z" />
    <glyph glyph-name="Ucircumflex" unicode="&#xdb;" horiz-adv-x="1479" 
d="M731 -20q-173 0 -302 63t-200 183t-71 286v897h191v-881q0 -193 98 -293t283 -100q190 0 295.5 103.5t105.5 302.5v868h190v-879q0 -171 -72.5 -295t-205 -189.5t-312.5 -65.5zM1070 1550v-20h-105l-219 139h-2l-232 -139h-104v20l234 240h204z" />
    <glyph glyph-name="Ugrave" unicode="&#xd9;" horiz-adv-x="1479" 
d="M731 -20q-173 0 -302 63t-200 183t-71 286v897h191v-881q0 -193 98 -293t283 -100q190 0 295.5 103.5t105.5 302.5v868h190v-879q0 -171 -72.5 -295t-205 -189.5t-312.5 -65.5zM813 1530l-310 217v29h207l217 -226v-20h-114z" />
    <glyph glyph-name="dotlessi" unicode="&#x131;" horiz-adv-x="569" 
d="M194 0v1082h180v-1082h-180z" />
    <glyph glyph-name="circumflex" unicode="&#x2c6;" horiz-adv-x="682" 
d="M662 1221v-20h-105l-219 169h-2l-232 -169h-104v20l234 270h204z" />
    <glyph glyph-name="tilde" unicode="&#x2dc;" horiz-adv-x="682" 
d="M492 1201q-42 0 -84 18.5t-81 41t-74.5 41t-66.5 18.5q-55 0 -82 -31t-36 -88h-91q11 102 35 154.5t64.5 83t103.5 30.5q44 0 86 -18.5t81 -41l73.5 -41t64.5 -18.5q100 0 117 119h92q-17 -148 -67 -208t-135 -60z" />
    <glyph glyph-name="macron" unicode="&#x2c9;" horiz-adv-x="682" 
d="M600 1236h-549v127h549v-127z" />
    <glyph glyph-name="breve" unicode="&#x2d8;" horiz-adv-x="682" 
d="M297 1201q-132 0 -223 85t-109 224h117q28 -153 217 -153q186 0 215 153h117q-21 -142 -110.5 -225.5t-223.5 -83.5z" />
    <glyph glyph-name="dotaccent" unicode="&#x2d9;" horiz-adv-x="682" 
d="M156 1312v172h180v-172h-180z" />
    <glyph glyph-name="ring" unicode="&#x2da;" horiz-adv-x="682" 
d="M535 1410q0 -100 -71 -171t-171 -71t-171 71t-71 171q0 101 71 171t171 70q99 0 170.5 -70.5t71.5 -170.5zM427 1410q0 56 -39 95t-95 39q-57 0 -96 -39t-39 -95q0 -55 38 -96t97 -41q58 0 96 40.5t38 96.5z" />
    <glyph glyph-name="cedilla" unicode="&#xb8;" horiz-adv-x="682" 
d="M483 -253q0 -181 -274 -181q-57 0 -90 4v98q49 -6 86 -6q147 0 147 81q0 77 -133 77q-43 0 -57 -2l65 182h107l-39 -100q94 -3 141 -43.5t47 -109.5z" />
    <glyph glyph-name="hungarumlaut" unicode="&#x2dd;" horiz-adv-x="682" 
d="M22 1201v20l217 287h207v-29l-330 -278h-94zM369 1201v20l217 287h207v-29l-330 -278h-94z" />
    <glyph glyph-name="ogonek" unicode="&#x2db;" horiz-adv-x="682" 
d="M430 -400q-63 -27 -139 -27q-105 0 -158 51t-53 136q0 70 43.5 136t111.5 104h133q-25 -14 -51 -36.5t-47.5 -52t-35 -64.5t-13.5 -74q0 -42 24.5 -66t69.5 -24q54 0 115 24v-107z" />
    <glyph glyph-name="caron" unicode="&#x2c7;" horiz-adv-x="682" 
d="M438 1201h-204l-234 270v20h104l232 -169h2l219 169h105v-20z" />
    <glyph glyph-name="Lslash" unicode="&#x141;" 
d="M616 797l-257 -149v-492h712v-156h-903v538l-148 -85v158l148 85v713h191v-603l257 148v-157z" />
    <glyph glyph-name="lslash" unicode="&#x142;" horiz-adv-x="455" 
d="M138 0v542l-122 -68v158l122 68v784h180v-680l124 72v-159l-124 -71v-646h-180z" />
    <glyph glyph-name="Scaron" unicode="&#x160;" horiz-adv-x="1366" 
d="M1272 389q0 -195 -152.5 -302t-429.5 -107q-515 0 -597 358l185 37q32 -127 136 -186.5t283 -59.5q185 0 285.5 63.5t100.5 186.5q0 69 -31.5 112t-88.5 71t-136 47l-175 41q-167 37 -253.5 74t-136.5 82.5t-76.5 106.5t-26.5 140q0 181 138.5 279t396.5 98
q240 0 367 -73.5t178 -250.5l-188 -33q-31 112 -118 162.5t-241 50.5q-169 0 -258 -56t-89 -167q0 -65 34.5 -107.5t99.5 -72t259 -72.5l129.5 -30.5t123.5 -37t110.5 -50.5t89.5 -71t59.5 -99t21.5 -134zM809 1530h-204l-234 239v21h104l232 -139h2l219 139h105v-21z" />
    <glyph glyph-name="scaron" unicode="&#x161;" horiz-adv-x="1024" 
d="M950 299q0 -153 -115.5 -236t-323.5 -83q-202 0 -311.5 66.5t-142.5 207.5l159 31q23 -87 95 -127.5t200 -40.5q137 0 200.5 42t63.5 126q0 64 -44 104t-142 66l-129 34q-155 40 -220.5 78.5t-102.5 93.5t-37 135q0 148 105.5 225.5t307.5 77.5q179 0 284.5 -63
t133.5 -202l-162 -20q-15 72 -80.5 110.5t-175.5 38.5q-122 0 -180 -37t-58 -112q0 -46 24 -76t71 -51t198 -58q143 -36 206 -66.5t99.5 -67.5t56.5 -85.5t20 -110.5zM611 1201h-204l-234 270v20h104l232 -169h2l219 169h105v-20z" />
    <glyph glyph-name="Zcaron" unicode="&#x17d;" horiz-adv-x="1251" 
d="M1187 0h-1122v143l858 1110h-785v156h1002v-139l-858 -1114h905v-156zM750 1530h-204l-234 239v21h104l232 -139h2l219 139h105v-21z" />
    <glyph glyph-name="zcaron" unicode="&#x17e;" horiz-adv-x="1024" 
d="M83 0v137l605 806h-571v139h784v-137l-606 -806h627v-139h-839zM594 1201h-204l-234 270v20h104l232 -169h2l219 169h105v-20z" />
    <glyph glyph-name="brokenbar" unicode="&#xa6;" horiz-adv-x="532" 
d="M183 706v778h166v-778h-166zM183 -434v779h166v-779h-166z" />
    <glyph glyph-name="Eth" unicode="&#xd0;" horiz-adv-x="1479" 
d="M14 801h154v608h466q358 0 552.5 -179.5t194.5 -510.5q0 -218 -85 -381.5t-241 -250.5t-360 -87h-527v647h-154v154zM1189 719q0 262 -143.5 399.5t-415.5 137.5h-271v-455h406v-154h-406v-494h314q155 0 272.5 68t180.5 196t63 302z" />
    <glyph glyph-name="eth" unicode="&#xf0;" 
d="M566 -20q-232 0 -356 129t-124 372q0 244 124 371t363 127q137 0 231 -59q-109 217 -234 331l-301 -133v114l218 94q-109 87 -242 158h209q80 -36 170 -102l306 132l-1 -112l-211 -92q171 -156 258 -359t87 -435v-6q0 -261 -124.5 -395.5t-372.5 -134.5zM874 481
q0 192 -70.5 278.5t-226.5 86.5q-157 0 -229.5 -87t-72.5 -278q0 -190 72 -279t217 -89q161 0 235.5 87.5t74.5 280.5z" />
    <glyph glyph-name="Yacute" unicode="&#xdd;" horiz-adv-x="1366" 
d="M777 584v-584h-190v584l-542 825h210l429 -671l427 671h210zM536 1530v20l217 226h207v-29l-310 -217h-114z" />
    <glyph glyph-name="yacute" unicode="&#xfd;" horiz-adv-x="1024" 
d="M191 -425q-74 0 -124 11v135q38 -6 84 -6q168 0 266 247l17 43l-429 1077h192l228 -598l12 -33.5l45 -130.5t41 -124l70 197l237 689h190l-416 -1082q-67 -173 -125 -257.5t-128.5 -126t-159.5 -41.5zM355 1201v20l217 287h207v-29l-330 -278h-94z" />
    <glyph glyph-name="Thorn" unicode="&#xde;" horiz-adv-x="1366" 
d="M1258 735q0 -128 -58 -227.5t-167.5 -155t-259.5 -55.5h-414v-297h-191v1409h191v-252h402q239 0 368 -111t129 -311zM1066 731q0 134 -82 208.5t-246 74.5h-379v-576h387q153 0 236.5 77.5t83.5 215.5z" />
    <glyph glyph-name="thorn" unicode="&#xfe;" 
d="M138 1484h180v-423q0 -65 -4 -153h6q48 100 127 146.5t208 46.5q200 0 299 -134t99 -421q0 -566 -398 -566q-250 0 -336 188h-5q4 -8 4 -170v-423h-180v1909zM864 542q0 226 -61 323t-194 97q-107 0 -167.5 -45t-92 -140.5t-31.5 -248.5q0 -213 68 -314t221 -101
q134 0 195.5 98.5t61.5 330.5z" />
    <glyph glyph-name="minus" unicode="&#x2212;" horiz-adv-x="1196" 
d="M101 608v146h995v-146h-995z" />
    <glyph glyph-name="multiply" unicode="&#xd7;" horiz-adv-x="1196" 
d="M142 330l354 354l-352 352l104 103l350 -353l350 351l105 -105l-350 -348l352 -352l-102 -105l-353 353l-356 -355z" />
    <glyph glyph-name="onesuperior" unicode="&#xb9;" horiz-adv-x="682" 
d="M80 563v107h211v620l-202 -138v120l210 137h123v-739h215v-107h-557z" />
    <glyph glyph-name="twosuperior" unicode="&#xb2;" horiz-adv-x="682" 
d="M43 563l-2 103q31 69 95.5 134.5t171.5 139.5q97 68 141 124t44 114q0 62 -35.5 99.5t-109.5 37.5q-68 0 -112 -36.5t-52 -104.5l-133 8q13 107 93.5 173t209.5 66q127 0 201.5 -61.5t74.5 -171.5q0 -147 -188 -285q-122 -90 -172 -136t-70 -91h443v-113h-600z" />
    <glyph glyph-name="threesuperior" unicode="&#xb3;" horiz-adv-x="682" 
d="M642 795q0 -116 -77.5 -180t-219.5 -64q-286 0 -318 227l136 13q18 -136 182 -136q160 0 160 148q0 137 -189 137h-61v109h57q80 0 126 36t46 101q0 60 -37 94.5t-108 34.5q-68 0 -110 -35t-48 -100l-135 12q13 109 91.5 169t205.5 60q130 0 204 -59.5t74 -157.5
q0 -75 -43 -130t-133 -75v-2q91 -9 144 -61.5t53 -140.5z" />
    <glyph glyph-name="onehalf" unicode="&#xbd;" horiz-adv-x="1708" 
d="M56 563v107h211v620l-202 -138v120l210 137h123v-739h215v-107h-557zM493 0h-148l881 1409h145zM1053 2l-2 103q31 69 95.5 134.5t171.5 139.5q97 68 141 124t44 114q0 62 -35.5 99.5t-109.5 37.5q-68 0 -112 -36.5t-52 -104.5l-133 8q13 107 93.5 173t209.5 66
q127 0 201.5 -61.5t74.5 -171.5q0 -147 -188 -285q-122 -90 -172 -136t-70 -91h443v-113h-600z" />
    <glyph glyph-name="onequarter" unicode="&#xbc;" horiz-adv-x="1708" 
d="M56 563v107h211v620l-202 -138v120l210 137h123v-739h215v-107h-557zM493 0h-148l881 1409h145zM1503 180v-178h-131v178h-406v111l386 557h151v-555h111v-113h-111zM1374 715q-21 -40 -82 -135l-199 -287h279v360z" />
    <glyph glyph-name="threequarters" unicode="&#xbe;" horiz-adv-x="1708" 
d="M513 0h-148l881 1409h145zM1503 180v-178h-131v178h-406v111l386 557h151v-555h111v-113h-111zM1374 715q-21 -40 -82 -135l-199 -287h279v360zM688 795q0 -116 -77.5 -180t-219.5 -64q-286 0 -318 227l136 13q18 -136 182 -136q160 0 160 148q0 137 -189 137h-61v109h57
q80 0 126 36t46 101q0 60 -37 94.5t-108 34.5q-68 0 -110 -35t-48 -100l-135 12q13 109 91.5 169t205.5 60q130 0 204 -59.5t74 -157.5q0 -75 -43 -130t-133 -75v-2q91 -9 144 -61.5t53 -140.5z" />
    <glyph glyph-name="franc" unicode="&#x20a3;" 
d="M359 1254v-476h687v-157h-687v-213h402v-129h-402v-279h-180v279h-175v129h175v1001h891v-155h-711z" />
    <glyph glyph-name="Gbreve" unicode="&#x11e;" horiz-adv-x="1593" 
d="M103 711q0 343 184 531t517 188q234 0 380 -79t225 -253l-182 -54q-60 120 -165.5 175t-262.5 55q-244 0 -373 -147.5t-129 -415.5q0 -267 137 -421.5t379 -154.5q138 0 257.5 42t193.5 114v254h-421v160h597v-486q-112 -114 -274.5 -176.5t-352.5 -62.5q-221 0 -381 88
t-244.5 253.5t-84.5 389.5zM810 1530q-133 0 -223.5 69t-108.5 180h117q17 -53 71.5 -83t145.5 -30t144.5 30.5t70.5 82.5h117q-21 -114 -111 -181.5t-223 -67.5z" />
    <glyph glyph-name="gbreve" unicode="&#x11f;" 
d="M548 -425q-177 0 -282 69.5t-135 197.5l181 26q18 -75 79.5 -115.5t161.5 -40.5q269 0 269 315v174h-2q-51 -104 -140 -156.5t-208 -52.5q-199 0 -292.5 132t-93.5 415q0 287 100.5 423.5t305.5 136.5q115 0 199.5 -52.5t130.5 -149.5h2q0 30 4 104t8 81h171
q-6 -54 -6 -224v-827q0 -456 -453 -456zM822 541q0 132 -36 227.5t-101.5 146t-148.5 50.5q-138 0 -201 -100t-63 -324q0 -222 59 -319t202 -97q85 0 151 50t102 143.5t36 222.5zM546 1201q-132 0 -223 85t-109 224h117q28 -153 217 -153q186 0 215 153h117
q-21 -142 -110.5 -225.5t-223.5 -83.5z" />
    <glyph glyph-name="Idotaccent" unicode="&#x130;" horiz-adv-x="569" 
d="M189 0v1409h191v-1409h-191zM195 1605v172h180v-172h-180z" />
    <glyph glyph-name="Scedilla" unicode="&#x15e;" horiz-adv-x="1366" 
d="M1272 389q0 -195 -152.5 -302t-429.5 -107q-515 0 -597 358l185 37q32 -127 136 -186.5t283 -59.5q185 0 285.5 63.5t100.5 186.5q0 69 -31.5 112t-88.5 71t-136 47l-175 41q-167 37 -253.5 74t-136.5 82.5t-76.5 106.5t-26.5 140q0 181 138.5 279t396.5 98
q240 0 367 -73.5t178 -250.5l-188 -33q-31 112 -118 162.5t-241 50.5q-169 0 -258 -56t-89 -167q0 -65 34.5 -107.5t99.5 -72t259 -72.5l129.5 -30.5t123.5 -37t110.5 -50.5t89.5 -71t59.5 -99t21.5 -134zM905 -253q0 -181 -274 -181q-57 0 -90 4v98q49 -6 86 -6
q147 0 147 81q0 77 -133 77q-43 0 -57 -2l65 182h107l-39 -100q94 -3 141 -43.5t47 -109.5z" />
    <glyph glyph-name="scedilla" unicode="&#x15f;" horiz-adv-x="1024" 
d="M950 299q0 -153 -115.5 -236t-323.5 -83q-202 0 -311.5 66.5t-142.5 207.5l159 31q23 -87 95 -127.5t200 -40.5q137 0 200.5 42t63.5 126q0 64 -44 104t-142 66l-129 34q-155 40 -220.5 78.5t-102.5 93.5t-37 135q0 148 105.5 225.5t307.5 77.5q179 0 284.5 -63
t133.5 -202l-162 -20q-15 72 -80.5 110.5t-175.5 38.5q-122 0 -180 -37t-58 -112q0 -46 24 -76t71 -51t198 -58q143 -36 206 -66.5t99.5 -67.5t56.5 -85.5t20 -110.5zM701 -253q0 -181 -274 -181q-57 0 -90 4v98q49 -6 86 -6q147 0 147 81q0 77 -133 77q-43 0 -57 -2l65 182
h107l-39 -100q94 -3 141 -43.5t47 -109.5z" />
    <glyph glyph-name="Cacute" unicode="&#x106;" horiz-adv-x="1479" 
d="M792 1274q-234 0 -364 -150.5t-130 -412.5q0 -259 135.5 -416.5t366.5 -157.5q296 0 445 293l156 -78q-87 -182 -244.5 -277t-365.5 -95q-213 0 -368.5 88.5t-237 253t-81.5 389.5q0 337 182 528t504 191q225 0 376 -88t222 -261l-181 -60q-49 123 -157.5 188t-257.5 65z
M667 1530v20l217 226h207v-29l-310 -217h-114z" />
    <glyph glyph-name="cacute" unicode="&#x107;" horiz-adv-x="1024" 
d="M275 546q0 -216 68 -320t205 -104q96 0 160.5 52t79.5 160l182 -12q-21 -156 -133 -249t-284 -93q-227 0 -346.5 143.5t-119.5 418.5q0 273 120 416.5t344 143.5q166 0 275.5 -86t137.5 -237l-185 -14q-14 90 -71 143t-162 53q-143 0 -207 -95t-64 -320zM431 1201v20
l217 287h207v-29l-330 -278h-94z" />
    <glyph glyph-name="Ccaron" unicode="&#x10c;" horiz-adv-x="1479" 
d="M792 1274q-234 0 -364 -150.5t-130 -412.5q0 -259 135.5 -416.5t366.5 -157.5q296 0 445 293l156 -78q-87 -182 -244.5 -277t-365.5 -95q-213 0 -368.5 88.5t-237 253t-81.5 389.5q0 337 182 528t504 191q225 0 376 -88t222 -261l-181 -60q-49 123 -157.5 188t-257.5 65z
M898 1530h-204l-234 239v21h104l232 -139h2l219 139h105v-21z" />
    <glyph glyph-name="ccaron" unicode="&#x10d;" horiz-adv-x="1024" 
d="M275 546q0 -216 68 -320t205 -104q96 0 160.5 52t79.5 160l182 -12q-21 -156 -133 -249t-284 -93q-227 0 -346.5 143.5t-119.5 418.5q0 273 120 416.5t344 143.5q166 0 275.5 -86t137.5 -237l-185 -14q-14 90 -71 143t-162 53q-143 0 -207 -95t-64 -320zM652 1201h-204
l-234 270v20h104l232 -169h2l219 169h105v-20z" />
    <glyph glyph-name="dcroat" unicode="&#x111;" 
d="M821 174q-50 -104 -132.5 -149t-204.5 -45q-205 0 -301.5 138t-96.5 418q0 566 398 566q123 0 205 -45t132 -143h2l-2 121v171h-300v131h300v147h180v-147h132v-131h-132v-983q0 -169 6 -223h-172q-3 16 -6.5 74t-3.5 100h-4zM275 542q0 -227 60 -325t195 -98
q153 0 222 106t69 329q0 215 -69 315t-220 100q-136 0 -196.5 -100.5t-60.5 -326.5z" />
    <glyph glyph-name="overscore" unicode="&#xaf;" horiz-adv-x="1131" 
d="M1148 1452h-1165v94h1165v-94z" />
    <glyph glyph-name="middot" unicode="&#xb7;" horiz-adv-x="682" 
d="M243 446v220h195v-220h-195z" />
    <glyph glyph-name="Abreve" unicode="&#x102;" horiz-adv-x="1366" 
d="M1167 0l-161 412h-642l-162 -412h-198l575 1409h217l566 -1409h-195zM685 1265l-9 -28q-25 -83 -74 -213l-180 -463h527l-181 465q-28 69 -56 156zM685 1530q-133 0 -223.5 69t-108.5 180h117q17 -53 71.5 -83t145.5 -30t144.5 30.5t70.5 82.5h117q-21 -114 -111 -181.5
t-223 -67.5z" />
    <glyph glyph-name="abreve" unicode="&#x103;" 
d="M414 -20q-163 0 -245 86t-82 236q0 168 110.5 258t356.5 96l243 4v59q0 132 -56 189t-176 57q-121 0 -176 -41t-66 -131l-188 17q46 292 434 292q204 0 307 -93.5t103 -270.5v-466q0 -80 21 -120.5t80 -40.5q26 0 59 7v-112q-68 -16 -139 -16q-100 0 -145.5 52.5
t-51.5 164.5h-6q-69 -124 -160.5 -175.5t-222.5 -51.5zM455 115q99 0 176 45t121.5 123.5t44.5 161.5v89l-197 -4q-127 -2 -192.5 -26t-100.5 -74t-35 -131q0 -88 47.5 -136t135.5 -48zM560 1201q-132 0 -223 85t-109 224h117q28 -153 217 -153q186 0 215 153h117
q-21 -142 -110.5 -225.5t-223.5 -83.5z" />
    <glyph glyph-name="Aogonek" unicode="&#x104;" horiz-adv-x="1366" 
d="M1167 0l-161 412h-642l-162 -412h-198l575 1409h217l566 -1409h-195zM685 1265l-9 -28q-25 -83 -74 -213l-180 -463h527l-181 465q-28 69 -56 156zM1379 -389q-63 -27 -139 -27q-105 0 -158 51t-53 136q0 70 43.5 136t111.5 104h133q-25 -14 -51 -36.5t-47.5 -52
t-35 -64.5t-13.5 -74q0 -42 24.5 -66t69.5 -24q54 0 115 24v-107z" />
    <glyph glyph-name="aogonek" unicode="&#x105;" 
d="M414 -20q-163 0 -245 86t-82 236q0 168 110.5 258t356.5 96l243 4v59q0 132 -56 189t-176 57q-121 0 -176 -41t-66 -131l-188 17q46 292 434 292q204 0 307 -93.5t103 -270.5v-466q0 -80 21 -120.5t80 -40.5q26 0 59 7v-112q-68 -16 -139 -16q-100 0 -145.5 52.5
t-51.5 164.5h-6q-69 -124 -160.5 -175.5t-222.5 -51.5zM455 115q99 0 176 45t121.5 123.5t44.5 161.5v89l-197 -4q-127 -2 -192.5 -26t-100.5 -74t-35 -131q0 -88 47.5 -136t135.5 -48zM1139 -400q-63 -27 -139 -27q-105 0 -158 51t-53 136q0 70 43.5 136t111.5 104h133
q-25 -14 -51 -36.5t-47.5 -52t-35 -64.5t-13.5 -74q0 -42 24.5 -66t69.5 -24q54 0 115 24v-107z" />
    <glyph glyph-name="Dcaron" unicode="&#x10e;" horiz-adv-x="1479" 
d="M1381 719q0 -218 -85 -381.5t-241 -250.5t-360 -87h-527v1409h466q358 0 552.5 -179.5t194.5 -510.5zM1189 719q0 262 -143.5 399.5t-415.5 137.5h-271v-1103h314q155 0 272.5 68t180.5 196t63 302zM796 1530h-204l-234 239v21h104l232 -139h2l219 139h105v-21z" />
    <glyph glyph-name="dcaron" unicode="&#x10f;" horiz-adv-x="1259" 
d="M821 174q-50 -104 -132.5 -149t-204.5 -45q-205 0 -301.5 138t-96.5 418q0 566 398 566q123 0 205 -45t132 -143h2l-2 121v449h180v-1261q0 -169 6 -223h-172q-3 16 -6.5 74t-3.5 100h-4zM275 542q0 -227 60 -325t195 -98q153 0 222 106t69 329q0 215 -69 315t-220 100
q-136 0 -196.5 -100.5t-60.5 -326.5zM1279 1378q0 -87 -22 -145.5t-62 -105.5h-117q94 100 94 190h-88v167h195v-106z" />
    <glyph glyph-name="Dcroat" unicode="&#x110;" horiz-adv-x="1479" 
d="M14 801h154v608h466q358 0 552.5 -179.5t194.5 -510.5q0 -218 -85 -381.5t-241 -250.5t-360 -87h-527v647h-154v154zM1189 719q0 262 -143.5 399.5t-415.5 137.5h-271v-455h406v-154h-406v-494h314q155 0 272.5 68t180.5 196t63 302z" />
    <glyph glyph-name="Eogonek" unicode="&#x118;" horiz-adv-x="1366" 
d="M168 0v1409h1069v-156h-878v-452h818v-154h-818v-491h919v-156h-1110zM1278 -400q-63 -27 -139 -27q-105 0 -158 51t-53 136q0 70 43.5 136t111.5 104h133q-25 -14 -51 -36.5t-47.5 -52t-35 -64.5t-13.5 -74q0 -42 24.5 -66t69.5 -24q54 0 115 24v-107z" />
    <glyph glyph-name="eogonek" unicode="&#x119;" 
d="M276 503q0 -186 77 -287t225 -101q117 0 187.5 47t95.5 119l158 -45q-97 -256 -441 -256q-240 0 -365.5 143t-125.5 425q0 268 125.5 411t358.5 143q477 0 477 -575v-24h-772zM862 641q-15 171 -87 249.5t-207 78.5q-131 0 -207.5 -87.5t-82.5 -240.5h584zM811 -400
q-63 -27 -139 -27q-105 0 -158 51t-53 136q0 70 43.5 136t111.5 104h133q-25 -14 -51 -36.5t-47.5 -52t-35 -64.5t-13.5 -74q0 -42 24.5 -66t69.5 -24q54 0 115 24v-107z" />
    <glyph glyph-name="Ecaron" unicode="&#x11a;" horiz-adv-x="1366" 
d="M168 0v1409h1069v-156h-878v-452h818v-154h-818v-491h919v-156h-1110zM805 1530h-204l-234 239v21h104l232 -139h2l219 139h105v-21z" />
    <glyph glyph-name="ecaron" unicode="&#x11b;" 
d="M276 503q0 -186 77 -287t225 -101q117 0 187.5 47t95.5 119l158 -45q-97 -256 -441 -256q-240 0 -365.5 143t-125.5 425q0 268 125.5 411t358.5 143q477 0 477 -575v-24h-772zM862 641q-15 171 -87 249.5t-207 78.5q-131 0 -207.5 -87.5t-82.5 -240.5h584zM672 1201h-204
l-234 270v20h104l232 -169h2l219 169h105v-20z" />
    <glyph glyph-name="Lacute" unicode="&#x139;" 
d="M168 0v1409h191v-1253h712v-156h-903zM245 1530v20l217 226h207v-29l-310 -217h-114z" />
    <glyph glyph-name="lacute" unicode="&#x13a;" horiz-adv-x="455" 
d="M138 0v1484h180v-1484h-180zM91 1608v20l217 226h207v-29l-310 -217h-114z" />
    <glyph glyph-name="Lcaron" unicode="&#x13d;" 
d="M168 0v1409h191v-1253h712v-156h-903zM858 1303q0 -87 -22 -145.5t-62 -105.5h-117q94 100 94 190h-88v167h195v-106z" />
    <glyph glyph-name="lcaron" unicode="&#x13e;" horiz-adv-x="597" 
d="M138 0v1484h180v-1484h-180zM617 1378q0 -87 -22 -145.5t-62 -105.5h-117q94 100 94 190h-88v167h195v-106z" />
    <glyph glyph-name="Ldot" unicode="&#x13f;" 
d="M168 0v1409h191v-1253h712v-156h-903zM625 687v172h180v-172h-180z" />
    <glyph glyph-name="ldot" unicode="&#x140;" horiz-adv-x="684" 
d="M138 0v1484h180v-1484h-180zM478 687v172h180v-172h-180z" />
    <glyph glyph-name="Nacute" unicode="&#x143;" horiz-adv-x="1479" 
d="M1082 0l-754 1200l5 -97l5 -167v-936h-170v1409h222l762 -1208q-12 196 -12 284v924h172v-1409h-230zM601 1530v20l217 226h207v-29l-310 -217h-114z" />
    <glyph glyph-name="nacute" unicode="&#x144;" 
d="M829 0v686q0 107 -21 166t-67 85t-135 26q-130 0 -205 -89t-75 -247v-627h-180v851q0 189 -6 231h170q1 -5 2 -27t2.5 -50.5t3.5 -107.5h3q62 112 143.5 158.5t202.5 46.5q178 0 260.5 -88.5t82.5 -292.5v-721h-181zM460 1201v20l217 287h207v-29l-330 -278h-94z" />
    <glyph glyph-name="Ncaron" unicode="&#x147;" horiz-adv-x="1479" 
d="M1082 0l-754 1200l5 -97l5 -167v-936h-170v1409h222l762 -1208q-12 196 -12 284v924h172v-1409h-230zM841 1530h-204l-234 239v21h104l232 -139h2l219 139h105v-21z" />
    <glyph glyph-name="ncaron" unicode="&#x148;" 
d="M829 0v686q0 107 -21 166t-67 85t-135 26q-130 0 -205 -89t-75 -247v-627h-180v851q0 189 -6 231h170q1 -5 2 -27t2.5 -50.5t3.5 -107.5h3q62 112 143.5 158.5t202.5 46.5q178 0 260.5 -88.5t82.5 -292.5v-721h-181zM680 1201h-204l-234 270v20h104l232 -169h2l219 169
h105v-20z" />
    <glyph glyph-name="Ohungarumlaut" unicode="&#x150;" horiz-adv-x="1593" 
d="M1495 711q0 -221 -84.5 -387t-242.5 -255t-373 -89q-217 0 -374.5 88t-240.5 254.5t-83 388.5q0 338 185 528.5t515 190.5q215 0 373 -85.5t241.5 -248.5t83.5 -385zM1300 711q0 263 -131.5 413t-371.5 150q-242 0 -374 -148t-132 -415q0 -265 133.5 -420.5t370.5 -155.5
q244 0 374.5 150.5t130.5 425.5zM514 1530v20l197 227h207v-29l-310 -218h-94zM861 1530v20l197 227h207v-29l-310 -218h-94z" />
    <glyph glyph-name="ohungarumlaut" unicode="&#x151;" 
d="M1053 542q0 -284 -125 -423t-363 -139q-237 0 -358 144.5t-121 417.5q0 560 485 560q248 0 365 -136.5t117 -423.5zM864 542q0 224 -66.5 325.5t-223.5 101.5q-158 0 -228.5 -103.5t-70.5 -323.5q0 -214 69.5 -321.5t218.5 -107.5q162 0 231.5 104t69.5 325zM287 1201v20
l217 287h207v-29l-330 -278h-94zM634 1201v20l217 287h207v-29l-330 -278h-94z" />
    <glyph glyph-name="Racute" unicode="&#x154;" horiz-adv-x="1479" 
d="M1164 0l-366 585h-439v-585h-191v1409h663q238 0 367.5 -106.5t129.5 -296.5q0 -157 -91.5 -264t-252.5 -135l400 -607h-220zM1136 1004q0 123 -83.5 187.5t-240.5 64.5h-453v-520h461q151 0 233.5 70.5t82.5 197.5zM553 1530v20l217 226h207v-29l-310 -217h-114z" />
    <glyph glyph-name="racute" unicode="&#x155;" horiz-adv-x="682" 
d="M142 0v830q0 114 -6 252h170q8 -184 8 -221h4q43 139 99 190t158 51q36 0 73 -10v-165q-36 10 -96 10q-112 0 -171 -96.5t-59 -276.5v-564h-180zM254 1201v20l217 287h207v-29l-330 -278h-94z" />
    <glyph glyph-name="Rcaron" unicode="&#x158;" horiz-adv-x="1479" 
d="M1164 0l-366 585h-439v-585h-191v1409h663q238 0 367.5 -106.5t129.5 -296.5q0 -157 -91.5 -264t-252.5 -135l400 -607h-220zM1136 1004q0 123 -83.5 187.5t-240.5 64.5h-453v-520h461q151 0 233.5 70.5t82.5 197.5zM796 1530h-204l-234 239v21h104l232 -139h2l219 139
h105v-21z" />
    <glyph glyph-name="rcaron" unicode="&#x159;" horiz-adv-x="682" 
d="M142 0v830q0 114 -6 252h170q8 -184 8 -221h4q43 139 99 190t158 51q36 0 73 -10v-165q-36 10 -96 10q-112 0 -171 -96.5t-59 -276.5v-564h-180zM494 1201h-204l-234 270v20h104l232 -169h2l219 169h105v-20z" />
    <glyph glyph-name="Sacute" unicode="&#x15a;" horiz-adv-x="1366" 
d="M1272 389q0 -195 -152.5 -302t-429.5 -107q-515 0 -597 358l185 37q32 -127 136 -186.5t283 -59.5q185 0 285.5 63.5t100.5 186.5q0 69 -31.5 112t-88.5 71t-136 47l-175 41q-167 37 -253.5 74t-136.5 82.5t-76.5 106.5t-26.5 140q0 181 138.5 279t396.5 98
q240 0 367 -73.5t178 -250.5l-188 -33q-31 112 -118 162.5t-241 50.5q-169 0 -258 -56t-89 -167q0 -65 34.5 -107.5t99.5 -72t259 -72.5l129.5 -30.5t123.5 -37t110.5 -50.5t89.5 -71t59.5 -99t21.5 -134zM542 1530v20l217 226h207v-29l-310 -217h-114z" />
    <glyph glyph-name="sacute" unicode="&#x15b;" horiz-adv-x="1024" 
d="M950 299q0 -153 -115.5 -236t-323.5 -83q-202 0 -311.5 66.5t-142.5 207.5l159 31q23 -87 95 -127.5t200 -40.5q137 0 200.5 42t63.5 126q0 64 -44 104t-142 66l-129 34q-155 40 -220.5 78.5t-102.5 93.5t-37 135q0 148 105.5 225.5t307.5 77.5q179 0 284.5 -63
t133.5 -202l-162 -20q-15 72 -80.5 110.5t-175.5 38.5q-122 0 -180 -37t-58 -112q0 -46 24 -76t71 -51t198 -58q143 -36 206 -66.5t99.5 -67.5t56.5 -85.5t20 -110.5zM385 1201v20l217 287h207v-29l-330 -278h-94z" />
    <glyph glyph-name="Tcommaaccent" unicode="&#x162;" horiz-adv-x="1251" 
d="M720 1253v-1253h-190v1253h-484v156h1158v-156h-484zM833 -253q0 -181 -274 -181q-57 0 -90 4v98q49 -6 86 -6q147 0 147 81q0 77 -133 77q-43 0 -57 -2l65 182h107l-39 -100q94 -3 141 -43.5t47 -109.5z" />
    <glyph glyph-name="tcommaaccent" unicode="&#x163;" horiz-adv-x="569" 
d="M554 8q-89 -24 -182 -24q-216 0 -216 245v722h-125v131h132l53 242h120v-242h200v-131h-200v-683q0 -78 25.5 -109.5t88.5 -31.5q36 0 104 14v-133zM563 -253q0 -181 -274 -181q-57 0 -90 4v98q49 -6 86 -6q147 0 147 81q0 77 -133 77q-43 0 -57 -2l65 182h107l-39 -100
q94 -3 141 -43.5t47 -109.5z" />
    <glyph glyph-name="Tcaron" unicode="&#x164;" horiz-adv-x="1251" 
d="M720 1253v-1253h-190v1253h-484v156h1158v-156h-484zM727 1530h-204l-234 239v21h104l232 -139h2l219 139h105v-21z" />
    <glyph glyph-name="tcaron" unicode="&#x165;" horiz-adv-x="768" 
d="M554 8q-89 -24 -182 -24q-216 0 -216 245v722h-125v131h132l53 242h120v-242h200v-131h-200v-683q0 -78 25.5 -109.5t88.5 -31.5q36 0 104 14v-133zM785 1378q0 -87 -22 -145.5t-62 -105.5h-117q94 100 94 190h-88v167h195v-106z" />
    <glyph glyph-name="Uring" unicode="&#x16e;" horiz-adv-x="1479" 
d="M731 -20q-173 0 -302 63t-200 183t-71 286v897h191v-881q0 -193 98 -293t283 -100q190 0 295.5 103.5t105.5 302.5v868h190v-879q0 -171 -72.5 -295t-205 -189.5t-312.5 -65.5zM982 1613q0 -100 -71 -171t-171 -71t-171 71t-71 171q0 101 71 171t171 70q99 0 170.5 -70.5
t71.5 -170.5zM874 1613q0 56 -39 95t-95 39q-57 0 -96 -39t-39 -95q0 -55 38 -96t97 -41q58 0 96 40.5t38 96.5z" />
    <glyph glyph-name="uring" unicode="&#x16f;" 
d="M314 1082v-686q0 -107 21 -166t67 -85t135 -26q130 0 205 89t75 247v627h180v-851q0 -189 6 -231h-170q-1 5 -2 27t-2.5 50.5t-3.5 107.5h-3q-62 -112 -143.5 -158.5t-202.5 -46.5q-178 0 -260.5 88.5t-82.5 292.5v721h181zM811 1410q0 -100 -71 -171t-171 -71t-171 71
t-71 171q0 101 71 171t171 70q99 0 170.5 -70.5t71.5 -170.5zM703 1410q0 56 -39 95t-95 39q-57 0 -96 -39t-39 -95q0 -55 38 -96t97 -41q58 0 96 40.5t38 96.5z" />
    <glyph glyph-name="Uhungarumlaut" unicode="&#x170;" horiz-adv-x="1479" 
d="M731 -20q-173 0 -302 63t-200 183t-71 286v897h191v-881q0 -193 98 -293t283 -100q190 0 295.5 103.5t105.5 302.5v868h190v-879q0 -171 -72.5 -295t-205 -189.5t-312.5 -65.5zM445 1530v20l197 227h207v-29l-310 -218h-94zM792 1530v20l197 227h207v-29l-310 -218h-94z
" />
    <glyph glyph-name="uhungarumlaut" unicode="&#x171;" 
d="M314 1082v-686q0 -107 21 -166t67 -85t135 -26q130 0 205 89t75 247v627h180v-851q0 -189 6 -231h-170q-1 5 -2 27t-2.5 50.5t-3.5 107.5h-3q-62 -112 -143.5 -158.5t-202.5 -46.5q-178 0 -260.5 88.5t-82.5 292.5v721h181zM283 1201v20l217 287h207v-29l-330 -278h-94z
M630 1201v20l217 287h207v-29l-330 -278h-94z" />
    <glyph glyph-name="Zacute" unicode="&#x179;" horiz-adv-x="1251" 
d="M1187 0h-1122v143l858 1110h-785v156h1002v-139l-858 -1114h905v-156zM488 1530v20l217 226h207v-29l-310 -217h-114z" />
    <glyph glyph-name="zacute" unicode="&#x17a;" horiz-adv-x="1024" 
d="M83 0v137l605 806h-571v139h784v-137l-606 -806h627v-139h-839zM381 1201v20l217 287h207v-29l-330 -278h-94z" />
    <glyph glyph-name="Zdotaccent" unicode="&#x17b;" horiz-adv-x="1251" 
d="M1187 0h-1122v143l858 1110h-785v156h1002v-139l-858 -1114h905v-156zM536 1605v172h180v-172h-180z" />
    <glyph glyph-name="zdotaccent" unicode="&#x17c;" horiz-adv-x="1024" 
d="M83 0v137l605 806h-571v139h784v-137l-606 -806h627v-139h-839zM409 1312v172h180v-172h-180z" />
    <glyph glyph-name="Gamma" unicode="&#x393;" horiz-adv-x="1128" 
d="M1071 1410v-156h-712v-1253h-191v1409h903z" />
    <glyph glyph-name="Theta" unicode="&#x398;" horiz-adv-x="1593" 
d="M1495 711q0 -221 -84.5 -387t-242.5 -255t-373 -89q-217 0 -374.5 88t-240.5 254.5t-83 388.5q0 338 185 528.5t515 190.5q215 0 373 -85.5t241.5 -248.5t83.5 -385zM1300 711q0 263 -131.5 413t-371.5 150q-242 0 -374 -148t-132 -415q0 -265 133.5 -420.5t370.5 -155.5
q244 0 374.5 150.5t130.5 425.5zM502 794h587v-160h-587v160z" />
    <glyph glyph-name="Phi" unicode="&#x3a6;" horiz-adv-x="1634" 
d="M1518 736q0 -153 -63.5 -271.5t-182.5 -183.5t-279 -65h-83v-227h-185v227h-83q-161 0 -280 65.5t-182 184t-63 270.5q0 238 139.5 369.5t396.5 131.5h72v182h185v-182h71q258 0 397.5 -132t139.5 -369zM1326 732q0 367 -368 367h-48v-746h56q174 0 267 96t93 283z
M309 732q0 -187 93 -283t267 -96h56v746h-52q-182 0 -273 -90t-91 -277z" />
    <glyph glyph-name="alpha" unicode="&#x3b1;" horiz-adv-x="1184" 
d="M843 237q-63 -136 -150.5 -196.5t-208.5 -60.5q-205 0 -301.5 138t-96.5 418q0 284 108.5 425t317.5 141q126 0 215.5 -67t134.5 -188h2q23 119 73 235h188q-50 -106 -92 -259.5t-50 -251.5q5 -160 34.5 -314t76.5 -257h-183q-24 61 -41.5 132.5t-22.5 104.5h-4zM275 542
q0 -222 57 -322.5t189 -100.5q120 0 202.5 115.5t108.5 311.5q-29 211 -105 317t-195 106q-136 0 -196.5 -100.5t-60.5 -326.5z" />
    <glyph glyph-name="delta" unicode="&#x3b4;" horiz-adv-x="1140" 
d="M864 471q0 87 -26.5 163.5t-68 142t-125.5 152.5q-179 -64 -274 -183t-95 -275q0 -169 78.5 -263.5t217.5 -94.5q144 0 218.5 90t74.5 268zM607 1352l-154 8l316 -324q121 -124 173.5 -203.5t81.5 -167t29 -190.5q0 -227 -129 -361t-353 -134q-226 0 -355.5 131
t-129.5 362q0 194 117 333.5t348 219.5l-319 339v119h733v-132h-358z" />
    <glyph glyph-name="epsilon" unicode="&#x3b5;" horiz-adv-x="913" 
d="M456 114q87 0 170.5 44.5t142.5 116.5l105 -100q-80 -97 -189 -146t-241 -49q-181 0 -277.5 83t-96.5 232q0 110 74.5 184t189.5 85v2q-106 12 -168.5 80t-62.5 167q0 130 101.5 209.5t266.5 79.5q251 0 376 -185l-128 -88q-92 139 -247 139q-91 0 -139 -42.5t-48 -116.5
q0 -91 78 -133.5t280 -42.5v-135q-153 0 -229 -19.5t-116.5 -62.5t-40.5 -118q0 -87 53.5 -135.5t145.5 -48.5z" />
    <glyph glyph-name="sigma" unicode="&#x3c3;" horiz-adv-x="1264" 
d="M1072 491q0 -241 -130.5 -376t-359.5 -135q-240 0 -368 140.5t-128 403.5q0 265 150 411.5t428 146.5h569v-131h-165l-148 6v-4q81 -121 116.5 -232t35.5 -230zM883 488q0 255 -124 463h-89q-184 0 -289 -112t-105 -313q0 -413 298 -413q151 0 230 96.5t79 278.5z" />
    <glyph glyph-name="tau" unicode="&#x3c4;" horiz-adv-x="809" 
d="M281 951q-66 0 -146 -11t-106 -26v139q24 12 77.5 20.5t105.5 8.5h580v-131h-304v-685q0 -76 21 -110.5t73 -34.5l86 8v-129q-77 -20 -143 -20q-115 0 -166 56.5t-51 190.5v724h-27z" />
    <glyph glyph-name="phi" unicode="&#x3c6;" horiz-adv-x="1328" 
d="M1242 565q0 -272 -126.5 -420.5t-373.5 -162.5v-407h-170v407q-242 11 -364.5 154t-122.5 409q0 231 111.5 380t308.5 181l21 -136q-124 -27 -188 -136t-64 -293q0 -213 73.5 -313.5t224.5 -108.5v580q0 193 77 299t235 106q167 0 262.5 -146t95.5 -393zM1053 567
q0 193 -43.5 298.5t-123.5 105.5q-144 0 -144 -269v-583q162 7 236.5 116t74.5 332z" />
    <glyph glyph-name="underscoredbl" unicode="&#x2017;" horiz-adv-x="1131" 
d="M-31 -434v130h1193v-130h-1193zM-31 -217v130h1193v-130h-1193z" />
    <glyph glyph-name="exclamdbl" unicode="&#x203c;" horiz-adv-x="1024" 
d="M359 397h-148l-24 1012h196zM185 0v201h194v-201h-194zM815 397h-148l-24 1012h196zM641 0v201h194v-201h-194z" />
    <glyph glyph-name="nsuperior" unicode="&#x207f;" horiz-adv-x="747" 
d="M514 519v398q0 90 -27 125t-97 35q-72 0 -114.5 -50t-42.5 -144v-364h-128v511l-4 139h119l6 -111h2q35 65 84.5 94t123.5 29q110 0 158.5 -54t48.5 -175v-433h-129z" />
    <glyph glyph-name="peseta" unicode="&#x20a7;" horiz-adv-x="2240" 
d="M954 985q0 -200 -130.5 -318t-354.5 -118h-130v-549h-181v1409h299q237 0 367 -111t130 -313zM772 983q0 273 -328 273h-105v-556h113q320 0 320 283zM1407 8q-76 -24 -157 -24q-105 0 -151.5 61.5t-46.5 183.5v453h-104v131h111l53 242h110v-242h157v-131h-157v-414
q0 -78 20.5 -114.5t75.5 -36.5q28 0 89 14v-123zM2151 229q0 -120 -91.5 -184.5t-261.5 -64.5q-161 0 -248.5 55t-115.5 175l159 26q17 -61 66.5 -90t137.5 -29q184 0 184 105q0 31 -18 52t-53.5 36.5t-163.5 47.5q-109 27 -161 56.5t-80 73t-28 105.5q0 112 84 171.5
t245 59.5q141 0 223.5 -52.5t104.5 -168.5l-161 -17q-10 48 -53 74t-113 26q-155 0 -155 -85q0 -38 43.5 -65.5t173.5 -56.5q114 -26 168 -56t84 -76.5t30 -117.5z" />
    <glyph glyph-name="arrowleft" unicode="&#x2190;" horiz-adv-x="2048" 
d="M641 297q57 -67 119 -197h-72q-127 149 -270 222v36q143 73 270 222h72q-62 -130 -119 -197h989v-86h-989z" />
    <glyph glyph-name="arrowup" unicode="&#x2191;" horiz-adv-x="1024" 
d="M469 928q-67 -57 -197 -119v72q149 127 222 270h36q73 -143 222 -270v-72q-130 62 -197 119v-989h-86v989z" />
    <glyph glyph-name="arrowright" unicode="&#x2192;" horiz-adv-x="2048" 
d="M1407 383q-57 67 -119 197h72q127 -149 270 -222v-36q-143 -73 -270 -222h-72q62 130 119 197h-989v86h989z" />
    <glyph glyph-name="arrowdown" unicode="&#x2193;" horiz-adv-x="1024" 
d="M555 162q67 57 197 119v-72q-149 -127 -222 -270h-36q-73 143 -222 270v72q130 -62 197 -119v989h86v-989z" />
    <glyph glyph-name="arrowboth" unicode="&#x2194;" horiz-adv-x="2048" 
d="M641 297q57 -67 119 -197h-72q-127 149 -270 222v36q143 73 270 222h72q-62 -130 -119 -197h766q-57 67 -119 197h72q127 -149 270 -222v-36q-143 -73 -270 -222h-72q62 130 119 197h-766z" />
    <glyph glyph-name="arrowupdn" unicode="&#x2195;" horiz-adv-x="1024" 
d="M469 928q-67 -57 -197 -119v72q149 127 222 270h36q73 -143 222 -270v-72q-130 62 -197 119v-766q67 57 197 119v-72q-149 -127 -222 -270h-36q-73 143 -222 270v72q130 -62 197 -119v766z" />
    <glyph glyph-name="arrowupdnbse" unicode="&#x21a8;" horiz-adv-x="1024" 
d="M272 -104h480v-80h-480v80zM469 928q-67 -57 -197 -119v72q149 127 222 270h36q73 -143 222 -270v-72q-130 62 -197 119v-766q67 57 197 119v-72q-149 -127 -222 -270h-36q-73 143 -222 270v72q130 -62 197 -119v766z" />
    <glyph glyph-name="orthogonal" unicode="&#x221f;" horiz-adv-x="2005" 
d="M408 1223h94v-1129h1130v-94h-1224v1223z" />
    <glyph glyph-name="intersection" unicode="&#x2229;" horiz-adv-x="1472" 
d="M278 -2v512q0 150 58 269.5t162.5 186t234.5 66.5q131 0 236.5 -66t165 -187t59.5 -269v-512h-103v514q0 190 -98 304t-258 114q-162 0 -258 -113t-96 -307v-512h-103z" />
    <glyph glyph-name="equivalence" unicode="&#x2261;" horiz-adv-x="1195" 
d="M100 956v148h995v-148h-995zM100 244v148h995v-148h-995zM100 600v148h995v-148h-995z" />
    <glyph glyph-name="house" unicode="&#x2302;" horiz-adv-x="1237" 
d="M157 0v635l461 518l461 -518v-635h-922zM237 82h762v518l-381 426l-381 -426v-518z" />
    <glyph glyph-name="revlogicalnot" unicode="&#x2310;" horiz-adv-x="1196" 
d="M100 180v574h995v-146h-850v-428h-145z" />
    <glyph glyph-name="integraltp" unicode="&#x2320;" horiz-adv-x="1237" 
d="M693 -614h-147v1878q0 196 84 319t210 123q63 0 100.5 -31.5t37.5 -79.5q0 -40 -25.5 -66t-62.5 -26q-30 0 -43 10q-16 8 -54 50q-33 39 -49 39q-36 0 -45 -39q-6 -35 -6 -140v-2037z" />
    <glyph glyph-name="integralbt" unicode="&#x2321;" horiz-adv-x="1237" 
d="M546 1706h147v-1880q0 -195 -81.5 -317.5t-213.5 -122.5q-59 0 -98 30.5t-39 77.5q0 39 25 65.5t61 26.5q33 0 59 -16q10 -4 41 -45q31 -37 47 -37q29 0 40.5 25.5t11.5 152.5v2040z" />
    <glyph glyph-name="uni2500" unicode="&#x2500;" horiz-adv-x="1451" 
d="M-10 549v145h1471v-145h-1471z" />
    <glyph glyph-name="uni2502" unicode="&#x2502;" horiz-adv-x="1280" 
d="M472 1864h145v-2485h-145v2485z" />
    <glyph glyph-name="uni250C" unicode="&#x250c;" horiz-adv-x="1451" 
d="M653 694h808v-145h-663v-1170h-145v1315z" />
    <glyph glyph-name="uni2510" unicode="&#x2510;" horiz-adv-x="1451" 
d="M-10 549v145h808v-1315h-145v1170h-663z" />
    <glyph glyph-name="uni2514" unicode="&#x2514;" horiz-adv-x="1451" 
d="M653 1864h145v-1170h663v-145h-808v1315z" />
    <glyph glyph-name="uni2518" unicode="&#x2518;" horiz-adv-x="1451" 
d="M-10 549v145h663v1170h145v-1315h-808z" />
    <glyph glyph-name="uni251C" unicode="&#x251c;" horiz-adv-x="1451" 
d="M653 1864h145v-1170h663v-145h-663v-1170h-145v2485z" />
    <glyph glyph-name="uni2524" unicode="&#x2524;" horiz-adv-x="1451" 
d="M-10 549v145h663v1170h145v-2485h-145v1170h-663z" />
    <glyph glyph-name="uni252C" unicode="&#x252c;" horiz-adv-x="1451" 
d="M-10 549v145h1471v-145h-663v-1170h-145v1170h-663z" />
    <glyph glyph-name="uni2534" unicode="&#x2534;" horiz-adv-x="1451" 
d="M-10 549v145h663v1170h145v-1170h663v-145h-1471z" />
    <glyph glyph-name="uni253C" unicode="&#x253c;" horiz-adv-x="1451" 
d="M-10 549v145h663v1170h145v-1170h663v-145h-663v-1170h-145v1170h-663z" />
    <glyph glyph-name="uni2550" unicode="&#x2550;" horiz-adv-x="1451" 
d="M-10 729v145h1471v-145h-1471zM-10 369v145h1471v-145h-1471z" />
    <glyph glyph-name="uni2551" unicode="&#x2551;" horiz-adv-x="1451" 
d="M473 1864h145v-2485h-145v2485zM833 1864h145v-2485h-145v2485z" />
    <glyph glyph-name="uni2552" unicode="&#x2552;" horiz-adv-x="1451" 
d="M653 874h808v-145h-663v-215h663v-145h-663v-990h-145v1495z" />
    <glyph glyph-name="uni2553" unicode="&#x2553;" horiz-adv-x="1451" 
d="M1461 694v-145h-483v-1170h-145v1170h-215v-1170h-145v1315h988z" />
    <glyph glyph-name="uni2554" unicode="&#x2554;" horiz-adv-x="1451" 
d="M473 874h988v-145h-843v-1350h-145v1495zM833 514h628v-145h-483v-990h-145v1135z" />
    <glyph glyph-name="uni2555" unicode="&#x2555;" horiz-adv-x="1451" 
d="M-10 369v145h663v215h-663v145h808v-1495h-145v990h-663z" />
    <glyph glyph-name="uni2556" unicode="&#x2556;" horiz-adv-x="1451" 
d="M-10 549v145h988v-1315h-145v1170h-215v-1170h-145v1170h-483z" />
    <glyph glyph-name="uni2557" unicode="&#x2557;" horiz-adv-x="1451" 
d="M978 874v-1495h-145v1350h-843v145h988zM618 -621h-145v990h-483v145h628v-1135z" />
    <glyph glyph-name="uni2558" unicode="&#x2558;" horiz-adv-x="1451" 
d="M653 1864h145v-990h663v-145h-663v-215h663v-145h-808v1495z" />
    <glyph glyph-name="uni2559" unicode="&#x2559;" horiz-adv-x="1451" 
d="M833 1864h145v-1170h483v-145h-988v1315h145v-1170h215v1170z" />
    <glyph glyph-name="uni255A" unicode="&#x255a;" horiz-adv-x="1451" 
d="M473 1864h145v-1350h843v-145h-988v1495zM833 1864h145v-990h483v-145h-628v1135z" />
    <glyph glyph-name="uni255B" unicode="&#x255b;" horiz-adv-x="1451" 
d="M-10 369v145h663v215h-663v145h663v990h145v-1495h-808z" />
    <glyph glyph-name="uni255C" unicode="&#x255c;" horiz-adv-x="1451" 
d="M978 549h-988v145h483v1170h145v-1170h215v1170h145v-1315z" />
    <glyph glyph-name="uni255D" unicode="&#x255d;" horiz-adv-x="1451" 
d="M978 369h-988v145h843v1350h145v-1495zM473 1864h145v-1135h-628v145h483v990z" />
    <glyph glyph-name="uni255E" unicode="&#x255e;" horiz-adv-x="1451" 
d="M653 1864h145v-990h663v-145h-663v-215h663v-145h-663v-990h-145v2485z" />
    <glyph glyph-name="uni255F" unicode="&#x255f;" horiz-adv-x="1451" 
d="M833 1864h145v-1170h483v-145h-483v-1170h-145v2485zM473 1864h145v-2485h-145v2485z" />
    <glyph glyph-name="uni2560" unicode="&#x2560;" horiz-adv-x="1451" 
d="M618 -621h-145v2485h145v-2485zM833 514h628v-145h-483v-990h-145v1135zM833 1864h145v-990h483v-145h-628v1135z" />
    <glyph glyph-name="uni2561" unicode="&#x2561;" horiz-adv-x="1451" 
d="M-10 369v145h663v215h-663v145h663v990h145v-2485h-145v990h-663z" />
    <glyph glyph-name="uni2562" unicode="&#x2562;" horiz-adv-x="1451" 
d="M-10 549v145h483v1170h145v-2485h-145v1170h-483zM833 1864h145v-2485h-145v2485z" />
    <glyph glyph-name="uni2563" unicode="&#x2563;" horiz-adv-x="1451" 
d="M833 1864h145v-2485h-145v2485zM473 1864h145v-1135h-628v145h483v990zM618 -621h-145v990h-483v145h628v-1135z" />
    <glyph glyph-name="uni2564" unicode="&#x2564;" horiz-adv-x="1451" 
d="M-10 369v145h1471v-145h-663v-990h-145v990h-663zM-10 729v145h1471v-145h-1471z" />
    <glyph glyph-name="uni2565" unicode="&#x2565;" horiz-adv-x="1451" 
d="M-10 549v145h1471v-145h-483v-1170h-145v1170h-215v-1170h-145v1170h-483z" />
    <glyph glyph-name="uni2566" unicode="&#x2566;" horiz-adv-x="1451" 
d="M618 -621h-145v990h-483v145h628v-1135zM833 514h628v-145h-483v-990h-145v1135zM1461 874v-145h-1471v145h1471z" />
    <glyph glyph-name="uni2567" unicode="&#x2567;" horiz-adv-x="1451" 
d="M-10 729v145h663v990h145v-990h663v-145h-1471zM-10 369v145h1471v-145h-1471z" />
    <glyph glyph-name="uni2568" unicode="&#x2568;" horiz-adv-x="1451" 
d="M-10 549v145h483v1170h145v-1170h215v1170h145v-1170h483v-145h-1471z" />
    <glyph glyph-name="uni2569" unicode="&#x2569;" horiz-adv-x="1451" 
d="M833 1864h145v-990h483v-145h-628v1135zM473 1864h145v-1135h-628v145h483v990zM-10 369v145h1471v-145h-1471z" />
    <glyph glyph-name="uni256A" unicode="&#x256a;" horiz-adv-x="1451" 
d="M-10 369v145h663v215h-663v145h663v990h145v-990h663v-145h-663v-215h663v-145h-663v-990h-145v990h-663z" />
    <glyph glyph-name="uni256B" unicode="&#x256b;" horiz-adv-x="1451" 
d="M833 1864h145v-1170h483v-145h-483v-1170h-145v1170h-215v-1170h-145v1170h-483v145h483v1170h145v-1170h215v1170z" />
    <glyph glyph-name="uni256C" unicode="&#x256c;" horiz-adv-x="1451" 
d="M833 1864h145v-990h483v-145h-628v1135zM618 -621h-145v990h-483v145h628v-1135zM833 514h628v-145h-483v-990h-145v1135zM473 1864h145v-1135h-628v145h483v990z" />
    <glyph glyph-name="upblock" unicode="&#x2580;" horiz-adv-x="1451" 
d="M1451 621h-1451v1243h1451v-1243z" />
    <glyph glyph-name="dnblock" unicode="&#x2584;" horiz-adv-x="1451" 
d="M1451 -621h-1451v1242h1451v-1242z" />
    <glyph glyph-name="block" unicode="&#x2588;" horiz-adv-x="1451" 
d="M1451 -621h-1451v2485h1451v-2485z" />
    <glyph glyph-name="lfblock" unicode="&#x258c;" horiz-adv-x="1451" 
d="M726 -621h-726v2485h726v-2485z" />
    <glyph glyph-name="rtblock" unicode="&#x2590;" horiz-adv-x="1451" 
d="M1451 -621h-726v2485h726v-2485z" />
    <glyph glyph-name="ltshade" unicode="&#x2591;" horiz-adv-x="1451" 
d="M103 1314h104v-98h-104v98zM517 1314h104v-98h-104v98zM933 1314h103v-98h-103v98zM310 1119h104v-96h-104v96zM725 1119h104v-96h-104v96zM1140 1119h104v-96h-104v96zM933 927h103v-96h-103v96zM517 927h104v-96h-104v96zM103 927h104v-96h-104v96zM1140 732h104v-96
h-104v96zM725 732h104v-96h-104v96zM310 732h104v-96h-104v96zM103 540h104v-96h-104v96zM517 540h104v-96h-104v96zM933 540h103v-96h-103v96zM1140 345h104v-96h-104v96zM725 345h104v-96h-104v96zM310 345h104v-96h-104v96zM103 153h104v-97h-104v97zM517 153h104v-97
h-104v97zM933 153h103v-97h-103v97zM310 -42h104v-94h-104v94zM725 -42h104v-94h-104v94zM1140 -42h104v-94h-104v94zM933 -234h103v-97h-103v97zM517 -234h104v-97h-104v97zM103 -234h104v-97h-104v97zM310 -427h104v-96h-104v96zM725 -427h104v-96h-104v96zM1140 -427h104
v-96h-104v96zM310 1506h104v-98h-104v98zM725 1506h104v-98h-104v98zM1140 1506h104v-98h-104v98zM103 1699h104v-96h-104v96zM517 1699h104v-96h-104v96zM933 1699h103v-96h-103v96zM1347 1314h104v-98h-104v98zM1347 927h104v-96h-104v96zM1347 540h104v-96h-104v96z
M1347 153h104v-97h-104v97zM1347 -234h104v-97h-104v97zM1347 1699h104v-96h-104v96z" />
    <glyph glyph-name="shade" unicode="&#x2592;" horiz-adv-x="1451" 
d="M103 1314h104v-98h-104v98zM310 1314h104v-98h-104v98zM517 1314h104v-98h-104v98zM725 1314h104v-98h-104v98zM933 1314h104v-98h-104v98zM1140 1314h104v-98h-104v98zM0 1119h103v-96h-103v96zM207 1119h103v-96h-103v96zM414 1119h103v-96h-103v96zM621 1119h104v-96
h-104v96zM829 1119h104v-96h-104v96zM1037 1119h103v-96h-103v96zM103 927h104v-96h-104v96zM310 927h104v-96h-104v96zM517 927h104v-96h-104v96zM725 927h104v-96h-104v96zM933 927h104v-96h-104v96zM1140 927h104v-96h-104v96zM0 732h103v-96h-103v96zM207 732h103v-96
h-103v96zM414 732h103v-96h-103v96zM621 732h104v-96h-104v96zM829 732h104v-96h-104v96zM1037 732h103v-96h-103v96zM103 540h104v-96h-104v96zM310 540h104v-96h-104v96zM517 540h104v-96h-104v96zM725 540h104v-96h-104v96zM933 540h104v-96h-104v96zM1140 540h104v-96
h-104v96zM0 345h103v-96h-103v96zM414 345h103v-96h-103v96zM621 345h104v-96h-104v96zM829 345h104v-96h-104v96zM1037 345h103v-96h-103v96zM207 345h103v-96h-103v96zM1140 153h104v-97h-104v97zM933 153h104v-97h-104v97zM725 153h104v-97h-104v97zM517 153h104v-97
h-104v97zM310 153h104v-97h-104v97zM103 153h104v-97h-104v97zM0 -42h103v-94h-103v94zM207 -42h103v-94h-103v94zM414 -42h103v-94h-103v94zM621 -42h104v-94h-104v94zM829 -42h104v-94h-104v94zM1037 -42h103v-94h-103v94zM1140 -234h104v-97h-104v97zM933 -234h104v-97
h-104v97zM725 -234h104v-97h-104v97zM517 -234h104v-97h-104v97zM310 -234h104v-97h-104v97zM103 -234h104v-97h-104v97zM0 -427h103v-96h-103v96zM207 -427h103v-96h-103v96zM414 -427h103v-96h-103v96zM621 -427h104v-96h-104v96zM829 -427h104v-96h-104v96zM1037 -427
h103v-96h-103v96zM0 1506h103v-98h-103v98zM207 1506h103v-98h-103v98zM414 1506h103v-98h-103v98zM621 1506h104v-98h-104v98zM829 1506h104v-98h-104v98zM1037 1506h103v-98h-103v98zM103 1699h104v-96h-104v96zM310 1699h104v-96h-104v96zM517 1699h104v-96h-104v96z
M725 1699h104v-96h-104v96zM933 1699h104v-96h-104v96zM1140 1699h104v-96h-104v96zM1347 1314h104v-98h-104v98zM1244 1119h103v-96h-103v96zM1347 927h104v-96h-104v96zM1244 732h103v-96h-103v96zM1347 540h104v-96h-104v96zM1244 345h103v-96h-103v96zM1347 153h104v-97
h-104v97zM1244 -42h103v-94h-103v94zM1347 -234h104v-97h-104v97zM1244 -427h103v-96h-103v96zM1244 1506h103v-98h-103v98zM1347 1699h104v-96h-104v96z" />
    <glyph glyph-name="dkshade" unicode="&#x2593;" horiz-adv-x="1493" 
d="M1493 -621h-1493v290h106v97h-106v290h106v97h-106v291h106v96h-106v289h106v98h-106v289h106v98h-106v289h106v96h107v-96h106v96h107v-96h106v96h107v-96h107v96h107v-96h107v96h107v-96h106v96h107v-96h106v96h107v-193h-107v-98h107v-289h-107v-96h107v-291h-107v-96
h107v-291h-107v-96h107v-291h-107v-94h107v-291h-107v-96h107v-98zM106 1119v-96h107v96h-107zM319 1119v-96h107v96h-107zM532 1119v-96h107v96h-107zM746 1119v-96h107v96h-107zM960 927h-107v-98h107v98zM746 927h-107v-98h107v98zM532 927h-106v-98h106v98zM319 927
h-106v-98h106v98zM106 732v-96h107v96h-107zM319 732v-96h107v96h-107zM532 732v-96h107v96h-107zM746 732v-96h107v96h-107zM319 540h-106v-96h106v96zM426 540v-96h106v96h-106zM639 540v-96h107v96h-107zM853 540v-96h107v96h-107zM106 345v-96h107v96h-107zM532 345v-96
h107v96h-107zM426 249v96h-107v-96h107zM746 345v-96h107v96h-107zM960 56v97h-107v-97h107zM746 56v97h-107v-97h107zM532 56v97h-106v-97h106zM319 56v97h-106v-97h106zM106 -42v-94h107v94h-107zM319 -42v-94h107v94h-107zM532 -42v-94h107v94h-107zM746 -42v-94h107v94
h-107zM960 -331v97h-107v-97h107zM746 -331v97h-107v-97h107zM532 -331v97h-106v-97h106zM319 -331v97h-106v-97h106zM106 -427v-96h107v96h-107zM319 -427v-96h107v96h-107zM532 -427v-96h107v96h-107zM746 -427v-96h107v96h-107zM960 1314h-107v-98h107v98zM746 1314h-107
v-98h107v98zM532 1314h-106v-98h106v98zM319 1314h-106v-98h106v98zM853 1506h-107v-98h107v98zM639 1506h-107v-98h107v98zM426 1506h-107v-98h107v98zM213 1506h-107v-98h107v98zM960 1119v-96h107v96h-107zM1173 1119v-96h107v96h-107zM1386 927h-106v-98h106v98z
M1173 927h-106v-98h106v98zM960 732v-96h107v96h-107zM1173 732v-96h107v96h-107zM1173 540h-106v-96h106v96zM1280 540v-96h106v96h-106zM960 345v-96h107v96h-107zM1280 249v96h-107v-96h107zM1386 56v97h-106v-97h106zM1173 56v97h-106v-97h106zM960 -42v-94h107v94h-107
zM1173 -42v-94h107v94h-107zM1386 -331v97h-106v-97h106zM1173 -331v97h-106v-97h106zM960 -427v-96h107v96h-107zM1173 -427v-96h107v96h-107zM1386 1314h-106v-98h106v98zM1173 1314h-106v-98h106v98zM1280 1506h-107v-98h107v98zM1067 1506h-107v-98h107v98z" />
    <glyph glyph-name="filledbox" unicode="&#x25a0;" horiz-adv-x="1237" 
d="M123 1108h991v-991h-991v991z" />
    <glyph glyph-name="filledrect" unicode="&#x25ac;" horiz-adv-x="2048" 
d="M0 616h2048v-616h-2048v616z" />
    <glyph glyph-name="triagup" unicode="&#x25b2;" horiz-adv-x="2027" 
d="M414 0l600 1198l598 -1198h-1198z" />
    <glyph glyph-name="triagrt" unicode="&#x25ba;" horiz-adv-x="2027" 
d="M401 1196l1225 -610l-1225 -613v1223z" />
    <glyph glyph-name="triagdn" unicode="&#x25bc;" horiz-adv-x="2027" 
d="M1612 1171l-598 -1198l-600 1198h1198z" />
    <glyph glyph-name="triaglf" unicode="&#x25c4;" horiz-adv-x="2027" 
d="M1626 1196v-1223l-1225 613z" />
    <glyph glyph-name="circle" unicode="&#x25cb;" horiz-adv-x="1237" 
d="M167 612q0 122 60 227t164.5 165.5t225.5 60.5q122 0 227 -60.5t165.5 -166t60.5 -226.5t-60.5 -225.5t-165 -164.5t-227.5 -60q-122 0 -226 60t-164 164t-60 226zM253 612q0 -98 49 -182.5t132.5 -133t182.5 -48.5q98 0 182.5 48t134.5 133t50 183t-49 183.5
t-134.5 134.5t-183.5 49q-97 0 -181.5 -49t-133.5 -133.5t-49 -184.5z" />
    <glyph glyph-name="invbullet" unicode="&#x25d8;" horiz-adv-x="1237" 
d="M41 0v1155h1155v-1155h-1155zM176 577q0 -118 59 -220t160.5 -161t220.5 -59q118 0 220.5 59t161.5 161.5t59 219.5q0 118 -59 220.5t-161 161.5t-221 59q-118 0 -220.5 -59.5t-161 -161.5t-58.5 -220z" />
    <glyph glyph-name="invcircle" unicode="&#x25d9;" horiz-adv-x="1237" 
d="M41 0v1155h1155v-1155h-1155zM253 577q0 97 49 182t134 134t182 49t182 -49t134 -134t49 -182t-49 -182t-134 -134t-182 -49t-182 49t-134 134t-49 182zM176 577q0 -118 59 -220t160.5 -161t220.5 -59q118 0 220.5 59t161.5 161.5t59 219.5q0 118 -59 220.5t-161 161.5
t-221 59q-118 0 -220.5 -59.5t-161 -161.5t-58.5 -220z" />
    <glyph glyph-name="smileface" unicode="&#x263a;" horiz-adv-x="2091" 
d="M1657 584q0 -254 -180 -432t-432 -179q-253 0 -432 179t-180 432q0 250 177 431t435 181t435 -181.5t177 -430.5zM1567 584q0 217 -153 370t-369 154q-218 0 -369 -154q-153 -153 -153 -370q0 -216 153 -369t369 -154q217 0 369 154t153 369zM889 711q0 -32 -23 -55
t-55 -23t-54.5 23t-22.5 55t22.5 54.5t54.5 22.5t55 -22.5t23 -54.5zM1356 711q0 -32 -22 -55t-54 -23t-55.5 23t-23.5 55t23.5 54.5t55.5 22.5t54 -22.5t22 -54.5zM822 422q76 -137 223 -137q145 0 221 137l62 -35q-98 -186 -283 -186t-283 186z" />
    <glyph glyph-name="invsmileface" unicode="&#x263b;" horiz-adv-x="2155" 
d="M1689 584q0 -254 -180 -432t-432 -179q-253 0 -432 179t-180 432q0 250 177 431t435 181t435 -181.5t177 -430.5zM921 711q0 32 -23 54.5t-55 22.5t-54.5 -22.5t-22.5 -54.5t22.5 -55t54.5 -23t55 23t23 55zM1388 711q0 32 -22 54.5t-54 22.5t-55.5 -22.5t-23.5 -54.5
t23.5 -55t55.5 -23t54 23t22 55zM794 387q98 -186 283 -186t283 186l-62 35q-76 -137 -221 -137q-147 0 -223 137z" />
    <glyph glyph-name="sun" unicode="&#x263c;" horiz-adv-x="1877" 
d="M905 1083h66v-217q66 -6 115.5 -25.5t109.5 -64.5l186 182l45 -45l-184 -184q86 -113 92 -229h215v-62h-215q-17 -125 -92 -221l184 -188l-49 -43l-182 182q-36 -26 -73 -47t-68 -29t-84 -16v-217h-66v217q-121 17 -221 90l-188 -180l-43 45l182 184q-78 100 -94 225
h-215v62h215q12 128 92 223l-180 184l40 49l189 -182q110 77 223 90v217zM936 805q-139 0 -235.5 -99t-96.5 -235t97.5 -234t234.5 -98q139 0 235 97q99 97 99 235q0 136 -98 235t-236 99z" />
    <glyph glyph-name="female" unicode="&#x2640;" horiz-adv-x="1536" 
d="M732 578q-76 11 -129.5 49t-87.5 99t-34 136q0 126 87 208.5t201 82.5q118 0 201 -86q86 -83 86 -205q0 -109 -72 -190t-178 -94v-166h256v-70h-256v-262h-74v262h-258v70h258v166zM767 1069q-56 0 -102 -26.5t-74.5 -74t-28.5 -104.5q0 -86 61.5 -146.5t143.5 -60.5
q87 0 146 62q61 61 61 145q0 58 -28.5 105.5t-75 73.5t-103.5 26z" />
    <glyph glyph-name="male" unicode="&#x2642;" horiz-adv-x="1536" 
d="M1023 1024q-147 43 -190 86q-8 5 -8 18q0 8 6 17q6 4 14 4l33 -4q68 -17 127 -17q88 0 129 13q36 12 49 12q16 0 16 -14l-6 -27q-16 -60 -16 -158q0 -78 12 -129l4 -32q0 -9 -4 -15l-14 -6q-19 0 -37.5 32.5t-36.5 77.5t-31 95l-237 -238q84 -81 84 -190
q0 -125 -87.5 -212t-203.5 -87t-202.5 81.5t-86.5 203.5q0 120 84.5 205t206.5 85q71 0 154 -43zM628 750q-89 0 -151 -61t-62 -150q0 -95 63 -154t150 -59q89 0 150 62.5t61 150.5q0 87 -62 149t-149 62z" />
    <glyph glyph-name="spade" unicode="&#x2660;" horiz-adv-x="1088" 
d="M544 1231q25 -96 73 -180.5t199 -223.5q141 -126 176 -192t37 -137q0 -96 -65 -160t-152 -64q-157 0 -256 191q3 -159 42.5 -242t121 -130t213.5 -56l8 -37h-792l6 37q124 0 210 48.5t129.5 134.5t43.5 231v14q-90 -191 -260 -191q-89 0 -154 64t-65 156q0 89 44.5 157
t143.5 150q139 119 205 212t92 218z" />
    <glyph glyph-name="club" unicode="&#x2663;" horiz-adv-x="1344" 
d="M1094 0h-842l8 35q135 27 194.5 54t107 87t74 134.5t26.5 150.5l-2 47q-57 -120 -146 -179t-178 -59q-77 0 -141.5 38t-99.5 101t-35 140q0 115 73 194t166 80q62 0 162 -51q-38 65 -55 105q-11 37 -11 75q0 121 81 196t194 75q116 0 196 -80t80 -187q0 -86 -69 -184
q84 40 100 43q22 8 61 8q105 0 173 -78q73 -76 73 -192t-78 -198.5t-194 -82.5q-56 0 -115 24.5t-106.5 65.5t-108.5 146q5 -126 29.5 -202.5t79 -136.5t118 -86.5t177.5 -47.5z" />
    <glyph glyph-name="heart" unicode="&#x2665;" horiz-adv-x="1216" 
d="M610 -23q-22 86 -67.5 177t-221.5 327l-90 123q-75 100 -102 164.5t-27 130.5q0 107 69.5 175.5t170.5 68.5q87 0 158.5 -57t109.5 -177q34 119 105 177.5t159 58.5q97 0 168.5 -68t71.5 -166q0 -86 -44 -181t-155 -232q-140 -179 -204.5 -285.5t-100.5 -235.5z" />
    <glyph glyph-name="diamond" unicode="&#x2666;" horiz-adv-x="1045" 
d="M519 1223q72 -125 204.5 -305.5t254.5 -317.5q-68 -70 -221 -273.5t-236 -351.5q-37 71 -129.5 201.5l-166.5 226l-159 197.5q116 137 245.5 309.5t207.5 313.5z" />
    <glyph glyph-name="musicalnote" unicode="&#x266a;" horiz-adv-x="1024" 
d="M489 1153h76v-100l153 -193q109 -147 109 -317q0 -150 -94 -271h-47q57 128 57 248t-57 199t-121 90v-506q0 -123 -73.5 -198.5t-180.5 -75.5q-57 0 -86 27t-29 73q0 77 62.5 135t140.5 58q44 0 90 -19v850z" />
    <glyph glyph-name="musicalnotedbl" unicode="&#x266b;" horiz-adv-x="1536" 
d="M1263 324q0 -78 -27 -134.5t-88.5 -98.5t-134.5 -42q-57 0 -85.5 27t-28.5 74q0 81 61 136.5t139 55.5q48 0 90 -18v448l-550 -149v-394q0 -117 -68.5 -194.5t-183.5 -77.5q-57 0 -86 26.5t-29 71.5q0 76 62 136t141 57q45 0 90 -19v752l698 178v-835zM639 750l550 149
v117l-550 -152v-114z" />
    <glyph glyph-name="IJ" unicode="&#x132;" horiz-adv-x="1505" 
d="M170 0v1409h191v-1409h-191zM938 -20q-358 0 -425 370l187 31q18 -116 81 -181t158 -65q104 0 164 71.5t60 209.5v837h-271v156h461v-989q0 -205 -111 -322.5t-304 -117.5z" />
    <glyph glyph-name="ij" unicode="&#x133;" horiz-adv-x="909" 
d="M137 1312v172h180v-172h-180zM137 0v1082h180v-1082h-180zM591 1312v172h180v-172h-180zM771 -134q0 -153 -60 -222t-180 -69q-77 0 -127 9v139l62 -6q69 0 97 36t28 140v1189h180v-1216z" />
    <glyph glyph-name="napostrophe" unicode="&#x149;" horiz-adv-x="1237" 
d="M923 0v686q0 107 -21 166t-67 85t-135 26q-130 0 -205 -89t-75 -247v-627h-180v851q0 189 -6 231h170q1 -5 2 -27t2.5 -50.5t3.5 -107.5h3q62 112 143.5 158.5t202.5 46.5q178 0 260.5 -88.5t82.5 -292.5v-721h-181zM199 1264q0 -105 -19 -176.5t-59 -135.5h-123
q94 136 94 260h-88v197h195v-145z" />
    <glyph glyph-name="minute" unicode="&#x2032;" horiz-adv-x="384" 
d="M85 890l64 519h196l-158 -519h-102z" />
    <glyph glyph-name="second" unicode="&#x2033;" horiz-adv-x="725" 
d="M85 890l64 519h196l-158 -519h-102zM427 890l64 519h196l-158 -519h-102z" />
    <glyph glyph-name="uni2105" unicode="&#x2105;" horiz-adv-x="1813" 
d="M1744 434q0 -215 -81 -330.5t-239 -115.5q-156 0 -235.5 112.5t-79.5 333.5q0 228 76.5 339.5t242.5 111.5q164 0 240 -114.5t76 -336.5zM523 0h-155l922 1409h157zM1596 434q0 179 -38.5 259.5t-129.5 80.5t-131.5 -79t-40.5 -261q0 -171 39.5 -253.5t130.5 -82.5
q88 0 129 83.5t41 252.5zM215 975q0 -339 196 -339q69 0 116 41t58 128l141 -9q-14 -122 -97 -198t-214 -76q-169 0 -257.5 116t-88.5 334q0 215 88 331.5t257 116.5q126 0 207 -70.5t100 -188.5l-143 -11q-10 72 -51.5 114.5t-116.5 42.5q-108 0 -151.5 -82t-43.5 -250z
" />
    <glyph glyph-name="uni2113" unicode="&#x2113;" horiz-adv-x="662" 
d="M433 78q103 0 136 213h69q-20 -154 -80 -232.5t-169 -78.5q-111 0 -174.5 79.5t-63.5 234.5v175q-51 -27 -132 -58v73q79 31 132 59v587q0 146 65.5 222.5t188.5 76.5q101 0 156 -78t55 -222q0 -190 -80.5 -349t-218.5 -238v-244q0 -102 32 -161t84 -59zM525 1122
q0 106 -28 168.5t-79 62.5t-76 -52.5t-25 -171.5v-507q95 64 151.5 199.5t56.5 300.5z" />
    <glyph glyph-name="uni25A1" unicode="&#x25a1;" horiz-adv-x="1237" 
d="M6 1225h1225v-1225h-1225v1225zM82 1149v-1073h1073v1073h-1073z" />
    <glyph glyph-name="uni25AA" unicode="&#x25aa;" horiz-adv-x="726" 
d="M617 383h-508v508h508v-508z" />
    <glyph glyph-name="uni25AB" unicode="&#x25ab;" horiz-adv-x="726" 
d="M617 383h-508v508h508v-508zM541 459v354h-356v-354h356z" />
    <glyph glyph-name="uni25CF" unicode="&#x25cf;" horiz-adv-x="1237" 
d="M618 1018q110 0 218.5 -58t165.5 -167t57 -215q0 -183 -129 -312t-312 -129q-182 0 -311 129.5t-129 311.5q0 108 55.5 214.5t163 166t221.5 59.5z" />
    <glyph glyph-name="openbullet" unicode="&#x25e6;" horiz-adv-x="726" 
d="M611 637q0 -107 -75.5 -177.5t-172.5 -70.5q-68 0 -124 32.5t-90 89.5t-34 126q0 103 73.5 175.5t174.5 72.5q103 0 174 -74q74 -71 74 -174zM535 637q0 70 -51 121t-121 51t-121 -51t-51 -121q0 -71 49 -121.5t123 -50.5q77 0 124.5 52.5t47.5 119.5z" />
    <glyph glyph-name="Amacron" unicode="&#x100;" horiz-adv-x="1366" 
d="M1167 0l-161 412h-642l-162 -412h-198l575 1409h217l566 -1409h-195zM685 1265l-9 -28q-25 -83 -74 -213l-180 -463h527l-181 465q-28 69 -56 156zM960 1565h-549v127h549v-127z" />
    <glyph glyph-name="amacron" unicode="&#x101;" 
d="M414 -20q-163 0 -245 86t-82 236q0 168 110.5 258t356.5 96l243 4v59q0 132 -56 189t-176 57q-121 0 -176 -41t-66 -131l-188 17q46 292 434 292q204 0 307 -93.5t103 -270.5v-466q0 -80 21 -120.5t80 -40.5q26 0 59 7v-112q-68 -16 -139 -16q-100 0 -145.5 52.5
t-51.5 164.5h-6q-69 -124 -160.5 -175.5t-222.5 -51.5zM455 115q99 0 176 45t121.5 123.5t44.5 161.5v89l-197 -4q-127 -2 -192.5 -26t-100.5 -74t-35 -131q0 -88 47.5 -136t135.5 -48zM833 1236h-549v127h549v-127z" />
    <glyph glyph-name="Ccircumflex" unicode="&#x108;" horiz-adv-x="1479" 
d="M792 1274q-234 0 -364 -150.5t-130 -412.5q0 -259 135.5 -416.5t366.5 -157.5q296 0 445 293l156 -78q-87 -182 -244.5 -277t-365.5 -95q-213 0 -368.5 88.5t-237 253t-81.5 389.5q0 337 182 528t504 191q225 0 376 -88t222 -261l-181 -60q-49 123 -157.5 188t-257.5 65z
M1122 1550v-20h-105l-219 139h-2l-232 -139h-104v20l234 240h204z" />
    <glyph glyph-name="ccircumflex" unicode="&#x109;" horiz-adv-x="1024" 
d="M275 546q0 -216 68 -320t205 -104q96 0 160.5 52t79.5 160l182 -12q-21 -156 -133 -249t-284 -93q-227 0 -346.5 143.5t-119.5 418.5q0 273 120 416.5t344 143.5q166 0 275.5 -86t137.5 -237l-185 -14q-14 90 -71 143t-162 53q-143 0 -207 -95t-64 -320zM870 1221v-20
h-105l-219 169h-2l-232 -169h-104v20l234 270h204z" />
    <glyph glyph-name="Cdotaccent" unicode="&#x10a;" horiz-adv-x="1479" 
d="M792 1274q-234 0 -364 -150.5t-130 -412.5q0 -259 135.5 -416.5t366.5 -157.5q296 0 445 293l156 -78q-87 -182 -244.5 -277t-365.5 -95q-213 0 -368.5 88.5t-237 253t-81.5 389.5q0 337 182 528t504 191q225 0 376 -88t222 -261l-181 -60q-49 123 -157.5 188t-257.5 65z
M702 1605v172h180v-172h-180z" />
    <glyph glyph-name="cdotaccent" unicode="&#x10b;" horiz-adv-x="1024" 
d="M275 546q0 -216 68 -320t205 -104q96 0 160.5 52t79.5 160l182 -12q-21 -156 -133 -249t-284 -93q-227 0 -346.5 143.5t-119.5 418.5q0 273 120 416.5t344 143.5q166 0 275.5 -86t137.5 -237l-185 -14q-14 90 -71 143t-162 53q-143 0 -207 -95t-64 -320zM456 1312v172
h180v-172h-180z" />
    <glyph glyph-name="Emacron" unicode="&#x112;" horiz-adv-x="1366" 
d="M168 0v1409h1069v-156h-878v-452h818v-154h-818v-491h919v-156h-1110zM978 1565h-549v127h549v-127z" />
    <glyph glyph-name="emacron" unicode="&#x113;" 
d="M276 503q0 -186 77 -287t225 -101q117 0 187.5 47t95.5 119l158 -45q-97 -256 -441 -256q-240 0 -365.5 143t-125.5 425q0 268 125.5 411t358.5 143q477 0 477 -575v-24h-772zM862 641q-15 171 -87 249.5t-207 78.5q-131 0 -207.5 -87.5t-82.5 -240.5h584zM845 1236h-549
v127h549v-127z" />
    <glyph glyph-name="Ebreve" unicode="&#x114;" horiz-adv-x="1366" 
d="M168 0v1409h1069v-156h-878v-452h818v-154h-818v-491h919v-156h-1110zM701 1530q-133 0 -223.5 69t-108.5 180h117q17 -53 71.5 -83t145.5 -30t144.5 30.5t70.5 82.5h117q-21 -114 -111 -181.5t-223 -67.5z" />
    <glyph glyph-name="ebreve" unicode="&#x115;" 
d="M276 503q0 -186 77 -287t225 -101q117 0 187.5 47t95.5 119l158 -45q-97 -256 -441 -256q-240 0 -365.5 143t-125.5 425q0 268 125.5 411t358.5 143q477 0 477 -575v-24h-772zM862 641q-15 171 -87 249.5t-207 78.5q-131 0 -207.5 -87.5t-82.5 -240.5h584zM569 1201
q-132 0 -223 85t-109 224h117q28 -153 217 -153q186 0 215 153h117q-21 -142 -110.5 -225.5t-223.5 -83.5z" />
    <glyph glyph-name="Edotaccent" unicode="&#x116;" horiz-adv-x="1366" 
d="M168 0v1409h1069v-156h-878v-452h818v-154h-818v-491h919v-156h-1110zM613 1605v172h180v-172h-180z" />
    <glyph glyph-name="edotaccent" unicode="&#x117;" 
d="M276 503q0 -186 77 -287t225 -101q117 0 187.5 47t95.5 119l158 -45q-97 -256 -441 -256q-240 0 -365.5 143t-125.5 425q0 268 125.5 411t358.5 143q477 0 477 -575v-24h-772zM862 641q-15 171 -87 249.5t-207 78.5q-131 0 -207.5 -87.5t-82.5 -240.5h584zM480 1312v172
h180v-172h-180z" />
    <glyph glyph-name="Gcircumflex" unicode="&#x11c;" horiz-adv-x="1593" 
d="M103 711q0 343 184 531t517 188q234 0 380 -79t225 -253l-182 -54q-60 120 -165.5 175t-262.5 55q-244 0 -373 -147.5t-129 -415.5q0 -267 137 -421.5t379 -154.5q138 0 257.5 42t193.5 114v254h-421v160h597v-486q-112 -114 -274.5 -176.5t-352.5 -62.5q-221 0 -381 88
t-244.5 253.5t-84.5 389.5zM1137 1550v-20h-105l-219 139h-2l-232 -139h-104v20l234 240h204z" />
    <glyph glyph-name="gcircumflex" unicode="&#x11d;" 
d="M548 -425q-177 0 -282 69.5t-135 197.5l181 26q18 -75 79.5 -115.5t161.5 -40.5q269 0 269 315v174h-2q-51 -104 -140 -156.5t-208 -52.5q-199 0 -292.5 132t-93.5 415q0 287 100.5 423.5t305.5 136.5q115 0 199.5 -52.5t130.5 -149.5h2q0 30 4 104t8 81h171
q-6 -54 -6 -224v-827q0 -456 -453 -456zM822 541q0 132 -36 227.5t-101.5 146t-148.5 50.5q-138 0 -201 -100t-63 -324q0 -222 59 -319t202 -97q85 0 151 50t102 143.5t36 222.5zM878 1221v-20h-105l-219 169h-2l-232 -169h-104v20l234 270h204z" />
    <glyph glyph-name="Gdotaccent" unicode="&#x120;" horiz-adv-x="1593" 
d="M103 711q0 343 184 531t517 188q234 0 380 -79t225 -253l-182 -54q-60 120 -165.5 175t-262.5 55q-244 0 -373 -147.5t-129 -415.5q0 -267 137 -421.5t379 -154.5q138 0 257.5 42t193.5 114v254h-421v160h597v-486q-112 -114 -274.5 -176.5t-352.5 -62.5q-221 0 -381 88
t-244.5 253.5t-84.5 389.5zM721 1605v172h180v-172h-180z" />
    <glyph glyph-name="gdotaccent" unicode="&#x121;" 
d="M548 -425q-177 0 -282 69.5t-135 197.5l181 26q18 -75 79.5 -115.5t161.5 -40.5q269 0 269 315v174h-2q-51 -104 -140 -156.5t-208 -52.5q-199 0 -292.5 132t-93.5 415q0 287 100.5 423.5t305.5 136.5q115 0 199.5 -52.5t130.5 -149.5h2q0 30 4 104t8 81h171
q-6 -54 -6 -224v-827q0 -456 -453 -456zM822 541q0 132 -36 227.5t-101.5 146t-148.5 50.5q-138 0 -201 -100t-63 -324q0 -222 59 -319t202 -97q85 0 151 50t102 143.5t36 222.5zM457 1312v172h180v-172h-180z" />
    <glyph glyph-name="Gcommaaccent" unicode="&#x122;" horiz-adv-x="1593" 
d="M103 711q0 343 184 531t517 188q234 0 380 -79t225 -253l-182 -54q-60 120 -165.5 175t-262.5 55q-244 0 -373 -147.5t-129 -415.5q0 -267 137 -421.5t379 -154.5q138 0 257.5 42t193.5 114v254h-421v160h597v-486q-112 -114 -274.5 -176.5t-352.5 -62.5q-221 0 -381 88
t-244.5 253.5t-84.5 389.5zM918 -193q0 -87 -22 -140.5t-62 -100.5h-117q45 48 69.5 91t24.5 89h-88v156h195v-95z" />
    <glyph glyph-name="gcommaaccent" unicode="&#x123;" 
d="M548 -425q-177 0 -282 69.5t-135 197.5l181 26q18 -75 79.5 -115.5t161.5 -40.5q269 0 269 315v174h-2q-51 -104 -140 -156.5t-208 -52.5q-199 0 -292.5 132t-93.5 415q0 287 100.5 423.5t305.5 136.5q115 0 199.5 -52.5t130.5 -149.5h2q0 30 4 104t8 81h171
q-6 -54 -6 -224v-827q0 -456 -453 -456zM822 541q0 132 -36 227.5t-101.5 146t-148.5 50.5q-138 0 -201 -100t-63 -324q0 -222 59 -319t202 -97q85 0 151 50t102 143.5t36 222.5zM442 1317q0 87 22 145.5t62 105.5h117q-94 -100 -94 -190h88v-167h-195v106z" />
    <glyph glyph-name="Hcircumflex" unicode="&#x124;" horiz-adv-x="1479" 
d="M1121 0v653h-762v-653h-191v1409h191v-596h762v596h191v-1409h-191zM1071 1550v-20h-105l-219 139h-2l-232 -139h-104v20l234 240h204z" />
    <glyph glyph-name="hcircumflex" unicode="&#x125;" 
d="M317 897q58 106 139.5 155.5t206.5 49.5q176 0 259.5 -87.5t83.5 -293.5v-721h-181v686q0 114 -21 169.5t-69 81.5t-133 26q-127 0 -203.5 -88t-76.5 -237v-638h-180v1484h180v-386q0 -61 -3.5 -126t-4.5 -75h3zM904 1614v-20h-105l-219 139h-2l-232 -139h-104v20
l234 240h204z" />
    <glyph glyph-name="Hbar" unicode="&#x126;" horiz-adv-x="1479" 
d="M1126 0v653h-767v-653h-191v1025h-154v154h154v230h191v-230h767v230h186v-230h153v-154h-153v-1025h-186zM1126 813v212h-767v-212h767z" />
    <glyph glyph-name="hbar" unicode="&#x127;" 
d="M317 857q58 106 139.5 155.5t206.5 49.5q176 0 259.5 -87.5t83.5 -293.5v-681h-181v646q0 114 -21 169.5t-69 81.5t-133 26q-127 0 -203.5 -88t-76.5 -237v-598h-180v1206h-132v131h132v147h180v-147h300v-131h-300v-148q0 -61 -3.5 -126t-4.5 -75h3z" />
    <glyph glyph-name="Itilde" unicode="&#x128;" horiz-adv-x="569" 
d="M189 0v1409h191v-1409h-191zM443 1530q-42 0 -84 18.5t-81 41t-74.5 41t-66.5 18.5q-55 0 -82 -31t-36 -88h-91q11 102 35 154.5t64.5 83t103.5 30.5q44 0 86 -18.5t81 -41l73.5 -41t64.5 -18.5q100 0 117 119h92q-17 -148 -67 -208t-135 -60z" />
    <glyph glyph-name="itilde" unicode="&#x129;" horiz-adv-x="569" 
d="M194 0v1082h180v-1082h-180zM443 1201q-42 0 -84 18.5t-81 41t-74.5 41t-66.5 18.5q-55 0 -82 -31t-36 -88h-91q11 102 35 154.5t64.5 83t103.5 30.5q44 0 86 -18.5t81 -41l73.5 -41t64.5 -18.5q100 0 117 119h92q-17 -148 -67 -208t-135 -60z" />
    <glyph glyph-name="Imacron" unicode="&#x12a;" horiz-adv-x="569" 
d="M189 0v1409h191v-1409h-191zM561 1565h-549v127h549v-127z" />
    <glyph glyph-name="imacron" unicode="&#x12b;" horiz-adv-x="569" 
d="M194 0v1082h180v-1082h-180zM561 1236h-549v127h549v-127z" />
    <glyph glyph-name="Ibreve" unicode="&#x12c;" horiz-adv-x="569" 
d="M189 0v1409h191v-1409h-191zM286 1530q-133 0 -223.5 69t-108.5 180h117q17 -53 71.5 -83t145.5 -30t144.5 30.5t70.5 82.5h117q-21 -114 -111 -181.5t-223 -67.5z" />
    <glyph glyph-name="ibreve" unicode="&#x12d;" horiz-adv-x="569" 
d="M194 0v1082h180v-1082h-180zM286 1201q-132 0 -223 85t-109 224h117q28 -153 217 -153q186 0 215 153h117q-21 -142 -110.5 -225.5t-223.5 -83.5z" />
    <glyph glyph-name="Iogonek" unicode="&#x12e;" horiz-adv-x="569" 
d="M189 0v1409h191v-1409h-191zM442 -400q-63 -27 -139 -27q-105 0 -158 51t-53 136q0 70 43.5 136t111.5 104h133q-25 -14 -51 -36.5t-47.5 -52t-35 -64.5t-13.5 -74q0 -42 24.5 -66t69.5 -24q54 0 115 24v-107z" />
    <glyph glyph-name="iogonek" unicode="&#x12f;" horiz-adv-x="455" 
d="M137 1312v172h180v-172h-180zM137 0v1082h180v-1082h-180zM381 -400q-63 -27 -139 -27q-105 0 -158 51t-53 136q0 70 43.5 136t111.5 104h133q-25 -14 -51 -36.5t-47.5 -52t-35 -64.5t-13.5 -74q0 -42 24.5 -66t69.5 -24q54 0 115 24v-107z" />
    <glyph glyph-name="Jcircumflex" unicode="&#x134;" horiz-adv-x="1024" 
d="M457 -20q-358 0 -425 370l187 31q18 -116 81 -181t158 -65q104 0 164 71.5t60 209.5v837h-271v156h461v-989q0 -205 -111 -322.5t-304 -117.5zM973 1550v-20h-105l-219 139h-2l-232 -139h-104v20l234 240h204z" />
    <glyph glyph-name="jcircumflex" unicode="&#x135;" horiz-adv-x="455" 
d="M77 -425q-77 0 -127 9v139l62 -6q69 0 97 36t28 140v1189h180v-1216q0 -153 -60 -222t-180 -69zM559 1221v-20h-105l-219 169h-2l-232 -169h-104v20l234 270h204z" />
    <glyph glyph-name="Kcommaaccent" unicode="&#x136;" horiz-adv-x="1366" 
d="M1106 0l-563 680l-184 -140v-540h-191v1409h191v-706l679 706h225l-600 -612l680 -797h-237zM805 -193q0 -87 -22 -140.5t-62 -100.5h-117q45 48 69.5 91t24.5 89h-88v156h195v-95z" />
    <glyph glyph-name="kcommaaccent" unicode="&#x137;" horiz-adv-x="1024" 
d="M816 0l-366 494l-132 -109v-385h-180v1484h180v-927l475 525h211l-439 -465l462 -617h-211zM662 -193q0 -87 -22 -140.5t-62 -100.5h-117q45 48 69.5 91t24.5 89h-88v156h195v-95z" />
    <glyph glyph-name="kgreenlandic" unicode="&#x138;" horiz-adv-x="1024" 
d="M816 0l-366 494l-132 -108v-386h-180v1082h180v-525l475 525h211l-439 -465l462 -617h-211z" />
    <glyph glyph-name="Lcommaaccent" unicode="&#x13b;" 
d="M168 0v1409h191v-1253h712v-156h-903zM717 -193q0 -87 -22 -140.5t-62 -100.5h-117q45 48 69.5 91t24.5 89h-88v156h195v-95z" />
    <glyph glyph-name="lcommaaccent" unicode="&#x13c;" horiz-adv-x="455" 
d="M138 0v1484h180v-1484h-180zM327 -193q0 -87 -22 -140.5t-62 -100.5h-117q45 48 69.5 91t24.5 89h-88v156h195v-95z" />
    <glyph glyph-name="Ncommaaccent" unicode="&#x145;" horiz-adv-x="1479" 
d="M1082 0l-754 1200l5 -97l5 -167v-936h-170v1409h222l762 -1208q-12 196 -12 284v924h172v-1409h-230zM836 -193q0 -87 -22 -140.5t-62 -100.5h-117q45 48 69.5 91t24.5 89h-88v156h195v-95z" />
    <glyph glyph-name="ncommaaccent" unicode="&#x146;" 
d="M829 0v686q0 107 -21 166t-67 85t-135 26q-130 0 -205 -89t-75 -247v-627h-180v851q0 189 -6 231h170q1 -5 2 -27t2.5 -50.5t3.5 -107.5h3q62 112 143.5 158.5t202.5 46.5q178 0 260.5 -88.5t82.5 -292.5v-721h-181zM675 -193q0 -87 -22 -140.5t-62 -100.5h-117
q45 48 69.5 91t24.5 89h-88v156h195v-95z" />
    <glyph glyph-name="Eng" unicode="&#x14a;" horiz-adv-x="1481" 
d="M941 -20q-95 0 -177 37t-141 111l127 115q90 -110 196 -110q73 0 115.5 39.5t61.5 120.5t19 253v322q0 213 -78.5 309.5t-255.5 96.5q-119 0 -223 -52t-164.5 -141t-60.5 -190v-891h-191v1092l-4 317h184q7 -154 7 -251h4q72 129 207.5 200t298.5 71q246 0 356 -129
t110 -411v-347q0 -222 -38.5 -335.5t-123.5 -170t-229 -56.5z" />
    <glyph glyph-name="eng" unicode="&#x14b;" 
d="M769 -425q-77 0 -127 9v139l62 -6q69 0 97 36t28 140v793q0 107 -21 166t-67 85t-135 26q-130 0 -205 -89t-75 -247v-627h-180v851q0 189 -6 231h170q1 -5 2 -27t2.5 -50.5t3.5 -107.5h3q62 112 143.5 158.5t202.5 46.5q178 0 260.5 -88.5t82.5 -292.5v-855
q0 -151 -60 -221t-181 -70z" />
    <glyph glyph-name="Omacron" unicode="&#x14c;" horiz-adv-x="1593" 
d="M1495 711q0 -221 -84.5 -387t-242.5 -255t-373 -89q-217 0 -374.5 88t-240.5 254.5t-83 388.5q0 338 185 528.5t515 190.5q215 0 373 -85.5t241.5 -248.5t83.5 -385zM1300 711q0 263 -131.5 413t-371.5 150q-242 0 -374 -148t-132 -415q0 -265 133.5 -420.5t370.5 -155.5
q244 0 374.5 150.5t130.5 425.5zM1070 1565h-549v127h549v-127z" />
    <glyph glyph-name="omacron" unicode="&#x14d;" 
d="M1053 542q0 -284 -125 -423t-363 -139q-237 0 -358 144.5t-121 417.5q0 560 485 560q248 0 365 -136.5t117 -423.5zM864 542q0 224 -66.5 325.5t-223.5 101.5q-158 0 -228.5 -103.5t-70.5 -323.5q0 -214 69.5 -321.5t218.5 -107.5q162 0 231.5 104t69.5 325zM844 1236
h-549v127h549v-127z" />
    <glyph glyph-name="Obreve" unicode="&#x14e;" horiz-adv-x="1593" 
d="M1495 711q0 -221 -84.5 -387t-242.5 -255t-373 -89q-217 0 -374.5 88t-240.5 254.5t-83 388.5q0 338 185 528.5t515 190.5q215 0 373 -85.5t241.5 -248.5t83.5 -385zM1300 711q0 263 -131.5 413t-371.5 150q-242 0 -374 -148t-132 -415q0 -265 133.5 -420.5t370.5 -155.5
q244 0 374.5 150.5t130.5 425.5zM795 1530q-133 0 -223.5 69t-108.5 180h117q17 -53 71.5 -83t145.5 -30t144.5 30.5t70.5 82.5h117q-21 -114 -111 -181.5t-223 -67.5z" />
    <glyph glyph-name="obreve" unicode="&#x14f;" 
d="M1053 542q0 -284 -125 -423t-363 -139q-237 0 -358 144.5t-121 417.5q0 560 485 560q248 0 365 -136.5t117 -423.5zM864 542q0 224 -66.5 325.5t-223.5 101.5q-158 0 -228.5 -103.5t-70.5 -323.5q0 -214 69.5 -321.5t218.5 -107.5q162 0 231.5 104t69.5 325zM569 1201
q-132 0 -223 85t-109 224h117q28 -153 217 -153q186 0 215 153h117q-21 -142 -110.5 -225.5t-223.5 -83.5z" />
    <glyph glyph-name="Rcommaaccent" unicode="&#x156;" horiz-adv-x="1479" 
d="M1164 0l-366 585h-439v-585h-191v1409h663q238 0 367.5 -106.5t129.5 -296.5q0 -157 -91.5 -264t-252.5 -135l400 -607h-220zM1136 1004q0 123 -83.5 187.5t-240.5 64.5h-453v-520h461q151 0 233.5 70.5t82.5 197.5zM845 -193q0 -87 -22 -140.5t-62 -100.5h-117
q45 48 69.5 91t24.5 89h-88v156h195v-95z" />
    <glyph glyph-name="rcommaaccent" unicode="&#x157;" horiz-adv-x="682" 
d="M142 0v830q0 114 -6 252h170q8 -184 8 -221h4q43 139 99 190t158 51q36 0 73 -10v-165q-36 10 -96 10q-112 0 -171 -96.5t-59 -276.5v-564h-180zM330 -193q0 -87 -22 -140.5t-62 -100.5h-117q45 48 69.5 91t24.5 89h-88v156h195v-95z" />
    <glyph glyph-name="Scircumflex" unicode="&#x15c;" horiz-adv-x="1366" 
d="M1272 389q0 -195 -152.5 -302t-429.5 -107q-515 0 -597 358l185 37q32 -127 136 -186.5t283 -59.5q185 0 285.5 63.5t100.5 186.5q0 69 -31.5 112t-88.5 71t-136 47l-175 41q-167 37 -253.5 74t-136.5 82.5t-76.5 106.5t-26.5 140q0 181 138.5 279t396.5 98
q240 0 367 -73.5t178 -250.5l-188 -33q-31 112 -118 162.5t-241 50.5q-169 0 -258 -56t-89 -167q0 -65 34.5 -107.5t99.5 -72t259 -72.5l129.5 -30.5t123.5 -37t110.5 -50.5t89.5 -71t59.5 -99t21.5 -134zM1032 1550v-20h-105l-219 139h-2l-232 -139h-104v20l234 240h204z
" />
    <glyph glyph-name="scircumflex" unicode="&#x15d;" horiz-adv-x="1024" 
d="M950 299q0 -153 -115.5 -236t-323.5 -83q-202 0 -311.5 66.5t-142.5 207.5l159 31q23 -87 95 -127.5t200 -40.5q137 0 200.5 42t63.5 126q0 64 -44 104t-142 66l-129 34q-155 40 -220.5 78.5t-102.5 93.5t-37 135q0 148 105.5 225.5t307.5 77.5q179 0 284.5 -63
t133.5 -202l-162 -20q-15 72 -80.5 110.5t-175.5 38.5q-122 0 -180 -37t-58 -112q0 -46 24 -76t71 -51t198 -58q143 -36 206 -66.5t99.5 -67.5t56.5 -85.5t20 -110.5zM834 1221v-20h-105l-219 169h-2l-232 -169h-104v20l234 270h204z" />
    <glyph glyph-name="Tbar" unicode="&#x166;" horiz-adv-x="1251" 
d="M720 1253v-452h281v-154h-281v-647h-190v647h-279v154h279v452h-484v156h1158v-156h-484z" />
    <glyph glyph-name="tbar" unicode="&#x167;" horiz-adv-x="569" 
d="M336 516v-248q0 -78 25.5 -109.5t88.5 -31.5q36 0 104 14v-133q-89 -24 -182 -24q-216 0 -216 245v287h-125v131h125v304h-125v131h132l53 242h120v-242h200v-131h-200v-304h200v-131h-200z" />
    <glyph glyph-name="Utilde" unicode="&#x168;" horiz-adv-x="1479" 
d="M731 -20q-173 0 -302 63t-200 183t-71 286v897h191v-881q0 -193 98 -293t283 -100q190 0 295.5 103.5t105.5 302.5v868h190v-879q0 -171 -72.5 -295t-205 -189.5t-312.5 -65.5zM896 1530q-42 0 -84 18.5t-81 41t-74.5 41t-66.5 18.5q-55 0 -82 -31t-36 -88h-91
q11 102 35 154.5t64.5 83t103.5 30.5q44 0 86 -18.5t81 -41l73.5 -41t64.5 -18.5q100 0 117 119h92q-17 -148 -67 -208t-135 -60z" />
    <glyph glyph-name="utilde" unicode="&#x169;" 
d="M314 1082v-686q0 -107 21 -166t67 -85t135 -26q130 0 205 89t75 247v627h180v-851q0 -189 6 -231h-170q-1 5 -2 27t-2.5 50.5t-3.5 107.5h-3q-62 -112 -143.5 -158.5t-202.5 -46.5q-178 0 -260.5 88.5t-82.5 292.5v721h181zM738 1201q-42 0 -84 18.5t-81 41t-74.5 41
t-66.5 18.5q-55 0 -82 -31t-36 -88h-91q11 102 35 154.5t64.5 83t103.5 30.5q44 0 86 -18.5t81 -41l73.5 -41t64.5 -18.5q100 0 117 119h92q-17 -148 -67 -208t-135 -60z" />
    <glyph glyph-name="Umacron" unicode="&#x16a;" horiz-adv-x="1479" 
d="M731 -20q-173 0 -302 63t-200 183t-71 286v897h191v-881q0 -193 98 -293t283 -100q190 0 295.5 103.5t105.5 302.5v868h190v-879q0 -171 -72.5 -295t-205 -189.5t-312.5 -65.5zM1015 1565h-549v127h549v-127z" />
    <glyph glyph-name="umacron" unicode="&#x16b;" 
d="M314 1082v-686q0 -107 21 -166t67 -85t135 -26q130 0 205 89t75 247v627h180v-851q0 -189 6 -231h-170q-1 5 -2 27t-2.5 50.5t-3.5 107.5h-3q-62 -112 -143.5 -158.5t-202.5 -46.5q-178 0 -260.5 88.5t-82.5 292.5v721h181zM840 1236h-549v127h549v-127z" />
    <glyph glyph-name="Ubreve" unicode="&#x16c;" horiz-adv-x="1479" 
d="M731 -20q-173 0 -302 63t-200 183t-71 286v897h191v-881q0 -193 98 -293t283 -100q190 0 295.5 103.5t105.5 302.5v868h190v-879q0 -171 -72.5 -295t-205 -189.5t-312.5 -65.5zM738 1530q-133 0 -223.5 69t-108.5 180h117q17 -53 71.5 -83t145.5 -30t144.5 30.5
t70.5 82.5h117q-21 -114 -111 -181.5t-223 -67.5z" />
    <glyph glyph-name="ubreve" unicode="&#x16d;" 
d="M314 1082v-686q0 -107 21 -166t67 -85t135 -26q130 0 205 89t75 247v627h180v-851q0 -189 6 -231h-170q-1 5 -2 27t-2.5 50.5t-3.5 107.5h-3q-62 -112 -143.5 -158.5t-202.5 -46.5q-178 0 -260.5 88.5t-82.5 292.5v721h181zM564 1201q-132 0 -223 85t-109 224h117
q28 -153 217 -153q186 0 215 153h117q-21 -142 -110.5 -225.5t-223.5 -83.5z" />
    <glyph glyph-name="Uogonek" unicode="&#x172;" horiz-adv-x="1479" 
d="M731 -20q-173 0 -302 63t-200 183t-71 286v897h191v-881q0 -193 98 -293t283 -100q190 0 295.5 103.5t105.5 302.5v868h190v-879q0 -171 -72.5 -295t-205 -189.5t-312.5 -65.5zM974 -400q-63 -27 -139 -27q-105 0 -158 51t-53 136q0 70 43.5 136t111.5 104h133
q-25 -14 -51 -36.5t-47.5 -52t-35 -64.5t-13.5 -74q0 -42 24.5 -66t69.5 -24q54 0 115 24v-107z" />
    <glyph glyph-name="uogonek" unicode="&#x173;" 
d="M314 1082v-686q0 -107 21 -166t67 -85t135 -26q130 0 205 89t75 247v627h180v-851q0 -189 6 -231h-170q-1 5 -2 27t-2.5 50.5t-3.5 107.5h-3q-62 -112 -143.5 -158.5t-202.5 -46.5q-178 0 -260.5 88.5t-82.5 292.5v721h181zM1029 -400q-63 -27 -139 -27q-105 0 -158 51
t-53 136q0 70 43.5 136t111.5 104h133q-25 -14 -51 -36.5t-47.5 -52t-35 -64.5t-13.5 -74q0 -42 24.5 -66t69.5 -24q54 0 115 24v-107z" />
    <glyph glyph-name="Wcircumflex" unicode="&#x174;" horiz-adv-x="1933" 
d="M1511 0h-228l-244 895q-24 84 -70 301l-44 -194t-273 -1002h-228l-415 1409h199l253 -895q45 -168 83 -346q24 110 55.5 240t277.5 1001h183l245 -877q56 -215 88 -364l9 35l44 187.5t281 1018.5h199zM1295 1550v-20h-105l-219 139h-2l-232 -139h-104v20l234 240h204z
" />
    <glyph glyph-name="wcircumflex" unicode="&#x175;" horiz-adv-x="1479" 
d="M1174 0h-209l-189 765l-36 169q-9 -45 -28 -129.5t-204 -804.5h-208l-303 1082h178l183 -735q7 -24 43 -198l17 74l226 859h193l189 -743l46 -190l31 139l205 794h176zM1066 1221v-20h-105l-219 169h-2l-232 -169h-104v20l234 270h204z" />
    <glyph glyph-name="Ycircumflex" unicode="&#x176;" horiz-adv-x="1366" 
d="M777 584v-584h-190v584l-542 825h210l429 -671l427 671h210zM1009 1550v-20h-105l-219 139h-2l-232 -139h-104v20l234 240h204z" />
    <glyph glyph-name="ycircumflex" unicode="&#x177;" horiz-adv-x="1024" 
d="M191 -425q-74 0 -124 11v135q38 -6 84 -6q168 0 266 247l17 43l-429 1077h192l228 -598l12 -33.5l45 -130.5t41 -124l70 197l237 689h190l-416 -1082q-67 -173 -125 -257.5t-128.5 -126t-159.5 -41.5zM844 1221v-20h-105l-219 169h-2l-232 -169h-104v20l234 270h204z" />
    <glyph glyph-name="longs" unicode="&#x17f;" horiz-adv-x="455" 
d="M318 0h-180v1204q0 148 65 213t199 65q75 0 127 -12v-137q-45 8 -80 8q-69 0 -100 -35t-31 -127v-1179z" />
    <glyph glyph-name="Aringacute" unicode="&#x1fa;" horiz-adv-x="1366" 
d="M926 1392q0 -55 -29.5 -103.5t-75.5 -76.5l541 -1212h-195l-161 371h-642l-162 -371h-198l548 1209q-49 28 -79.5 77.5t-30.5 105.5q0 90 71 153.5t171 63.5t171 -64t71 -153zM685 1138l-9 -24q-16 -49 -42.5 -115.5t-211.5 -493.5h527l-181 418q-27 60 -56 140z
M818 1392q0 50 -39 85.5t-95 35.5q-57 0 -96 -35.5t-39 -85.5q0 -47 36 -84t90 -40h9q58 0 96 37.5t38 86.5zM571 1657v16l217 181h207v-23l-310 -174h-114z" />
    <glyph glyph-name="aringacute" unicode="&#x1fb;" 
d="M414 -20q-163 0 -245 86t-82 236q0 168 110.5 258t356.5 96l243 4v59q0 132 -56 189t-176 57q-121 0 -176 -41t-66 -131l-188 17q46 292 434 292q204 0 307 -93.5t103 -270.5v-466q0 -80 21 -120.5t80 -40.5q26 0 59 7v-112q-68 -16 -139 -16q-100 0 -145.5 52.5
t-51.5 164.5h-6q-69 -124 -160.5 -175.5t-222.5 -51.5zM455 115q99 0 176 45t121.5 123.5t44.5 161.5v89l-197 -4q-127 -2 -192.5 -26t-100.5 -74t-35 -131q0 -88 47.5 -136t135.5 -48zM811 1239q0 -100 -71 -171t-171 -71t-171 71t-71 171q0 101 71 171t171 70
q99 0 170.5 -70.5t71.5 -170.5zM703 1239q0 56 -39 95t-95 39q-57 0 -96 -39t-39 -95q0 -55 38 -96t97 -41q58 0 96 40.5t38 96.5zM427 1547v20l217 287h207v-29l-330 -278h-94z" />
    <glyph glyph-name="AEacute" unicode="&#x1fc;" horiz-adv-x="2048" 
d="M969 0v412h-548l-198 -412h-199l686 1409h1209v-156h-759v-452h699v-154h-699v-491h800v-156h-991zM969 1262h-151l-28 -63l-299 -638h478v701zM1068 1530v20l217 226h207v-29l-310 -217h-114z" />
    <glyph glyph-name="aeacute" unicode="&#x1fd;" horiz-adv-x="1821" 
d="M968 503v-17q2 -181 77 -276t215 -95q117 0 187.5 47t95.5 119l158 -45q-97 -256 -441 -256q-321 0 -423 257q-79 -140 -184 -198.5t-251 -58.5q-167 0 -251.5 86t-84.5 236q0 174 119 262t361 92l240 4v59q0 135 -55.5 190.5t-176.5 55.5q-126 0 -182.5 -40t-69.5 -132
l-188 17q46 292 444 292q250 0 349 -139q118 139 346 139q477 0 477 -575v-24h-762zM786 534l-195 -4q-133 -3 -203.5 -29.5t-103.5 -77t-33 -124.5q0 -87 50 -135.5t143 -48.5q102 0 178.5 44.5t120 122t43.5 163.5v89zM1544 641q-15 171 -87 249.5t-207 78.5
q-127 0 -200.5 -85.5t-79.5 -242.5h574zM759 1201v20l217 287h207v-29l-330 -278h-94z" />
    <glyph glyph-name="Oslashacute" unicode="&#x1fe;" horiz-adv-x="1593" 
d="M1495 711q0 -221 -84.5 -387t-242.5 -255t-373 -89q-246 0 -414 112l-120 -145h-190l200 241q-174 192 -174 523q0 338 185 528.5t515 190.5q247 0 414 -110l121 146h192l-201 -242q172 -190 172 -513zM1300 711q0 224 -98 368l-709 -853q122 -91 302 -91
q244 0 374.5 150.5t130.5 425.5zM291 711q0 -229 101 -378l707 853q-124 88 -302 88q-242 0 -374 -148t-132 -415zM659 1530v20l217 226h207v-29l-310 -217h-114z" />
    <glyph glyph-name="oslashacute" unicode="&#x1ff;" horiz-adv-x="1251" 
d="M1112 542q0 -284 -125 -423t-363 -139q-195 0 -313 98l-100 -116h-167l184 214q-83 138 -83 366q0 560 485 560q201 0 316 -91l91 105h167l-173 -201q81 -133 81 -373zM923 542q0 129 -23 221l-483 -562q68 -88 205 -88q162 0 231.5 104t69.5 325zM334 542
q0 -130 24 -215l482 561q-67 81 -207 81q-158 0 -228.5 -103.5t-70.5 -323.5zM506 1201v20l217 287h207v-29l-330 -278h-94z" />
    <glyph glyph-name="anoteleia" unicode="&#x387;" horiz-adv-x="569" 
d="M187 446v220h195v-220h-195z" />
    <glyph glyph-name="Wgrave" unicode="&#x1e80;" horiz-adv-x="1933" 
d="M1511 0h-228l-244 895q-24 84 -70 301l-44 -194t-273 -1002h-228l-415 1409h199l253 -895q45 -168 83 -346q24 110 55.5 240t277.5 1001h183l245 -877q56 -215 88 -364l9 35l44 187.5t281 1018.5h199zM993 1530l-310 217v29h207l217 -226v-20h-114z" />
    <glyph glyph-name="wgrave" unicode="&#x1e81;" horiz-adv-x="1479" 
d="M1174 0h-209l-189 765l-36 169q-9 -45 -28 -129.5t-204 -804.5h-208l-303 1082h178l183 -735q7 -24 43 -198l17 74l226 859h193l189 -743l46 -190l31 139l205 794h176zM764 1201l-330 278v29h207l217 -287v-20h-94z" />
    <glyph glyph-name="Wacute" unicode="&#x1e82;" horiz-adv-x="1933" 
d="M1511 0h-228l-244 895q-24 84 -70 301l-44 -194t-273 -1002h-228l-415 1409h199l253 -895q45 -168 83 -346q24 110 55.5 240t277.5 1001h183l245 -877q56 -215 88 -364l9 35l44 187.5t281 1018.5h199zM831 1530v20l217 226h207v-29l-310 -217h-114z" />
    <glyph glyph-name="wacute" unicode="&#x1e83;" horiz-adv-x="1479" 
d="M1174 0h-209l-189 765l-36 169q-9 -45 -28 -129.5t-204 -804.5h-208l-303 1082h178l183 -735q7 -24 43 -198l17 74l226 859h193l189 -743l46 -190l31 139l205 794h176zM622 1201v20l217 287h207v-29l-330 -278h-94z" />
    <glyph glyph-name="Wdieresis" unicode="&#x1e84;" horiz-adv-x="1933" 
d="M1511 0h-228l-244 895q-24 84 -70 301l-44 -194t-273 -1002h-228l-415 1409h199l253 -895q45 -168 83 -346q24 110 55.5 240t277.5 1001h183l245 -877q56 -215 88 -364l9 35l44 187.5t281 1018.5h199zM1085 1530v184h163v-184h-163zM691 1530v184h165v-184h-165z" />
    <glyph glyph-name="wdieresis" unicode="&#x1e85;" horiz-adv-x="1479" 
d="M1174 0h-209l-189 765l-36 169q-9 -45 -28 -129.5t-204 -804.5h-208l-303 1082h178l183 -735q7 -24 43 -198l17 74l226 859h193l189 -743l46 -190l31 139l205 794h176zM856 1219v184h163v-184h-163zM462 1219v184h165v-184h-165z" />
    <glyph glyph-name="Ygrave" unicode="&#x1ef2;" horiz-adv-x="1366" 
d="M777 584v-584h-190v584l-542 825h210l429 -671l427 671h210zM706 1530l-310 217v29h207l217 -226v-20h-114z" />
    <glyph glyph-name="ygrave" unicode="&#x1ef3;" horiz-adv-x="1024" 
d="M191 -425q-74 0 -124 11v135q38 -6 84 -6q168 0 266 247l17 43l-429 1077h192l228 -598l12 -33.5l45 -130.5t41 -124l70 197l237 689h190l-416 -1082q-67 -173 -125 -257.5t-128.5 -126t-159.5 -41.5zM541 1201l-330 278v29h207l217 -287v-20h-94z" />
    <glyph glyph-name="quotereversed" unicode="&#x201b;" horiz-adv-x="455" 
d="M321 1409v-197h-88q0 -124 94 -260h-123q-40 64 -59 136.5t-19 175.5v145h195z" />
    <glyph glyph-name="radicalex" unicode="&#x203e;" horiz-adv-x="682" 
d="M747 1503h-811v117h811v-117z" />
    <glyph glyph-name="lira" unicode="&#x20a4;" 
d="M1104 311q-17 -150 -105 -230.5t-232 -80.5h-698v154q89 46 132 126t43 201v25h-186v129h186v140h-186v129h186v130q0 195 103 295.5t299 100.5q147 0 247 -60.5t134 -169.5l-174 -57q-21 64 -76.5 101.5t-126.5 37.5q-114 0 -170 -57.5t-56 -182.5v-138h408v-129h-408
v-140h408v-129h-408v-7q0 -119 -46 -212t-123 -134h483q174 0 203 176z" />
    <glyph glyph-name="estimated" unicode="&#x212e;" horiz-adv-x="1229" 
d="M619 -34q-158 0 -278 72.5t-186.5 204t-66.5 288.5q0 171 70 299t192 197t269 69q151 0 273 -70.5t189 -199.5t67 -295h-827v-356q50 -54 131.5 -89t166.5 -35q132 0 222.5 52t172.5 182l72 -42q-96 -153 -205.5 -215t-261.5 -62zM917 616v277q-51 53 -132.5 85.5
t-167.5 32.5q-179 0 -296 -117v-278h596z" />
    <glyph glyph-name="oneeighth" unicode="&#x215b;" horiz-adv-x="1708" 
d="M80 563v107h211v620l-202 -138v120l210 137h123v-739h215v-107h-557zM493 0h-148l881 1409h145zM1451 631q0 70 -34 99.5t-103 29.5t-102.5 -31t-33.5 -98q0 -70 35 -102t102 -32q68 0 102 29.5t34 104.5zM1472 252q0 144 -158 144q-76 0 -115.5 -38t-39.5 -108
q0 -83 39 -121t119 -38q81 0 118 37.5t37 123.5zM1614 238q0 -118 -77 -183t-221 -65q-142 0 -220.5 65t-78.5 182q0 81 47.5 138t121.5 69v3q-68 15 -108.5 69t-40.5 127q0 98 75 157.5t202 59.5q130 0 204.5 -59t74.5 -159q0 -73 -41 -127t-109 -67v-3q82 -14 126.5 -68.5
t44.5 -138.5z" />
    <glyph glyph-name="threeeighths" unicode="&#x215c;" horiz-adv-x="1708" 
d="M493 0h-148l881 1409h145zM1451 631q0 70 -34 99.5t-103 29.5t-102.5 -31t-33.5 -98q0 -70 35 -102t102 -32q68 0 102 29.5t34 104.5zM1472 252q0 144 -158 144q-76 0 -115.5 -38t-39.5 -108q0 -83 39 -121t119 -38q81 0 118 37.5t37 123.5zM1614 238q0 -118 -77 -183
t-221 -65q-142 0 -220.5 65t-78.5 182q0 81 47.5 138t121.5 69v3q-68 15 -108.5 69t-40.5 127q0 98 75 157.5t202 59.5q130 0 204.5 -59t74.5 -159q0 -73 -41 -127t-109 -67v-3q82 -14 126.5 -68.5t44.5 -138.5zM676 795q0 -116 -77.5 -180t-219.5 -64q-286 0 -318 227
l136 13q18 -136 182 -136q160 0 160 148q0 137 -189 137h-61v109h57q80 0 126 36t46 101q0 60 -37 94.5t-108 34.5q-68 0 -110 -35t-48 -100l-135 12q13 109 91.5 169t205.5 60q130 0 204 -59.5t74 -157.5q0 -75 -43 -130t-133 -75v-2q91 -9 144 -61.5t53 -140.5z" />
    <glyph glyph-name="fiveeighths" unicode="&#x215d;" horiz-adv-x="1708" 
d="M493 0h-148l881 1409h145zM1451 631q0 70 -34 99.5t-103 29.5t-102.5 -31t-33.5 -98q0 -70 35 -102t102 -32q68 0 102 29.5t34 104.5zM1472 252q0 144 -158 144q-76 0 -115.5 -38t-39.5 -108q0 -83 39 -121t119 -38q81 0 118 37.5t37 123.5zM1614 238q0 -118 -77 -183
t-221 -65q-142 0 -220.5 65t-78.5 182q0 81 47.5 138t121.5 69v3q-68 15 -108.5 69t-40.5 127q0 98 75 157.5t202 59.5q130 0 204.5 -59t74.5 -159q0 -73 -41 -127t-109 -67v-3q82 -14 126.5 -68.5t44.5 -138.5zM676 835q0 -132 -75.5 -207.5t-213.5 -75.5q-119 0 -196.5 57
t-97.5 164l133 15q11 -60 52.5 -95.5t105.5 -35.5q71 0 114 42.5t43 135.5q0 81 -40.5 123.5t-115.5 42.5q-91 0 -151 -60h-129l33 468h506v-113h-398l-19 -245q29 26 74.5 42.5t99.5 16.5q130 0 202.5 -72.5t72.5 -202.5z" />
    <glyph glyph-name="seveneighths" unicode="&#x215e;" horiz-adv-x="1708" 
d="M433 0h-148l881 1409h145zM1451 631q0 70 -34 99.5t-103 29.5t-102.5 -31t-33.5 -98q0 -70 35 -102t102 -32q68 0 102 29.5t34 104.5zM1472 252q0 144 -158 144q-76 0 -115.5 -38t-39.5 -108q0 -83 39 -121t119 -38q81 0 118 37.5t37 123.5zM1614 238q0 -118 -77 -183
t-221 -65q-142 0 -220.5 65t-78.5 182q0 81 47.5 138t121.5 69v3q-68 15 -108.5 69t-40.5 127q0 98 75 157.5t202 59.5q130 0 204.5 -59t74.5 -159q0 -73 -41 -127t-109 -67v-3q82 -14 126.5 -68.5t44.5 -138.5zM734 1308q-129 -196 -183 -306.5t-80.5 -216.5t-26.5 -221
h-133q0 155 62 318.5t232 413.5h-460v113h589v-101z" />
    <glyph glyph-name="undercommaaccent" unicode="&#xf005;" horiz-adv-x="682" 
d="M483 -253q0 -181 -274 -181q-57 0 -90 4v98q49 -6 86 -6q147 0 147 81q0 77 -133 77q-43 0 -57 -2l31 96h62q228 0 228 -167z" />
    <glyph glyph-name="tonos" unicode="&#x384;" horiz-adv-x="682" 
d="M205 1218v33l69 292h207v-37l-201 -288h-75z" />
    <glyph glyph-name="dieresistonos" unicode="&#x385;" horiz-adv-x="682" 
d="M250 1200v33l69 368h187v-37l-181 -364h-75zM29 1231v172h150v-172h-150zM501 1231v172h150v-172h-150z" />
    <glyph glyph-name="Alphatonos" unicode="&#x386;" horiz-adv-x="1367" 
d="M1167 0l-161 412h-642l-162 -412h-198l575 1409h217l566 -1409h-195zM685 1265l-9 -28q-25 -83 -74 -213l-180 -463h527l-181 465q-28 69 -56 156zM57 1086v33l69 292h207v-37l-201 -288h-75z" />
    <glyph glyph-name="Epsilontonos" unicode="&#x388;" horiz-adv-x="1606" 
d="M408 0v1409h1069v-156h-878v-452h818v-154h-818v-491h919v-156h-1110zM-11 1086v33l69 292h207v-37l-201 -288h-75z" />
    <glyph glyph-name="Etatonos" unicode="&#x389;" horiz-adv-x="1716" 
d="M1358 0v653h-762v-653h-191v1409h191v-596h762v596h191v-1409h-191zM-14 1086v33l69 292h207v-37l-201 -288h-75z" />
    <glyph glyph-name="Iotatonos" unicode="&#x38a;" horiz-adv-x="786" 
d="M406 0v1409h191v-1409h-191zM-24 1086v33l69 292h207v-37l-201 -288h-75z" />
    <glyph glyph-name="Omicrontonos" unicode="&#x38c;" horiz-adv-x="1586" 
d="M1491 711q0 -221 -84.5 -387t-242.5 -255t-373 -89q-217 0 -374.5 88t-240.5 254.5t-83 388.5q0 338 185 528.5t515 190.5q215 0 373 -85.5t241.5 -248.5t83.5 -385zM1296 711q0 263 -131.5 413t-371.5 150q-242 0 -374 -148t-132 -415q0 -265 133.5 -420.5t370.5 -155.5
q244 0 374.5 150.5t130.5 425.5zM-69 1086v33l69 292h207v-37l-201 -288h-75z" />
    <glyph glyph-name="Upsilontonos" unicode="&#x38e;" horiz-adv-x="1752" 
d="M1163 584v-584h-190v584l-542 825h210l429 -671l427 671h210zM65 1086v33l69 292h207v-37l-201 -288h-75z" />
    <glyph glyph-name="Omegatonos" unicode="&#x38f;" horiz-adv-x="1541" 
d="M775 1430q303 0 476.5 -167.5t173.5 -461.5q0 -201 -107.5 -371t-316.5 -285l81 5l127 6h244v-156h-589v224q179 95 272.5 237.5t93.5 326.5q0 232 -119 359t-335 127q-218 0 -337 -127t-119 -359q0 -183 93 -325.5t273 -238.5v-224h-589v156h244l127 -6l81 -5
q-208 113 -316 283.5t-108 372.5q0 294 173.5 461.5t476.5 167.5zM-69 1086v33l69 292h207v-37l-201 -288h-75z" />
    <glyph glyph-name="iotadieresistonos" unicode="&#x390;" horiz-adv-x="455" 
d="M199 0q-30 32 -46 99.5t-16 136.5v846h180v-855q0 -65 21.5 -126t58.5 -101h-198zM141 1200v33l69 368h187v-37l-181 -364h-75zM-80 1231v172h150v-172h-150zM392 1231v172h150v-172h-150z" />
    <glyph glyph-name="Alpha" unicode="&#x391;" horiz-adv-x="1366" 
d="M1167 0l-161 412h-642l-162 -412h-198l575 1409h217l566 -1409h-195zM685 1265l-9 -28q-25 -83 -74 -213l-180 -463h527l-181 465q-28 69 -56 156z" />
    <glyph glyph-name="Beta" unicode="&#x392;" horiz-adv-x="1366" 
d="M1258 397q0 -188 -137 -292.5t-381 -104.5h-572v1409h512q496 0 496 -342q0 -125 -70 -210t-198 -114q168 -20 259 -112.5t91 -233.5zM984 1044q0 114 -78 163t-226 49h-321v-446h321q153 0 228.5 57.5t75.5 176.5zM1065 412q0 249 -350 249h-356v-508h371q175 0 255 65
t80 194z" />
    <glyph glyph-name="Delta" unicode="&#x394;" horiz-adv-x="1368" 
d="M579 1409h217l510 -1268v-141h-1245l1 141zM1106 156l-338 862q-30 74 -55.5 154.5t-27.5 92.5l-9 -32q-31 -111 -74 -217l-339 -860h843z" />
    <glyph glyph-name="Epsilon" unicode="&#x395;" horiz-adv-x="1366" 
d="M168 0v1409h1069v-156h-878v-452h818v-154h-818v-491h919v-156h-1110z" />
    <glyph glyph-name="Zeta" unicode="&#x396;" horiz-adv-x="1251" 
d="M1187 0h-1122v143l858 1110h-785v156h1002v-139l-858 -1114h905v-156z" />
    <glyph glyph-name="Eta" unicode="&#x397;" horiz-adv-x="1479" 
d="M1121 0v653h-762v-653h-191v1409h191v-596h762v596h191v-1409h-191z" />
    <glyph glyph-name="Iota" unicode="&#x399;" horiz-adv-x="569" 
d="M189 0v1409h191v-1409h-191z" />
    <glyph glyph-name="Kappa" unicode="&#x39a;" horiz-adv-x="1366" 
d="M1106 0l-563 680l-184 -140v-540h-191v1409h191v-706l679 706h225l-600 -612l680 -797h-237z" />
    <glyph glyph-name="Lambda" unicode="&#x39b;" horiz-adv-x="1368" 
d="M1358 1h-201l-388 992l-84 249l-84 -249l-390 -992h-201l575 1409h198z" />
    <glyph glyph-name="Mu" unicode="&#x39c;" horiz-adv-x="1706" 
d="M1366 0v940q0 156 9 300q-49 -179 -88 -280l-364 -960h-134l-369 960l-56 170l-33 110l3 -111l4 -189v-940h-170v1409h251l375 -977q20 -59 38.5 -126.5t24.5 -97.5q8 40 33.5 121.5t34.5 102.5l368 977h245v-1409h-172z" />
    <glyph glyph-name="Nu" unicode="&#x39d;" horiz-adv-x="1479" 
d="M1082 0l-754 1200l5 -97l5 -167v-936h-170v1409h222l762 -1208q-12 196 -12 284v924h172v-1409h-230z" />
    <glyph glyph-name="Xi" unicode="&#x39e;" horiz-adv-x="1331" 
d="M125 1409h1081v-156h-1081v156zM1241 156v-156h-1151v156h1151zM1086 801v-154h-841v154h841z" />
    <glyph glyph-name="Omicron" unicode="&#x39f;" horiz-adv-x="1593" 
d="M1495 711q0 -221 -84.5 -387t-242.5 -255t-373 -89q-217 0 -374.5 88t-240.5 254.5t-83 388.5q0 338 185 528.5t515 190.5q215 0 373 -85.5t241.5 -248.5t83.5 -385zM1300 711q0 263 -131.5 413t-371.5 150q-242 0 -374 -148t-132 -415q0 -265 133.5 -420.5t370.5 -155.5
q244 0 374.5 150.5t130.5 425.5z" />
    <glyph glyph-name="Pi" unicode="&#x3a0;" horiz-adv-x="1479" 
d="M1121 0v1248h-762v-1248h-191v1409h1144v-1409h-191z" />
    <glyph glyph-name="Rho" unicode="&#x3a1;" horiz-adv-x="1366" 
d="M1258 985q0 -200 -130.5 -318t-354.5 -118h-414v-549h-191v1409h593q237 0 367 -111t130 -313zM1066 983q0 273 -328 273h-379v-556h387q320 0 320 283z" />
    <glyph glyph-name="Sigma" unicode="&#x3a3;" horiz-adv-x="1266" 
d="M108 0v162l538 579l-521 507v161h999v-156h-784l458 -445v-124l-490 -528h877v-156h-1077z" />
    <glyph glyph-name="Tau" unicode="&#x3a4;" horiz-adv-x="1251" 
d="M720 1253v-1253h-190v1253h-484v156h1158v-156h-484z" />
    <glyph glyph-name="Upsilon" unicode="&#x3a5;" horiz-adv-x="1366" 
d="M777 584v-584h-190v584l-542 825h210l429 -671l427 671h210z" />
    <glyph glyph-name="Chi" unicode="&#x3a7;" horiz-adv-x="1366" 
d="M1112 0l-423 616l-432 -616h-211l536 732l-495 677h211l392 -553l381 553h211l-482 -670l523 -739h-211z" />
    <glyph glyph-name="Psi" unicode="&#x3a8;" horiz-adv-x="1711" 
d="M763 0v427h-83q-161 0 -283 65.5t-187 184t-65 269.5v463h191v-467q0 -172 99.5 -273t271.5 -101h56v841h185v-841h56q176 0 273.5 99.5t97.5 274.5v467h191v-463q0 -149 -65.5 -268t-187 -185t-282.5 -66h-83v-427h-185z" />
    <glyph glyph-name="Omega" unicode="&#x3a9;" horiz-adv-x="1531" 
d="M765 1430q303 0 476.5 -167.5t173.5 -461.5q0 -201 -107.5 -371t-316.5 -285l81 5l127 6h244v-156h-589v224q179 95 272.5 237.5t93.5 326.5q0 232 -119 359t-335 127q-218 0 -337 -127t-119 -359q0 -183 93 -325.5t273 -238.5v-224h-589v156h244l127 -6l81 -5
q-208 113 -316 283.5t-108 372.5q0 294 173.5 461.5t476.5 167.5z" />
    <glyph glyph-name="Iotadieresis" unicode="&#x3aa;" horiz-adv-x="569" 
d="M189 0v1409h191v-1409h-191zM401 1530v184h163v-184h-163zM7 1530v184h165v-184h-165z" />
    <glyph glyph-name="Upsilondieresis" unicode="&#x3ab;" horiz-adv-x="1366" 
d="M777 584v-584h-190l2 584l-544 825h205l434 -671l432 671h205zM802 1530v184h163v-184h-163zM408 1530v184h165v-184h-165z" />
    <glyph glyph-name="alphatonos" unicode="&#x3ac;" horiz-adv-x="1184" 
d="M843 237q-63 -136 -150.5 -196.5t-208.5 -60.5q-205 0 -301.5 138t-96.5 418q0 284 108.5 425t317.5 141q126 0 215.5 -67t134.5 -188h2q23 119 73 235h188q-50 -106 -92 -259.5t-50 -251.5q5 -160 34.5 -314t76.5 -257h-183q-24 61 -41.5 132.5t-22.5 104.5h-4zM275 542
q0 -222 57 -322.5t189 -100.5q120 0 202.5 115.5t108.5 311.5q-29 211 -105 317t-195 106q-136 0 -196.5 -100.5t-60.5 -326.5zM494 1218v33l69 292h207v-37l-201 -288h-75z" />
    <glyph glyph-name="epsilontonos" unicode="&#x3ad;" horiz-adv-x="913" 
d="M456 114q87 0 170.5 44.5t142.5 116.5l105 -100q-80 -97 -189 -146t-241 -49q-181 0 -277.5 83t-96.5 232q0 110 74.5 184t189.5 85v2q-106 12 -168.5 80t-62.5 167q0 130 101.5 209.5t266.5 79.5q251 0 376 -185l-128 -88q-92 139 -247 139q-91 0 -139 -42.5t-48 -116.5
q0 -91 78 -133.5t280 -42.5v-135q-153 0 -229 -19.5t-116.5 -62.5t-40.5 -118q0 -87 53.5 -135.5t145.5 -48.5zM407 1218v33l69 292h207v-37l-201 -288h-75z" />
    <glyph glyph-name="etatonos" unicode="&#x3ae;" 
d="M825 -424v1110q0 107 -21 166t-67 85t-135 26q-130 0 -205 -89t-75 -247v-627h-180v851q0 123 -36 231h170q17 -39 27.5 -91.5t10.5 -93.5h3q62 112 143.5 158.5t202.5 46.5q178 0 260.5 -88.5t82.5 -292.5v-1145h-181zM518 1218v33l69 292h207v-37l-201 -288h-75z" />
    <glyph glyph-name="iotatonos" unicode="&#x3af;" horiz-adv-x="455" 
d="M199 0q-30 32 -46 99.5t-16 136.5v846h180v-855q0 -65 21.5 -126t58.5 -101h-198zM158 1218v33l69 292h207v-37l-201 -288h-75z" />
    <glyph glyph-name="upsilondieresistonos" unicode="&#x3b0;" horiz-adv-x="1120" 
d="M1022 571q0 -293 -117 -442t-348 -149q-223 0 -323.5 106t-100.5 333v663h181v-669q0 -146 58.5 -220t192.5 -74q147 0 209.5 103.5t62.5 344.5q0 128 -35 279t-79 236h188q53 -118 82 -256t29 -255zM472 1200v33l69 368h187v-37l-181 -364h-75zM251 1231v172h150v-172
h-150zM723 1231v172h150v-172h-150z" />
    <glyph glyph-name="beta" unicode="&#x3b2;" horiz-adv-x="1178" 
d="M1097 405q0 -198 -118.5 -311.5t-338.5 -113.5q-183 0 -318 94h-6q6 -114 6 -202v-297h-180v1452q0 237 114 347t340 110q197 0 301.5 -91.5t104.5 -257.5q0 -253 -223 -340q148 -29 233 -131t85 -259zM322 205q64 -43 146.5 -67.5t163.5 -24.5q141 0 217 77t76 212
q0 145 -86.5 223t-249.5 78v142q127 27 183.5 96.5t56.5 191.5q0 98 -60.5 154t-170.5 56q-147 0 -211.5 -77.5t-64.5 -244.5v-816z" />
    <glyph glyph-name="gamma" unicode="&#x3b3;" horiz-adv-x="1024" 
d="M7 1082h192l245 -675l17.5 -53.5t20.5 -65t18.5 -65t12.5 -53.5q22 91 74 235l239 677h191l-390 -1029q-34 -90 -63 -225.5t-42 -251.5h-191q25 192 89 435z" />
    <glyph glyph-name="zeta" unicode="&#x3b6;" horiz-adv-x="903" 
d="M277 379q0 -67 24 -108.5t70.5 -68t179.5 -61.5l109.5 -32t100.5 -45.5t74 -72.5t29 -112q0 -44 -18 -98.5t-65 -133.5l-126 56q23 31 39 72t16 69q0 36 -21 60t-62.5 42t-169.5 48q-115 27 -160.5 46t-85 45.5t-67 64t-43 88t-15.5 116.5q0 390 573 999v4l-127 -4h-345
v131h642v-127q-290 -327 -421 -565.5t-131 -412.5z" />
    <glyph glyph-name="eta" unicode="&#x3b7;" 
d="M825 -424v1110q0 107 -21 166t-67 85t-135 26q-130 0 -205 -89t-75 -247v-627h-180v851q0 123 -36 231h170q17 -39 27.5 -91.5t10.5 -93.5h3q62 112 143.5 158.5t202.5 46.5q178 0 260.5 -88.5t82.5 -292.5v-1145h-181z" />
    <glyph glyph-name="theta" unicode="&#x3b8;" 
d="M1033 733q0 -381 -120 -567t-348 -186q-224 0 -341.5 190.5t-117.5 562.5q0 750 465 750q239 0 350.5 -184.5t111.5 -565.5zM563 113q143 0 209 136.5t71 423.5h-547q5 -276 69.5 -418t197.5 -142zM574 1354q-142 0 -207 -133.5t-71 -416.5h547q-5 283 -67.5 416.5
t-201.5 133.5z" />
    <glyph glyph-name="iota" unicode="&#x3b9;" horiz-adv-x="455" 
d="M199 0q-30 32 -46 99.5t-16 136.5v846h180v-855q0 -65 21.5 -126t58.5 -101h-198z" />
    <glyph glyph-name="kappa" unicode="&#x3ba;" horiz-adv-x="1024" 
d="M816 0l-366 494l-132 -109v-385h-180v1082h180v-525l475 525h211l-439 -465l462 -617h-211z" />
    <glyph glyph-name="lambda" unicode="&#x3bb;" horiz-adv-x="1024" 
d="M463 965q-68 188 -89.5 238t-43 79.5t-48.5 43.5t-66 14q-29 0 -49 -10l-35 130q67 24 129 24q107 0 175 -73t143 -270l427 -1141h-190l-207 577q-41 112 -65 214q-15 -46 -36.5 -99.5t-306.5 -691.5h-187z" />
    <glyph glyph-name="mu" unicode="&#x3bc;" horiz-adv-x="1180" 
d="M862 0q-2 12 -5.5 81.5t-4.5 108.5h-4q-60 -118 -126.5 -164t-167.5 -46q-82 0 -142 32t-92 90h-4q4 -43 4 -122v-373h-182v1475h182v-644q0 -161 63 -239t193 -78q124 0 195.5 91t71.5 253v617h181v-849q0 -191 6 -233h-168z" />
    <glyph glyph-name="nu" unicode="&#x3bd;" horiz-adv-x="1024" 
d="M946 846q0 -174 -103.5 -400.5t-282.5 -445.5h-170l-390 1082h189l311 -928q266 347 266 683q0 135 -49 245h177q52 -97 52 -236z" />
    <glyph glyph-name="xi" unicode="&#x3be;" horiz-adv-x="917" 
d="M86 354q0 179 120.5 301t340.5 155v2q-150 11 -237 84t-87 186q0 103 72 173.5t201 97.5v8l-254 -8h-74v131h634v-125q-207 -24 -304 -88t-97 -171q0 -69 38.5 -114t110 -71t209.5 -38v-131q-237 -31 -359.5 -125.5t-122.5 -241.5q0 -67 24 -108.5t70.5 -68t179.5 -61.5
l111 -32t104 -45.5t77.5 -72.5t30.5 -112q0 -44 -18 -98.5t-65 -133.5l-126 56q23 31 39 72t16 69q0 36 -22.5 60t-66.5 42t-174 48q-115 27 -160.5 46t-85 45.5t-67 64t-43 88t-15.5 116.5z" />
    <glyph glyph-name="omicron" unicode="&#x3bf;" 
d="M1053 542q0 -284 -125 -423t-363 -139q-237 0 -358 144.5t-121 417.5q0 560 485 560q248 0 365 -136.5t117 -423.5zM864 542q0 224 -66.5 325.5t-223.5 101.5q-158 0 -228.5 -103.5t-70.5 -323.5q0 -214 69.5 -321.5t218.5 -107.5q162 0 231.5 104t69.5 325z" />
    <glyph glyph-name="rho" unicode="&#x3c1;" horiz-adv-x="1165" 
d="M1083 516q0 -238 -121.5 -387t-315.5 -149q-110 0 -190 34t-144 109h-4q4 -60 4 -123v-425h-180v1006q0 245 121 383.5t334 138.5q142 0 256 -72.5t177 -207t63 -307.5zM890 524q0 209 -85.5 327.5t-229.5 118.5q-263 0 -263 -393v-317q55 -69 139 -108t172 -39
q127 0 197 106t70 305z" />
    <glyph glyph-name="sigma1" unicode="&#x3c2;" horiz-adv-x="987" 
d="M582 961q-82 0 -148.5 -61t-111.5 -184t-45 -244q0 -129 64.5 -194.5t259.5 -128.5l110 -35q213 -70 213 -235q0 -44 -18 -98.5t-65 -133.5l-126 56q23 31 39 72t16 69q0 48 -50 81t-213 77q-178 48 -261 104.5t-121.5 145t-38.5 223.5q0 111 39.5 235.5t104 211
t153 133.5t199.5 47q101 0 176 -27t140 -95l-116 -119q-95 100 -200 100z" />
    <glyph glyph-name="upsilon" unicode="&#x3c5;" horiz-adv-x="1120" 
d="M1022 571q0 -293 -117 -442t-348 -149q-223 0 -323.5 106t-100.5 333v663h181v-669q0 -146 58.5 -220t192.5 -74q147 0 209.5 103.5t62.5 344.5q0 128 -35 279t-79 236h188q53 -118 82 -256t29 -255z" />
    <glyph glyph-name="chi" unicode="&#x3c7;" horiz-adv-x="1075" 
d="M542 239l-333 -663h-188l440 825l-170 343q-73 145 -106.5 182t-71.5 37q-27 0 -50 -10l-34 131q53 20 118 20q86 0 139.5 -50t133.5 -216l142 -295l264 539h187l-368 -697l406 -809h-190z" />
    <glyph glyph-name="psi" unicode="&#x3c8;" horiz-adv-x="1460" 
d="M814 119q183 2 255.5 72.5t72.5 244.5v646h182v-644q0 -241 -120.5 -348.5t-389.5 -109.5v-405h-170v405q-267 2 -388 109t-121 349v644h181v-646q0 -170 72 -242.5t256 -74.5v1221h170v-1221z" />
    <glyph glyph-name="omega" unicode="&#x3c9;" horiz-adv-x="1599" 
d="M883 449q0 -157 57 -243.5t159 -86.5q114 0 170.5 93t56.5 300q0 185 -66 304.5t-188 147.5l23 139q130 -21 224.5 -101.5t145 -207t50.5 -277.5q0 -256 -103.5 -396.5t-293.5 -140.5q-126 0 -204.5 64.5t-112.5 202.5h-4q-34 -138 -112.5 -202.5t-204.5 -64.5
q-190 0 -293.5 140.5t-103.5 396.5q0 234 113 394t307 192l23 -139q-119 -26 -186.5 -143.5t-67.5 -308.5q0 -206 55.5 -299.5t169.5 -93.5q102 0 161 86.5t59 243.5v252h166v-252z" />
    <glyph glyph-name="iotadieresis" unicode="&#x3ca;" horiz-adv-x="455" 
d="M199 0q-30 32 -46 99.5t-16 136.5v846h180v-855q0 -65 21.5 -126t58.5 -101h-198zM343 1219v184h163v-184h-163zM-51 1219v184h165v-184h-165z" />
    <glyph glyph-name="upsilondieresis" unicode="&#x3cb;" horiz-adv-x="1120" 
d="M1022 571q0 -293 -117 -442t-348 -149q-223 0 -323.5 106t-100.5 333v663h181v-669q0 -146 58.5 -220t192.5 -74q147 0 209.5 103.5t62.5 344.5q0 128 -35 279t-79 236h188q53 -118 82 -256t29 -255zM681 1219v184h163v-184h-163zM287 1219v184h165v-184h-165z" />
    <glyph glyph-name="omicrontonos" unicode="&#x3cc;" 
d="M1053 542q0 -284 -125 -423t-363 -139q-237 0 -358 144.5t-121 417.5q0 560 485 560q248 0 365 -136.5t117 -423.5zM864 542q0 224 -66.5 325.5t-223.5 101.5q-158 0 -228.5 -103.5t-70.5 -323.5q0 -214 69.5 -321.5t218.5 -107.5q162 0 231.5 104t69.5 325zM502 1218v33
l69 292h207v-37l-201 -288h-75z" />
    <glyph glyph-name="upsilontonos" unicode="&#x3cd;" horiz-adv-x="1120" 
d="M1022 571q0 -293 -117 -442t-348 -149q-223 0 -323.5 106t-100.5 333v663h181v-669q0 -146 58.5 -220t192.5 -74q147 0 209.5 103.5t62.5 344.5q0 128 -35 279t-79 236h188q53 -118 82 -256t29 -255zM457 1218v33l69 292h207v-37l-201 -288h-75z" />
    <glyph glyph-name="omegatonos" unicode="&#x3ce;" horiz-adv-x="1599" 
d="M883 449q0 -157 57 -243.5t159 -86.5q114 0 170.5 93t56.5 300q0 185 -66 304.5t-188 147.5l23 139q130 -21 224.5 -101.5t145 -207t50.5 -277.5q0 -256 -103.5 -396.5t-293.5 -140.5q-126 0 -204.5 64.5t-112.5 202.5h-4q-34 -138 -112.5 -202.5t-204.5 -64.5
q-190 0 -293.5 140.5t-103.5 396.5q0 234 113 394t307 192l23 -139q-119 -26 -186.5 -143.5t-67.5 -308.5q0 -206 55.5 -299.5t169.5 -93.5q102 0 161 86.5t59 243.5v252h166v-252zM716 1218v33l69 292h207v-37l-201 -288h-75z" />
    <glyph glyph-name="uni0401" unicode="&#x401;" horiz-adv-x="1367" 
d="M168 0v1409h1069v-156h-878v-452h818v-154h-818v-491h919v-156h-1110zM816 1530v184h163v-184h-163zM422 1530v184h165v-184h-165z" />
    <glyph glyph-name="uni0402" unicode="&#x402;" horiz-adv-x="1771" 
d="M720 1253v-352q117 25 242.5 42t209.5 17q226 0 334.5 -93.5t108.5 -281.5v-214q0 -391 -352 -391q-94 0 -167 28.5t-142 94.5l111 123q60 -53 104.5 -72.5t91.5 -19.5q84 0 124 50.5t40 161.5v219q0 119 -64.5 180t-208.5 61q-92 0 -228.5 -17t-203.5 -33v-756h-190
v1253h-484v156h1158v-156h-484z" />
    <glyph glyph-name="uni0403" unicode="&#x403;" horiz-adv-x="1109" 
d="M1071 1410v-156h-712v-1253h-191v1409h903zM441 1530v20l217 226h207v-29l-310 -217h-114z" />
    <glyph glyph-name="uni0404" unicode="&#x404;" horiz-adv-x="1472" 
d="M792 1274q-213 0 -341.5 -126.5t-149.5 -355.5h654v-154h-654q18 -229 151.5 -365t347.5 -136q147 0 260.5 74t184.5 218l156 -77q-97 -192 -248.5 -282t-361.5 -90q-213 0 -368.5 88.5t-237 253t-81.5 389.5q0 337 182 528t504 191q225 0 376 -88t222 -261l-181 -60
q-49 123 -157.5 188t-257.5 65z" />
    <glyph glyph-name="uni0405" unicode="&#x405;" horiz-adv-x="1366" 
d="M1272 389q0 -195 -152.5 -302t-429.5 -107q-515 0 -597 358l185 37q32 -127 136 -186.5t283 -59.5q185 0 285.5 63.5t100.5 186.5q0 69 -31.5 112t-88.5 71t-136 47l-175 41q-167 37 -253.5 74t-136.5 82.5t-76.5 106.5t-26.5 140q0 181 138.5 279t396.5 98
q240 0 367 -73.5t178 -250.5l-188 -33q-31 112 -118 162.5t-241 50.5q-169 0 -258 -56t-89 -167q0 -65 34.5 -107.5t99.5 -72t259 -72.5l129.5 -30.5t123.5 -37t110.5 -50.5t89.5 -71t59.5 -99t21.5 -134z" />
    <glyph glyph-name="uni0406" unicode="&#x406;" horiz-adv-x="569" 
d="M189 0v1409h191v-1409h-191z" />
    <glyph glyph-name="uni0407" unicode="&#x407;" horiz-adv-x="569" 
d="M189 0v1409h191v-1409h-191zM401 1530v184h163v-184h-163zM7 1530v184h165v-184h-165z" />
    <glyph glyph-name="uni0408" unicode="&#x408;" horiz-adv-x="1024" 
d="M457 -20q-358 0 -425 370l187 31q18 -116 81 -181t158 -65q104 0 164 71.5t60 209.5v837h-271v156h461v-989q0 -205 -111 -322.5t-304 -117.5z" />
    <glyph glyph-name="uni0409" unicode="&#x409;" horiz-adv-x="2165" 
d="M2059 413q0 -187 -129 -300t-356 -113h-585v1249h-416l-49 -368q-51 -398 -98.5 -573t-119.5 -249.5t-202 -74.5q-58 0 -86 10v152q19 -7 56 -7q53 0 86.5 32.5t62.5 108t58 224t58 366l71 539.5h770v-596h382q236 0 366.5 -105t130.5 -295zM1867 411q0 121 -82 185.5
t-246 64.5h-359v-510h367q164 0 242 68t78 192z" />
    <glyph glyph-name="uni040A" unicode="&#x40a;" horiz-adv-x="2069" 
d="M1963 413q0 -187 -129 -300t-356 -113h-545v653h-574v-653h-191v1409h191v-596h574v596h191v-596h342q236 0 366.5 -105t130.5 -295zM1771 411q0 121 -82 185.5t-246 64.5h-319v-510h327q164 0 242 68t78 192z" />
    <glyph glyph-name="uni040B" unicode="&#x40b;" horiz-adv-x="1749" 
d="M1393 0v575q0 122 -64 176.5t-197 54.5q-162 0 -412 -50v-756h-190v1253h-484v156h1203v-156h-529v-352q266 59 420 59q443 0 443 -365v-595h-190z" />
    <glyph glyph-name="uni040C" unicode="&#x40c;" horiz-adv-x="1193" 
d="M168 1409h191v-619q75 0 120 20.5t94 76t156 217.5l205 305h200l-283 -410q-131 -189 -179 -224l509 -775h-222l-427 683q-25 -12 -79.5 -25t-93.5 -13v-645h-191v1409zM500 1530v20l217 226h207v-29l-310 -217h-114z" />
    <glyph glyph-name="uni040E" unicode="&#x40e;" horiz-adv-x="1301" 
d="M332 -20q-62 0 -129.5 19t-113.5 51l81 144q94 -59 166 -59q51 0 85.5 19.5t69.5 67t137 233.5l-573 954h218l449 -784l384 784h205l-577 -1091q-85 -160 -138 -221t-115.5 -89t-148.5 -28zM690 1530q-356 0 -367 320h164q12 -199 203 -199t203 199h164
q-11 -320 -367 -320z" />
    <glyph glyph-name="uni040F" unicode="&#x40f;" horiz-adv-x="1472" 
d="M646 -408v408h-478v1409h191v-1249h759v1249h186v-1409h-478v-408h-180z" />
    <glyph glyph-name="uni0410" unicode="&#x410;" horiz-adv-x="1366" 
d="M1167 0l-161 412h-642l-162 -412h-198l575 1409h217l566 -1409h-195zM685 1265l-9 -28q-25 -83 -74 -213l-180 -463h527l-181 465q-28 69 -56 156z" />
    <glyph glyph-name="uni0411" unicode="&#x411;" horiz-adv-x="1344" 
d="M1238 413q0 -187 -129 -300t-356 -113h-585v1409h926v-156h-735v-440h382q236 0 366.5 -105t130.5 -295zM1046 411q0 121 -82 185.5t-246 64.5h-359v-510h367q164 0 242 68t78 192z" />
    <glyph glyph-name="uni0412" unicode="&#x412;" horiz-adv-x="1366" 
d="M1258 397q0 -188 -137 -292.5t-381 -104.5h-572v1409h512q496 0 496 -342q0 -125 -70 -210t-198 -114q168 -20 259 -112.5t91 -233.5zM984 1044q0 114 -78 163t-226 49h-321v-446h321q153 0 228.5 57.5t75.5 176.5zM1065 412q0 249 -350 249h-356v-508h371q175 0 255 65
t80 194z" />
    <glyph glyph-name="uni0413" unicode="&#x413;" horiz-adv-x="1109" 
d="M1071 1410v-156h-712v-1253h-191v1409h903z" />
    <glyph glyph-name="uni0414" unicode="&#x414;" horiz-adv-x="1387" 
d="M1174 160h175v-568h-180v408h-974v-408h-180v568h144q78 97 132.5 272.5t91.5 466.5l67 510h724v-1249zM988 160v1089h-375l-49 -368q-37 -274 -82 -447t-108 -274h614z" />
    <glyph glyph-name="uni0415" unicode="&#x415;" horiz-adv-x="1366" 
d="M168 0v1409h1069v-156h-878v-452h818v-154h-818v-491h919v-156h-1110z" />
    <glyph glyph-name="uni0416" unicode="&#x416;" horiz-adv-x="1891" 
d="M850 645q-37 0 -92.5 13t-80.5 25l-427 -683h-222l509 775q-48 35 -179 224l-283 410h200l205 -305q111 -167 159 -220.5t92 -73.5t119 -20v619h191v-619q75 0 120 20.5t94 76t156 217.5l205 305h200l-283 -410q-131 -189 -179 -224l509 -775h-222l-427 683
q-25 -12 -79.5 -25t-93.5 -13v-645h-191v645z" />
    <glyph glyph-name="uni0417" unicode="&#x417;" horiz-adv-x="1237" 
d="M621 -20q-204 0 -336 80.5t-218 267.5l165 77q119 -272 382 -272q153 0 241 71t88 199q0 133 -96 192t-298 59h-71v148h71q181 0 267.5 59.5t86.5 182.5q0 107 -72.5 168.5t-207.5 61.5q-126 0 -212 -58.5t-137 -188.5l-178 61q70 173 202 257t332 84q212 0 338 -99.5
t126 -268.5q0 -127 -72 -210t-208 -115q152 -23 237 -110.5t85 -219.5q0 -195 -138.5 -310.5t-376.5 -115.5z" />
    <glyph glyph-name="uni0418" unicode="&#x418;" horiz-adv-x="1472" 
d="M168 0v1409h172v-924q0 -114 -8 -274l750 1198h222v-1409h-170v936q0 122 6 254l-742 -1190h-230z" />
    <glyph glyph-name="uni0419" unicode="&#x419;" horiz-adv-x="1472" 
d="M168 0v1409h172v-924q0 -114 -8 -274l750 1198h222v-1409h-170v936q0 122 6 254l-742 -1190h-230zM742 1530q-356 0 -367 320h164q12 -199 203 -199t203 199h164q-11 -320 -367 -320z" />
    <glyph glyph-name="uni041A" unicode="&#x41a;" horiz-adv-x="1193" 
d="M168 1409h191v-619q75 0 120 20.5t94 76t156 217.5l205 305h200l-283 -410q-131 -189 -179 -224l509 -775h-222l-427 683q-25 -12 -79.5 -25t-93.5 -13v-645h-191v1409z" />
    <glyph glyph-name="uni041B" unicode="&#x41b;" horiz-adv-x="1344" 
d="M991 1249h-418l-49 -368q-51 -398 -98.5 -573t-119.5 -249.5t-202 -74.5q-58 0 -86 10v152q19 -7 56 -7q53 0 86.5 32.5t62.5 108t58 224t58 366l71 539.5h767v-1409h-186v1249z" />
    <glyph glyph-name="uni041C" unicode="&#x41c;" horiz-adv-x="1706" 
d="M1366 0v940q0 156 9 300q-49 -179 -88 -280l-364 -960h-134l-369 960l-56 170l-33 110l3 -111l4 -189v-940h-170v1409h251l375 -977q20 -59 38.5 -126.5t24.5 -97.5q8 40 33.5 121.5t34.5 102.5l368 977h245v-1409h-172z" />
    <glyph glyph-name="uni041D" unicode="&#x41d;" horiz-adv-x="1479" 
d="M1121 0v653h-762v-653h-191v1409h191v-596h762v596h191v-1409h-191z" />
    <glyph glyph-name="uni041E" unicode="&#x41e;" horiz-adv-x="1593" 
d="M1495 711q0 -221 -84.5 -387t-242.5 -255t-373 -89q-217 0 -374.5 88t-240.5 254.5t-83 388.5q0 338 185 528.5t515 190.5q215 0 373 -85.5t241.5 -248.5t83.5 -385zM1300 711q0 263 -131.5 413t-371.5 150q-242 0 -374 -148t-132 -415q0 -265 133.5 -420.5t370.5 -155.5
q244 0 374.5 150.5t130.5 425.5z" />
    <glyph glyph-name="uni041F" unicode="&#x41f;" horiz-adv-x="1472" 
d="M1119 0v1248h-762v-1248h-191v1409h1144v-1409h-191z" />
    <glyph glyph-name="uni0420" unicode="&#x420;" horiz-adv-x="1366" 
d="M1258 985q0 -200 -130.5 -318t-354.5 -118h-414v-549h-191v1409h593q237 0 367 -111t130 -313zM1066 983q0 273 -328 273h-379v-556h387q320 0 320 283z" />
    <glyph glyph-name="uni0421" unicode="&#x421;" horiz-adv-x="1479" 
d="M792 1274q-234 0 -364 -150.5t-130 -412.5q0 -259 135.5 -416.5t366.5 -157.5q296 0 445 293l156 -78q-87 -182 -244.5 -277t-365.5 -95q-213 0 -368.5 88.5t-237 253t-81.5 389.5q0 337 182 528t504 191q225 0 376 -88t222 -261l-181 -60q-49 123 -157.5 188t-257.5 65z
" />
    <glyph glyph-name="uni0422" unicode="&#x422;" horiz-adv-x="1251" 
d="M720 1253v-1253h-190v1253h-484v156h1158v-156h-484z" />
    <glyph glyph-name="uni0423" unicode="&#x423;" horiz-adv-x="1301" 
d="M332 -20q-62 0 -129.5 19t-113.5 51l81 144q94 -59 166 -59q51 0 85.5 19.5t69.5 67t137 233.5l-573 954h218l449 -784l384 784h205l-577 -1091q-85 -160 -138 -221t-115.5 -89t-148.5 -28z" />
    <glyph glyph-name="uni0424" unicode="&#x424;" horiz-adv-x="1557" 
d="M1439 736q0 -153 -63.5 -271.5t-182.5 -183.5t-279 -65h-40v-227h-191v227h-40q-161 0 -280 65.5t-182 184t-63 270.5q0 238 139.5 369.5t396.5 131.5h29v182h191v-182h28q258 0 397.5 -132t139.5 -369zM1247 732q0 367 -368 367h-5v-746h13q174 0 267 96t93 283z
M310 732q0 -187 93 -283t267 -96h13v746h-9q-182 0 -273 -90t-91 -277z" />
    <glyph glyph-name="uni0425" unicode="&#x425;" horiz-adv-x="1366" 
d="M1112 0l-423 616l-432 -616h-211l536 732l-495 677h211l392 -553l381 553h211l-482 -670l523 -739h-211z" />
    <glyph glyph-name="uni0426" unicode="&#x426;" horiz-adv-x="1515" 
d="M1477 160v-568h-180v408h-1129v1409h191v-1249h757v1249h186v-1249h175z" />
    <glyph glyph-name="uni0427" unicode="&#x427;" horiz-adv-x="1365" 
d="M1008 508q-155 -34 -246 -46t-162 -12q-222 0 -331 90.5t-109 274.5v594h190v-574q0 -123 65 -177t199 -54q149 0 394 49v756h190v-1409h-190v508z" />
    <glyph glyph-name="uni0428" unicode="&#x428;" horiz-adv-x="1877" 
d="M168 0v1409h191v-1249h489v1249h186v-1249h489v1249h186v-1409h-1541z" />
    <glyph glyph-name="uni0429" unicode="&#x429;" horiz-adv-x="1920" 
d="M1839 160v-568h-180v408h-1491v1409h191v-1249h467v1249h186v-1249h466v1249h186v-1249h175z" />
    <glyph glyph-name="uni042A" unicode="&#x42a;" horiz-adv-x="1621" 
d="M696 813h322q236 0 366.5 -105t130.5 -295q0 -187 -129 -300t-356 -113h-525v1253h-459v156h650v-596zM1323 411q0 121 -82 185.5t-246 64.5h-299v-510h307q164 0 242 68t78 192z" />
    <glyph glyph-name="uni042B" unicode="&#x42b;" horiz-adv-x="1813" 
d="M1238 413q0 -187 -129 -300t-356 -113h-585v1409h191v-596h382q236 0 366.5 -105t130.5 -295zM1046 411q0 121 -82 185.5t-246 64.5h-359v-510h367q164 0 242 68t78 192zM1454 0v1409h191v-1409h-191z" />
    <glyph glyph-name="uni042C" unicode="&#x42c;" horiz-adv-x="1344" 
d="M1238 413q0 -187 -129 -300t-356 -113h-585v1409h191v-596h382q236 0 366.5 -105t130.5 -295zM1046 407q0 121 -82 186.5t-246 65.5h-359v-508h367q320 0 320 256z" />
    <glyph glyph-name="uni042D" unicode="&#x42d;" horiz-adv-x="1472" 
d="M713 1274q-152 0 -261 -67.5t-154 -185.5l-181 60q71 173 222 261t376 88q322 0 504 -191t182 -528q0 -223 -81 -388t-235.5 -254t-369.5 -89q-426 0 -610 372l156 78q69 -140 184 -216.5t260 -76.5q213 0 346.5 135.5t152.5 365.5h-654v154h654q-21 229 -149.5 355.5
t-341.5 126.5z" />
    <glyph glyph-name="uni042E" unicode="&#x42e;" horiz-adv-x="2069" 
d="M1971 711q0 -221 -80 -387.5t-230 -255t-350 -88.5q-295 0 -468.5 179t-188.5 494h-295v-653h-191v1409h191v-596h298q27 292 198.5 454.5t457.5 162.5q310 0 484 -191.5t174 -527.5zM1776 711q0 263 -121.5 413t-341.5 150q-223 0 -344.5 -148t-121.5 -415
q0 -265 123.5 -420.5t340.5 -155.5q223 0 344 149.5t121 426.5z" />
    <glyph glyph-name="uni042F" unicode="&#x42f;" horiz-adv-x="1479" 
d="M96 0l400 607q-161 28 -252.5 135t-91.5 264q0 190 129 296.5t368 106.5h663v-1409h-191v585h-439l-366 -585h-220zM344 1004q0 -127 82.5 -197.5t233.5 -70.5h461v520h-453q-157 0 -240.5 -64.5t-83.5 -187.5z" />
    <glyph glyph-name="uni0430" unicode="&#x430;" 
d="M414 -20q-163 0 -245 86t-82 236q0 168 110.5 258t356.5 96l243 4v59q0 132 -56 189t-176 57q-121 0 -176 -41t-66 -131l-188 17q46 292 434 292q204 0 307 -93.5t103 -270.5v-466q0 -80 21 -120.5t80 -40.5q26 0 59 7v-112q-68 -16 -139 -16q-100 0 -145.5 52.5
t-51.5 164.5h-6q-69 -124 -160.5 -175.5t-222.5 -51.5zM455 115q99 0 176 45t121.5 123.5t44.5 161.5v89l-197 -4q-127 -2 -192.5 -26t-100.5 -74t-35 -131q0 -88 47.5 -136t135.5 -48z" />
    <glyph glyph-name="uni0431" unicode="&#x431;" horiz-adv-x="1173" 
d="M898 502q0 202 -66 297.5t-215 95.5q-159 0 -233.5 -97t-74.5 -296q0 -194 69.5 -291.5t218.5 -97.5q161 0 231 93.5t70 295.5zM655 1027q222 0 327 -130.5t105 -392.5q0 -265 -125 -394.5t-363 -129.5q-246 0 -362.5 161t-116.5 495q0 170 23 298.5t72 221.5t126.5 155
t195 100t499.5 91v-161q-419 -54 -542.5 -103t-173.5 -156t-54 -320q43 125 144 195t245 70z" />
    <glyph glyph-name="uni0432" unicode="&#x432;" horiz-adv-x="1088" 
d="M564 1082q200 0 300 -70t100 -201q0 -93 -57 -155t-166 -83v-7q129 -17 193.5 -82t64.5 -172q0 -147 -109.5 -229.5t-302.5 -82.5h-445v1082h422zM322 133h236q138 0 194 42.5t56 135.5q0 101 -59.5 142.5t-202.5 41.5h-224v-362zM322 945v-320h216q128 0 182.5 36
t54.5 126q0 82 -51 120t-172 38h-230z" />
    <glyph glyph-name="uni0433" unicode="&#x433;" horiz-adv-x="747" 
d="M687 1082v-131h-365v-951h-180v1082h545z" />
    <glyph glyph-name="uni0434" unicode="&#x434;" horiz-adv-x="1195" 
d="M834 951h-306q-37 -272 -82 -473.5t-109 -346.5h497v820zM1160 -408h-163v408h-814v-408h-163v539h119q75 125 130 355t101 596h644v-951h146v-539z" />
    <glyph glyph-name="uni0435" unicode="&#x435;" 
d="M276 503q0 -186 77 -287t225 -101q117 0 187.5 47t95.5 119l158 -45q-97 -256 -441 -256q-240 0 -365.5 143t-125.5 425q0 268 125.5 411t358.5 143q477 0 477 -575v-24h-772zM862 641q-15 171 -87 249.5t-207 78.5q-131 0 -207.5 -87.5t-82.5 -240.5h584z" />
    <glyph glyph-name="uni0436" unicode="&#x436;" horiz-adv-x="1370" 
d="M595 477q-26 0 -58.5 6t-51.5 14l-278 -497h-200l353 592q-35 29 -128 165l-216 325h188l148 -239q66 -106 102 -152.5t65.5 -64.5t75.5 -18v474h180v-474q30 0 54 8t50 33.5t59 71.5t228 361h188l-216 -325q-93 -136 -128 -165l353 -592h-200l-278 497q-19 -8 -51.5 -14
t-58.5 -6v-477h-180v477z" />
    <glyph glyph-name="uni0437" unicode="&#x437;" horiz-adv-x="939" 
d="M458 -20q-167 0 -265.5 62.5t-143.5 191.5l159 44q53 -164 254 -164q96 0 152.5 47t56.5 138q0 200 -331 200v137q161 0 237 42t76 130q0 74 -49.5 117t-142.5 43q-89 0 -145.5 -37t-68.5 -107l-162 20q46 258 377 258q168 0 271 -79.5t103 -205.5q0 -101 -72.5 -169
t-175.5 -77v-2q121 -13 197.5 -84.5t76.5 -180.5q0 -152 -107.5 -238t-296.5 -86z" />
    <glyph glyph-name="uni0438" unicode="&#x438;" horiz-adv-x="1144" 
d="M316 1082v-592l-10 -277l499 869h197v-1082h-172v660q0 36 3.5 109t6.5 104l-506 -873h-192v1082h174z" />
    <glyph glyph-name="uni0439" unicode="&#x439;" horiz-adv-x="1144" 
d="M316 1082v-592l-10 -277l499 869h197v-1082h-172v660q0 36 3.5 109t6.5 104l-506 -873h-192v1082h174zM574 1200q-356 0 -367 320h164q12 -199 203 -199t203 199h164q-11 -320 -367 -320z" />
    <glyph glyph-name="uni043A" unicode="&#x43a;" horiz-adv-x="896" 
d="M138 1082h180v-474q30 0 54 8t50 33.5t59 71.5t228 361h188l-216 -325q-93 -136 -128 -165l353 -592h-200l-278 497q-19 -8 -51.5 -14t-58.5 -6v-477h-180v1082z" />
    <glyph glyph-name="uni043B" unicode="&#x43b;" horiz-adv-x="1195" 
d="M872 0v951h-375q-59 -436 -91 -588.5t-69 -230.5t-91.5 -115t-140.5 -37q-50 0 -94 13v129q25 -9 68 -9q55 0 88.5 55t61 190t62.5 399l44 325h718v-1082h-181z" />
    <glyph glyph-name="uni043C" unicode="&#x43c;" horiz-adv-x="1408" 
d="M787 0h-153l-324 951q6 -156 6 -227v-724h-174v1082h280l220 -661q52 -143 68 -286q22 161 68 286l220 661h269v-1082h-173v724l3 114l5 115z" />
    <glyph glyph-name="uni043D" unicode="&#x43d;" horiz-adv-x="1131" 
d="M322 1082v-458h487v458h180v-1082h-180v493h-487v-493h-180v1082h180z" />
    <glyph glyph-name="uni043E" unicode="&#x43e;" 
d="M1053 542q0 -284 -125 -423t-363 -139q-237 0 -358 144.5t-121 417.5q0 560 485 560q248 0 365 -136.5t117 -423.5zM864 542q0 224 -66.5 325.5t-223.5 101.5q-158 0 -228.5 -103.5t-70.5 -323.5q0 -214 69.5 -321.5t218.5 -107.5q162 0 231.5 104t69.5 325z" />
    <glyph glyph-name="uni043F" unicode="&#x43f;" horiz-adv-x="1109" 
d="M967 1082v-1082h-180v951h-465v-951h-180v1082h825z" />
    <glyph glyph-name="uni0440" unicode="&#x440;" 
d="M1053 546q0 -566 -398 -566q-250 0 -336 188h-5q4 -8 4 -170v-423h-180v1286q0 167 -6 221h174q1 -4 3 -28.5t4.5 -75.5t2.5 -70h4q48 100 127 146.5t208 46.5q200 0 299 -134t99 -421zM864 542q0 226 -61 323t-194 97q-107 0 -167.5 -45t-92 -140.5t-31.5 -248.5
q0 -213 68 -314t221 -101q134 0 195.5 98.5t61.5 330.5z" />
    <glyph glyph-name="uni0441" unicode="&#x441;" horiz-adv-x="1024" 
d="M275 546q0 -216 68 -320t205 -104q96 0 160.5 52t79.5 160l182 -12q-21 -156 -133 -249t-284 -93q-227 0 -346.5 143.5t-119.5 418.5q0 273 120 416.5t344 143.5q166 0 275.5 -86t137.5 -237l-185 -14q-14 90 -71 143t-162 53q-143 0 -207 -95t-64 -320z" />
    <glyph glyph-name="uni0442" unicode="&#x442;" horiz-adv-x="938" 
d="M35 1082h868v-131h-344v-951h-180v951h-344v131z" />
    <glyph glyph-name="uni0443" unicode="&#x443;" horiz-adv-x="1024" 
d="M191 -425q-74 0 -124 11v135q38 -6 84 -6q168 0 266 247l17 43l-429 1077h192l228 -598l12 -33.5l45 -130.5t41 -124l70 197l237 689h190l-416 -1082q-67 -173 -125 -257.5t-128.5 -126t-159.5 -41.5z" />
    <glyph glyph-name="uni0444" unicode="&#x444;" horiz-adv-x="1685" 
d="M1598 546q0 -284 -92.5 -425t-272.5 -141q-226 0 -305 188h-6q5 -87 5 -170v-423h-170v423q0 109 5 176h-5q-46 -104 -120.5 -149t-185.5 -45q-186 0 -275.5 137.5t-89.5 418.5q0 566 365 566q112 0 186.5 -45t119.5 -143h5l-5 151v419h170v-420l-3 -156h5
q46 104 118 148.5t186 44.5q183 0 274 -136.5t91 -418.5zM275 542q0 -225 54.5 -324t172.5 -99q130 0 191 98.5t64 312.5v24q0 211 -59.5 313t-193.5 102q-121 0 -175 -103t-54 -324zM1409 542q0 218 -53.5 319t-173.5 101q-94 0 -147 -46t-80.5 -140.5t-27.5 -247.5v-23
q2 -201 63 -296.5t190 -95.5q119 0 174 102.5t55 326.5z" />
    <glyph glyph-name="uni0445" unicode="&#x445;" horiz-adv-x="1024" 
d="M801 0l-291 444l-293 -444h-194l385 556l-367 526h199l270 -421l268 421h201l-367 -524l390 -558h-201z" />
    <glyph glyph-name="uni0446" unicode="&#x446;" horiz-adv-x="1173" 
d="M322 1082v-951h477v951h180v-951h147v-539h-163v408h-821v1082h180z" />
    <glyph glyph-name="uni0447" unicode="&#x447;" horiz-adv-x="1067" 
d="M302 1082v-402q0 -162 166 -162q110 0 276 47v517h180v-1082h-180v461l-78 -30q-146 -56 -272 -56q-129 0 -200.5 77.5t-71.5 218.5v411h180z" />
    <glyph glyph-name="uni0448" unicode="&#x448;" horiz-adv-x="1643" 
d="M142 0v1082h180v-951h410v951h180v-951h409v951h180v-1082h-1359z" />
    <glyph glyph-name="uni0449" unicode="&#x449;" horiz-adv-x="1685" 
d="M142 0v1082h180v-951h405v951h180v-951h404v951h180v-951h147v-539h-163v408h-1333z" />
    <glyph glyph-name="uni044A" unicode="&#x44a;" horiz-adv-x="1280" 
d="M781 624q205 0 310 -73.5t105 -232.5q0 -154 -108 -236t-306 -82h-409v951h-328v131h508v-458h228zM553 127h202q130 0 190 46t60 145q0 94 -58 137.5t-191 43.5h-203v-372z" />
    <glyph glyph-name="uni044B" unicode="&#x44b;" horiz-adv-x="1472" 
d="M550 624q205 0 310 -73.5t105 -232.5q0 -154 -108 -236t-306 -82h-409v1082h180v-458h228zM322 127h202q130 0 190 46t60 145q0 94 -58 137.5t-191 43.5h-203v-372zM1150 0v1082h180v-1082h-180z" />
    <glyph glyph-name="uni044C" unicode="&#x44c;" horiz-adv-x="1067" 
d="M568 624q205 0 310 -73.5t105 -232.5q0 -154 -108 -236t-306 -82h-427v1082h180v-458h246zM322 127h220q130 0 190 46t60 145q0 94 -58 137.5t-191 43.5h-221v-372z" />
    <glyph glyph-name="uni044D" unicode="&#x44d;" horiz-adv-x="1045" 
d="M55 315l182 12q16 -108 82.5 -160t166.5 -52q129 0 200 88.5t83 278.5h-413v131h413q-8 189 -75.5 272t-205.5 83q-210 0 -242 -196l-185 14q28 149 139.5 232.5t282.5 83.5q230 0 352.5 -144t122.5 -416q0 -276 -122.5 -419t-354.5 -143q-177 0 -291 90t-135 245z" />
    <glyph glyph-name="uni044E" unicode="&#x44e;" horiz-adv-x="1536" 
d="M1450 542q0 -284 -117.5 -423t-340.5 -139q-212 0 -325.5 131.5t-122.5 381.5h-222v-493h-180v1082h180v-458h223q33 478 453 478q237 0 344.5 -140t107.5 -420zM1261 542q0 224 -60 325.5t-200 101.5q-142 0 -205.5 -103.5t-63.5 -323.5q0 -218 63 -323.5t196 -105.5
q146 0 208 104.5t62 324.5z" />
    <glyph glyph-name="uni044F" unicode="&#x44f;" horiz-adv-x="1109" 
d="M535 458l-315 -458h-203l344 471q-249 51 -249 312q0 149 108 224t315 75h432v-1082h-180v458h-252zM787 955h-234q-130 0 -190 -46t-60 -139q0 -94 53.5 -140.5t177.5 -46.5h253v372z" />
    <glyph glyph-name="uni0451" unicode="&#x451;" 
d="M276 503q0 -186 77 -287t225 -101q117 0 187.5 47t95.5 119l158 -45q-97 -256 -441 -256q-240 0 -365.5 143t-125.5 425q0 268 125.5 411t358.5 143q477 0 477 -575v-24h-772zM862 641q-15 171 -87 249.5t-207 78.5q-131 0 -207.5 -87.5t-82.5 -240.5h584zM687 1219v184
h163v-184h-163zM293 1219v184h165v-184h-165z" />
    <glyph glyph-name="uni0452" unicode="&#x452;" 
d="M142 0v1206h-132v131h132v147h180v-147h300v-131h-300v-148q0 -61 -3.5 -126t-4.5 -75h3q58 106 139.5 155.5t206.5 49.5q176 0 259.5 -87.5t83.5 -293.5v-815q0 -153 -60 -222t-180 -69q-77 0 -127 9v139l62 -6q70 0 97 36t27 140v753q0 114 -21 169.5t-69 81.5t-133 26
q-127 0 -203.5 -88t-76.5 -237v-598h-180z" />
    <glyph glyph-name="uni0453" unicode="&#x453;" horiz-adv-x="747" 
d="M687 1082v-131h-365v-951h-180v1082h545zM288 1201v20l217 287h207v-29l-330 -278h-94z" />
    <glyph glyph-name="uni0454" unicode="&#x454;" horiz-adv-x="1045" 
d="M564 -20q-232 0 -354.5 143.5t-122.5 418.5q0 271 122 415.5t353 144.5q171 0 282 -83.5t140 -232.5l-185 -14q-32 196 -242 196q-139 0 -206 -83.5t-75 -271.5h412v-131h-413q18 -367 284 -367q100 0 166.5 51.5t82.5 160.5l182 -12q-21 -154 -135 -244.5t-291 -90.5z
" />
    <glyph glyph-name="uni0455" unicode="&#x455;" horiz-adv-x="1024" 
d="M950 299q0 -153 -115.5 -236t-323.5 -83q-202 0 -311.5 66.5t-142.5 207.5l159 31q23 -87 95 -127.5t200 -40.5q137 0 200.5 42t63.5 126q0 64 -44 104t-142 66l-129 34q-155 40 -220.5 78.5t-102.5 93.5t-37 135q0 148 105.5 225.5t307.5 77.5q179 0 284.5 -63
t133.5 -202l-162 -20q-15 72 -80.5 110.5t-175.5 38.5q-122 0 -180 -37t-58 -112q0 -46 24 -76t71 -51t198 -58q143 -36 206 -66.5t99.5 -67.5t56.5 -85.5t20 -110.5z" />
    <glyph glyph-name="uni0456" unicode="&#x456;" horiz-adv-x="455" 
d="M137 1312v172h180v-172h-180zM137 0v1082h180v-1082h-180z" />
    <glyph glyph-name="uni0457" unicode="&#x457;" horiz-adv-x="569" 
d="M194 0v1082h180v-1082h-180zM386 1219v184h163v-184h-163zM-8 1219v184h165v-184h-165z" />
    <glyph glyph-name="uni0458" unicode="&#x458;" horiz-adv-x="455" 
d="M137 1312v172h180v-172h-180zM317 -134q0 -153 -60 -222t-180 -69q-77 0 -127 9v139l62 -6q69 0 97 36t28 140v1189h180v-1216z" />
    <glyph glyph-name="uni0459" unicode="&#x459;" horiz-adv-x="1856" 
d="M1357 624q205 0 310 -73.5t105 -232.5q0 -154 -108 -236t-306 -82h-450v951h-411q-59 -436 -91 -588.5t-69 -230.5t-91.5 -115t-140.5 -37q-50 0 -94 13v129q25 -9 68 -9q55 0 88.5 55t61 190t62.5 399l44 325h754v-458h268zM1089 127h242q130 0 190 46t60 145
q0 94 -58 137.5t-191 43.5h-243v-372z" />
    <glyph glyph-name="uni045A" unicode="&#x45a;" horiz-adv-x="1664" 
d="M937 1082v-458h228q205 0 310 -73.5t105 -232.5q0 -154 -108 -236t-306 -82h-410v493h-434v-493h-180v1082h180v-458h434v458h181zM937 127h202q130 0 190 46t60 145q0 94 -58 137.5t-191 43.5h-203v-372z" />
    <glyph glyph-name="uni045B" unicode="&#x45b;" 
d="M317 857q58 106 139.5 155.5t206.5 49.5q176 0 259.5 -87.5t83.5 -293.5v-681h-181v646q0 114 -21 169.5t-69 81.5t-133 26q-127 0 -203.5 -88t-76.5 -237v-598h-180v1206h-132v131h132v147h180v-147h300v-131h-300v-148q0 -61 -3.5 -126t-4.5 -75h3z" />
    <glyph glyph-name="uni045C" unicode="&#x45c;" horiz-adv-x="896" 
d="M138 1082h180v-474q30 0 54 8t50 33.5t59 71.5t228 361h188l-216 -325q-93 -136 -128 -165l353 -592h-200l-278 497q-19 -8 -51.5 -14t-58.5 -6v-477h-180v1082zM391 1201v20l217 287h207v-29l-330 -278h-94z" />
    <glyph glyph-name="uni045E" unicode="&#x45e;" horiz-adv-x="1024" 
d="M191 -425q-74 0 -124 11v135q38 -6 84 -6q168 0 266 247l17 43l-429 1077h192l228 -598l12 -33.5l45 -130.5t41 -124l70 197l237 689h190l-416 -1082q-67 -173 -125 -257.5t-128.5 -126t-159.5 -41.5zM523 1200q-356 0 -367 320h164q12 -199 203 -199t203 199h164
q-11 -320 -367 -320z" />
    <glyph glyph-name="uni045F" unicode="&#x45f;" horiz-adv-x="1131" 
d="M142 0v1082h180v-951h487v951h180v-1082h-342v-408h-163v408h-342z" />
    <glyph glyph-name="uni0490" unicode="&#x490;" horiz-adv-x="1001" 
d="M774 1409v411h180v-567h-595v-1252h-191v1408h606z" />
    <glyph glyph-name="uni0491" unicode="&#x491;" horiz-adv-x="842" 
d="M322 0h-180v1082h473v402h163v-533h-456v-951z" />
    <glyph glyph-name="uni2015" unicode="&#x2015;" horiz-adv-x="2048" 
d="M0 451v137h2048v-137h-2048z" />
    <glyph glyph-name="uni2116" unicode="&#x2116;" horiz-adv-x="2197" 
d="M1062 0l-720 1190l6 -254v-936h-160v1409h202l728 -1198q-8 160 -8 274v924h162v-1409h-210zM2094 690q0 -188 -88 -289.5t-263 -101.5q-168 0 -256.5 100.5t-88.5 290.5q0 189 89 289.5t260 100.5q347 0 347 -390zM1935 690q0 147 -42 212.5t-143 65.5
q-102 0 -146 -66.5t-44 -211.5t43.5 -212t138.5 -67q103 0 148 63.5t45 215.5zM1439 0v146h635v-146h-635z" />
    <glyph glyph-name="pi" unicode="&#x3c0;" horiz-adv-x="1413" 
d="M1126 -20q-115 0 -166 56.5t-51 190.5v724h-402v-72q0 -229 -26 -463.5t-72 -415.5h-188q52 206 81 437.5t29 433.5v80q-66 0 -146 -11t-106 -26v139q24 12 77.5 20.5t105.5 8.5h1061v-131h-234v-685q0 -76 21 -110.5t73 -34.5l86 8v-129q-77 -20 -143 -20z" />
    <glyph glyph-name="currency" unicode="&#xa4;" 
d="M137 684q0 138 78 252l-100 100l104 103l99 -101q114 82 254 82q137 0 251 -80l97 97l104 -105l-96 -96q80 -117 80 -252q0 -138 -82 -252l100 -100l-102 -105l-101 101q-114 -78 -251 -78q-143 0 -252 80l-105 -105l-102 105l102 102q-78 114 -78 252zM291 686
q0 -117 83 -198.5t198 -81.5q114 0 197 81t83 199q0 117 -83.5 199t-196.5 82t-197 -81.5t-84 -199.5z" />
    <glyph glyph-name="commaaccent" horiz-adv-x="682" 
d="M328 -193q0 -87 -22 -140.5t-62 -100.5h-117q45 48 69.5 91t24.5 89h-88v156h195v-95z" />
    <glyph glyph-name="foursuperior" unicode="&#x2074;" horiz-adv-x="682" 
d="M551 741v-178h-131v178h-406v111l386 557h151v-555h111v-113h-111zM422 1276q-21 -40 -82 -135l-199 -287h279v360z" />
    <glyph glyph-name="fivesuperior" unicode="&#x2075;" horiz-adv-x="682" 
d="M636 835q0 -132 -75.5 -207.5t-213.5 -75.5q-119 0 -196.5 57t-97.5 164l133 15q11 -60 52.5 -95.5t105.5 -35.5q71 0 114 42.5t43 135.5q0 81 -40.5 123.5t-115.5 42.5q-91 0 -151 -60h-129l33 468h506v-113h-398l-19 -245q29 26 74.5 42.5t99.5 16.5q130 0 202.5 -72.5
t72.5 -202.5z" />
    <glyph glyph-name="sevensuperior" unicode="&#x2077;" horiz-adv-x="682" 
d="M632 1308q-129 -196 -183 -306.5t-80.5 -216.5t-26.5 -221h-133q0 155 62 318.5t232 413.5h-460v113h589v-101z" />
    <glyph glyph-name="eightsuperior" unicode="&#x2078;" horiz-adv-x="682" 
d="M479 1193q0 70 -34 99.5t-103 29.5t-102.5 -31t-33.5 -98q0 -70 35 -102t102 -32q68 0 102 29.5t34 104.5zM500 814q0 144 -158 144q-76 0 -115.5 -38t-39.5 -108q0 -83 39 -121t119 -38q81 0 118 37.5t37 123.5zM642 800q0 -118 -77 -183t-221 -65q-142 0 -220.5 65
t-78.5 182q0 81 47.5 138t121.5 69v3q-68 15 -108.5 69t-40.5 127q0 98 75 157.5t202 59.5q130 0 204.5 -59t74.5 -159q0 -73 -41 -127t-109 -67v-3q82 -14 126.5 -68.5t44.5 -138.5z" />
    <glyph glyph-name="breve.cyr" horiz-adv-x="682" 
d="M340 1200q-356 0 -367 320h164q12 -199 203 -199t203 199h164q-11 -320 -367 -320z" />
    <glyph glyph-name="caroncommaaccent" horiz-adv-x="455" 
d="M325 1303q0 -87 -22 -145.5t-62 -105.5h-117q94 100 94 190h-88v167h195v-106z" />
    <glyph glyph-name="commaaccentrotate" horiz-adv-x="455" 
d="M130 1317q0 87 22 145.5t62 105.5h117q-94 -100 -94 -190h88v-167h-195v106z" />
    <glyph glyph-name="grave.uc" horiz-adv-x="602" 
d="M416 1530l-310 217v29h207l217 -226v-20h-114z" />
    <glyph glyph-name="acute.uc" horiz-adv-x="602" 
d="M72 1530v20l217 226h207v-29l-310 -217h-114z" />
    <glyph glyph-name="circumflex.uc" horiz-adv-x="664" 
d="M662 1550v-20h-105l-219 139h-2l-232 -139h-104v20l234 240h204z" />
    <glyph glyph-name="caron.uc" horiz-adv-x="664" 
d="M438 1530h-204l-234 239v21h104l232 -139h2l219 139h105v-21z" />
    <glyph glyph-name="dieresis.uc" horiz-adv-x="647" 
d="M439 1530v184h163v-184h-163zM45 1530v184h165v-184h-165z" />
    <glyph glyph-name="tilde.uc" horiz-adv-x="672" 
d="M492 1530q-42 0 -84 18.5t-81 41t-74.5 41t-66.5 18.5q-55 0 -82 -31t-36 -88h-91q11 102 35 154.5t64.5 83t103.5 30.5q44 0 86 -18.5t81 -41l73.5 -41t64.5 -18.5q100 0 117 119h92q-17 -148 -67 -208t-135 -60z" />
    <glyph glyph-name="hungarumlaut.uc" horiz-adv-x="815" 
d="M32 1530v20l197 227h207v-29l-310 -218h-94zM379 1530v20l197 227h207v-29l-310 -218h-94z" />
    <glyph glyph-name="breve.uc" horiz-adv-x="584" 
d="M308 1530q-133 0 -223.5 69t-108.5 180h117q17 -53 71.5 -83t145.5 -30t144.5 30.5t70.5 82.5h117q-21 -114 -111 -181.5t-223 -67.5z" />
    <glyph glyph-name="uni200C" unicode="&#x200c;" horiz-adv-x="0" 
d="M42 1287v-1560h-84v1560h84z" />
    <glyph glyph-name="uni200D" unicode="&#x200d;" horiz-adv-x="0" 
d="M42 -273h-84v1369l-127 -128l-55 55l169 168l-169 167l55 56l169 -170l169 170l55 -56l-169 -167l169 -168l-55 -55l-127 128v-1369z" />
    <glyph glyph-name="uni200E" unicode="&#x200e;" horiz-adv-x="0" 
d="M435 1193l-223 -219l-55 55l132 125h-248v-1427h-82v1506h330l-132 125l55 56z" />
    <glyph glyph-name="uni200F" unicode="&#x200f;" horiz-adv-x="0" 
d="M40 -273h-82v1427h-248l132 -125l-55 -55l-223 219l223 221l55 -56l-132 -125h330v-1506z" />
    <glyph glyph-name="uni202A" unicode="&#x202a;" horiz-adv-x="0" 
d="M42 1154v-1427h-83v1506h476v-79h-393z" />
    <glyph glyph-name="uni202B" unicode="&#x202b;" horiz-adv-x="0" 
d="M-435 1154v79h476v-1506h-83v1427h-393z" />
    <glyph glyph-name="uni202D" unicode="&#x202d;" horiz-adv-x="0" 
d="M238 977h-196v-1250h-84v1250h-196v434h476v-79h-395v-277h395v-78z" />
    <glyph glyph-name="uni202E" unicode="&#x202e;" horiz-adv-x="0" 
d="M-238 1055h395v277h-395v79h476v-434h-196v-1250h-84v1250h-196v78z" />
    <glyph glyph-name="uni202C" unicode="&#x202c;" horiz-adv-x="0" 
d="M238 977h-196v-1250h-84v1250h-196v434h476v-434z" />
    <glyph glyph-name="uni206E" unicode="&#x206e;" horiz-adv-x="0" 
d="M42 -273h-84v1285l-197 181l239 221l239 -221l-197 -181v-1285zM126 1193l-126 113l-126 -113l126 -112z" />
    <glyph glyph-name="uni206F" unicode="&#x206f;" horiz-adv-x="0" 
d="M-238 1055h196v277h-196v79h280v-356h196v-78h-196v-1250h-84v1250h-196v78z" />
    <glyph glyph-name="uni206A" unicode="&#x206a;" horiz-adv-x="0" 
d="M-238 1055h196v277h-196v79h476v-79h-196v-277h196v-78h-196v-1250h-84v1250h-196v78z" />
    <glyph glyph-name="uni206B" unicode="&#x206b;" horiz-adv-x="0" 
d="M-157 1055h314v277h-314v-277zM-238 977v434h476v-434h-196v-1250h-84v1250h-196z" />
    <glyph glyph-name="uni206C" unicode="&#x206c;" horiz-adv-x="0" 
d="M42 -273h-84v1318l-198 366h480l-198 -366v-1318z" />
    <glyph glyph-name="uni206D" unicode="&#x206d;" horiz-adv-x="0" 
d="M42 977v-1250h-84v1250h-198l240 441l240 -441h-198z" />
    <glyph glyph-name="uniF00A" unicode="&#xf00a;" horiz-adv-x="0" 
d="M42 1831v-968h-84v968h84zM42 543v-968h-84v968h84z" />
    <glyph glyph-name="uniF00B" unicode="&#xf00b;" horiz-adv-x="0" 
d="M-239 -425v77h197v2102h-197v77h478v-77h-197v-2102h197v-77h-478z" />
    <glyph glyph-name="uniF00C" unicode="&#xf00c;" horiz-adv-x="0" 
d="M230 1656l-188 -164v-1917h-84v2256z" />
    <glyph glyph-name="uniF00D" unicode="&#xf00d;" horiz-adv-x="0" 
d="M42 1831v-2256h-84v1917l-188 164z" />
    <glyph glyph-name="uniF00E" unicode="&#xf00e;" horiz-adv-x="0" 
d="M42 1831v-2177h198v-79h-282v2256h84z" />
    <glyph glyph-name="uniFFFC" unicode="&#xfffc;" horiz-adv-x="2048" 
d="M2048 1150h-100v223h-223v100h323v-323zM1473 1373h-323v100h323v-100zM2048 575h-100v323h100v-323zM898 1373h-323v100h323v-100zM2048 0h-323v100h223v223h100v-323zM323 1373h-223v-223h-100v323h323v-100zM1473 0h-323v100h323v-100zM100 575h-100v323h100v-323z
M898 0h-323v100h323v-100zM323 0h-323v323h100v-223h223v-100zM1603 327q-93 0 -140.5 47.5t-68.5 166.5l107 18q12 -75 33 -109t69 -34q50 0 72 33.5t22 128.5v482h-94v90h202v-569q0 -130 -50 -192t-152 -62zM1336 568q0 -108 -77.5 -168.5t-220.5 -60.5h-176v811h142
q286 0 286 -196q0 -68 -38.5 -119t-116.5 -68q99 -11 150 -64.5t51 -134.5zM1179 940q0 66 -44.5 94.5t-130.5 28.5h-32v-258h32q175 0 175 135zM1226 577q0 69 -50.5 106t-151.5 37h-52v-294h61q193 0 193 151zM778 749q0 -422 -295 -422q-149 0 -222 102.5t-73 319.5
q0 213 73 313.5t223 100.5q148 0 221 -100.5t73 -313.5zM665 749q0 171 -44.5 247.5t-136.5 76.5q-96 0 -139.5 -77t-43.5 -247q0 -174 45 -253.5t137 -79.5q93 0 137.5 75.5t44.5 257.5z" />
    <glyph glyph-name="Ohorn" unicode="&#x1a0;" horiz-adv-x="1756" 
d="M1495 711q0 -221 -84.5 -387t-242.5 -255t-373 -89q-217 0 -374.5 88t-240.5 254.5t-83 388.5q0 338 185 528.5t515 190.5q244 0 410 -107.5t238 -303.5q88 44 122.5 97t34.5 126h-88v167h195v-106q0 -123 -57.5 -214.5t-182.5 -152.5q26 -106 26 -225zM1300 711
q0 263 -131.5 413t-371.5 150q-242 0 -374 -148t-132 -415q0 -265 133.5 -420.5t370.5 -155.5q244 0 374.5 150.5t130.5 425.5z" />
    <glyph glyph-name="ohorn" unicode="&#x1a1;" horiz-adv-x="1343" 
d="M1053 542q0 -284 -125 -423t-363 -139q-237 0 -358 144.5t-121 417.5q0 560 485 560q213 0 327.5 -100t143.5 -300q134 65 134 219h-88v167h195v-106q0 -129 -60 -225t-172 -144zM864 542q0 224 -66.5 325.5t-223.5 101.5q-158 0 -228.5 -103.5t-70.5 -323.5
q0 -214 69.5 -321.5t218.5 -107.5q162 0 231.5 104t69.5 325z" />
    <glyph glyph-name="Uhorn" unicode="&#x1af;" horiz-adv-x="1749" 
d="M731 -20q-173 0 -302 63t-200 183t-71 286v897h191v-881q0 -193 98 -293t283 -100q190 0 295.5 103.5t105.5 302.5v868h190v-403q121 25 178.5 83t57.5 153h-88v167h195v-106q0 -162 -84.5 -262t-258.5 -126v-385q0 -171 -72.5 -295t-205 -189.5t-312.5 -65.5z" />
    <glyph glyph-name="uhorn" unicode="&#x1b0;" horiz-adv-x="1371" 
d="M314 1082v-686q0 -107 21 -166t67 -85t135 -26q130 0 205 89t75 247v627h180v-414q115 35 159.5 90.5t44.5 156.5h-88v167h195v-106q0 -159 -72 -255.5t-239 -143.5v-346q0 -189 6 -231h-170q-1 5 -2 27t-2.5 50.5t-3.5 107.5h-3q-62 -112 -143.5 -158.5t-202.5 -46.5
q-178 0 -260.5 88.5t-82.5 292.5v721h181z" />
    <glyph glyph-name="grave.alt1" horiz-adv-x="0" 
d="M436 1201l-330 278v29h207l217 -287v-20h-94z" />
    <glyph glyph-name="grave.alt2" horiz-adv-x="0" 
d="M436 1201l-330 278v29h207l217 -287v-20h-94z" />
    <glyph glyph-name="grave.alt3" horiz-adv-x="0" 
d="M436 1201l-330 278v29h207l217 -287v-20h-94z" />
    <glyph glyph-name="acute.alt1" horiz-adv-x="0" 
d="M72 1201v20l217 287h207v-29l-330 -278h-94z" />
    <glyph glyph-name="acute.alt2" horiz-adv-x="0" 
d="M72 1201v20l217 287h207v-29l-330 -278h-94z" />
    <glyph glyph-name="acute.alt3" horiz-adv-x="0" 
d="M72 1201v20l217 287h207v-29l-330 -278h-94z" />
    <glyph glyph-name="hookabovecomb" unicode="&#x309;" horiz-adv-x="0" 
d="M-223 1665q0 31 -25.5 48t-67.5 17q-72 0 -142 -24l-31 99q90 30 196 30q237 0 237 -149q0 -59 -40.5 -101.5t-131.5 -53.5v-50h-112v120q69 3 93 18t24 46z" />
    <glyph glyph-name="hookabove.alt1" horiz-adv-x="0" 
d="M-223 1665q0 31 -25.5 48t-67.5 17q-72 0 -142 -24l-31 99q90 30 196 30q237 0 237 -149q0 -59 -40.5 -101.5t-131.5 -53.5v-50h-112v120q69 3 93 18t24 46z" />
    <glyph glyph-name="hookabove.alt2" horiz-adv-x="0" 
d="M-485 1665q0 31 -25.5 48t-67.5 17q-72 0 -142 -24l-31 99q90 30 196 30q237 0 237 -149q0 -59 -40.5 -101.5t-131.5 -53.5v-50h-112v120q69 3 93 18t24 46z" />
    <glyph glyph-name="hookabove.alt3" horiz-adv-x="0" 
d="M-670 1665q0 31 -25.5 48t-67.5 17q-72 0 -142 -24l-31 99q90 30 196 30q237 0 237 -149q0 -59 -40.5 -101.5t-131.5 -53.5v-50h-112v120q69 3 93 18t24 46z" />
    <glyph glyph-name="tilde.alt1" horiz-adv-x="0" 
d="M492 1201q-42 0 -84 18.5t-81 41t-74.5 41t-66.5 18.5q-55 0 -82 -31t-36 -88h-91q11 102 35 154.5t64.5 83t103.5 30.5q44 0 86 -18.5t81 -41l73.5 -41t64.5 -18.5q100 0 117 119h92q-17 -148 -67 -208t-135 -60z" />
    <glyph glyph-name="tilde.alt2" horiz-adv-x="0" 
d="M492 1201q-42 0 -84 18.5t-81 41t-74.5 41t-66.5 18.5q-55 0 -82 -31t-36 -88h-91q11 102 35 154.5t64.5 83t103.5 30.5q44 0 86 -18.5t81 -41l73.5 -41t64.5 -18.5q100 0 117 119h92q-17 -148 -67 -208t-135 -60z" />
    <glyph glyph-name="tildecomb" unicode="&#x303;" horiz-adv-x="0" 
d="M492 1201q-42 0 -84 18.5t-81 41t-74.5 41t-66.5 18.5q-55 0 -82 -31t-36 -88h-91q11 102 35 154.5t64.5 83t103.5 30.5q44 0 86 -18.5t81 -41l73.5 -41t64.5 -18.5q100 0 117 119h92q-17 -148 -67 -208t-135 -60z" />
    <glyph glyph-name="breve.alt1" horiz-adv-x="0" 
d="M297 1201q-132 0 -223 85t-109 224h117q28 -153 217 -153q186 0 215 153h117q-21 -142 -110.5 -225.5t-223.5 -83.5z" />
    <glyph glyph-name="circumflex.alt1" horiz-adv-x="0" 
d="M662 1221v-20h-105l-219 169h-2l-232 -169h-104v20l234 270h204z" />
    <glyph glyph-name="dotbelow.alt1" horiz-adv-x="0" 
d="M-241 -311v172h180v-172h-180z" />
    <glyph glyph-name="dong" unicode="&#x20ab;" horiz-adv-x="1051" 
d="M676 567q-35 -73 -89 -104.5t-140 -31.5q-286 0 -286 379q0 193 74.5 290t214.5 97q86 0 138.5 -31.5t87.5 -100.5h1l-1 54v170h-120v92h120v103h126v-103h92v-92h-92v-688q0 -100 4 -156h-120q-7 25 -7 122h-3zM294 814q0 -153 40 -219.5t138 -66.5q111 0 157.5 72
t46.5 223q0 145 -46 212.5t-157 67.5q-98 0 -138.5 -68.5t-40.5 -220.5zM164 326h718v-93h-718v93z" />
    <glyph glyph-name="onethird" unicode="&#x2153;" horiz-adv-x="1708" 
d="M80 563v107h211v620l-202 -138v120l210 137h123v-739h215v-107h-557zM493 0h-148l881 1409h145zM1659 232q0 -116 -77.5 -180t-219.5 -64q-286 0 -318 227l136 13q18 -136 182 -136q160 0 160 148q0 137 -189 137h-61v109h57q80 0 126 36t46 101q0 60 -37 94.5t-108 34.5
q-68 0 -110 -35t-48 -100l-135 12q13 109 91.5 169t205.5 60q130 0 204 -59.5t74 -157.5q0 -75 -43 -130t-133 -75v-2q91 -9 144 -61.5t53 -140.5z" />
    <glyph glyph-name="twothirds" unicode="&#x2154;" horiz-adv-x="1708" 
d="M36 563l-2 103q31 69 95.5 134.5t171.5 139.5q97 68 141 124t44 114q0 62 -35.5 99.5t-109.5 37.5q-68 0 -112 -36.5t-52 -104.5l-133 8q13 107 93.5 173t209.5 66q127 0 201.5 -61.5t74.5 -171.5q0 -147 -188 -285q-122 -90 -172 -136t-70 -91h443v-113h-600zM503 0
h-148l881 1409h145zM1669 232q0 -116 -77.5 -180t-219.5 -64q-286 0 -318 227l136 13q18 -136 182 -136q160 0 160 148q0 137 -189 137h-61v109h57q80 0 126 36t46 101q0 60 -37 94.5t-108 34.5q-68 0 -110 -35t-48 -100l-135 12q13 109 91.5 169t205.5 60q130 0 204 -59.5
t74 -157.5q0 -75 -43 -130t-133 -75v-2q91 -9 144 -61.5t53 -140.5z" />
    <glyph glyph-name="acute.alt4" horiz-adv-x="0" 
d="M72 1201v20l217 287h207v-29l-330 -278h-94z" />
    <glyph glyph-name="acute.alt5" horiz-adv-x="0" 
d="M72 1201v20l217 287h207v-29l-330 -278h-94z" />
    <glyph glyph-name="grave.alt4" horiz-adv-x="0" 
d="M436 1201l-330 278v29h207l217 -287v-20h-94z" />
    <glyph glyph-name="grave.alt5" horiz-adv-x="0" 
d="M436 1201l-330 278v29h207l217 -287v-20h-94z" />
    <glyph glyph-name="hookabove.alt4" horiz-adv-x="0" 
d="M-223 1665q0 31 -25.5 48t-67.5 17q-72 0 -142 -24l-31 99q90 30 196 30q237 0 237 -149q0 -59 -40.5 -101.5t-131.5 -53.5v-50h-112v120q69 3 93 18t24 46z" />
    <glyph glyph-name="hookabove.alt5" horiz-adv-x="0" 
d="M-223 1665q0 31 -25.5 48t-67.5 17q-72 0 -142 -24l-31 99q90 30 196 30q237 0 237 -149q0 -59 -40.5 -101.5t-131.5 -53.5v-50h-112v120q69 3 93 18t24 46z" />
    <glyph glyph-name="tilde.alt3" horiz-adv-x="0" 
d="M492 1201q-42 0 -84 18.5t-81 41t-74.5 41t-66.5 18.5q-55 0 -82 -31t-36 -88h-91q11 102 35 154.5t64.5 83t103.5 30.5q44 0 86 -18.5t81 -41l73.5 -41t64.5 -18.5q100 0 117 119h92q-17 -148 -67 -208t-135 -60z" />
    <glyph glyph-name="tilde.alt4" horiz-adv-x="0" 
d="M492 1201q-42 0 -84 18.5t-81 41t-74.5 41t-66.5 18.5q-55 0 -82 -31t-36 -88h-91q11 102 35 154.5t64.5 83t103.5 30.5q44 0 86 -18.5t81 -41l73.5 -41t64.5 -18.5q100 0 117 119h92q-17 -148 -67 -208t-135 -60z" />
    <glyph glyph-name="tilde.alt5" horiz-adv-x="0" 
d="M492 1201q-42 0 -84 18.5t-81 41t-74.5 41t-66.5 18.5q-55 0 -82 -31t-36 -88h-91q11 102 35 154.5t64.5 83t103.5 30.5q44 0 86 -18.5t81 -41l73.5 -41t64.5 -18.5q100 0 117 119h92q-17 -148 -67 -208t-135 -60z" />
    <glyph glyph-name="tilde.alt6" horiz-adv-x="0" 
d="M492 1201q-42 0 -84 18.5t-81 41t-74.5 41t-66.5 18.5q-55 0 -82 -31t-36 -88h-91q11 102 35 154.5t64.5 83t103.5 30.5q44 0 86 -18.5t81 -41l73.5 -41t64.5 -18.5q100 0 117 119h92q-17 -148 -67 -208t-135 -60z" />
    <glyph glyph-name="tilde.alt7" horiz-adv-x="0" 
d="M492 1201q-42 0 -84 18.5t-81 41t-74.5 41t-66.5 18.5q-55 0 -82 -31t-36 -88h-91q11 102 35 154.5t64.5 83t103.5 30.5q44 0 86 -18.5t81 -41l73.5 -41t64.5 -18.5q100 0 117 119h92q-17 -148 -67 -208t-135 -60z" />
    <glyph glyph-name="tilde.alt8" horiz-adv-x="0" 
d="M492 1201q-42 0 -84 18.5t-81 41t-74.5 41t-66.5 18.5q-55 0 -82 -31t-36 -88h-91q11 102 35 154.5t64.5 83t103.5 30.5q44 0 86 -18.5t81 -41l73.5 -41t64.5 -18.5q100 0 117 119h92q-17 -148 -67 -208t-135 -60z" />
    <glyph glyph-name="dotbelow.alt2" horiz-adv-x="0" 
d="M-769 -311v172h180v-172h-180z" />
    <glyph glyph-name="dotbelow.alt3" horiz-adv-x="0" 
d="M-885 -311v172h180v-172h-180z" />
    <glyph glyph-name="dotbelow.alt4" horiz-adv-x="0" 
d="M-1045 -311v172h180v-172h-180z" />
    <glyph glyph-name="dotbelow.alt5" horiz-adv-x="0" 
d="M-817 -311v172h180v-172h-180z" />
    <glyph glyph-name="dotbelow.alt6" horiz-adv-x="0" 
d="M-1114 -311v172h180v-172h-180z" />
    <glyph glyph-name="gravecomb" unicode="&#x300;" horiz-adv-x="0" 
d="M-273 1548l-243 250v29h207l130 -259v-20h-94z" />
    <glyph glyph-name="acutecomb" unicode="&#x301;" horiz-adv-x="0" 
d="M-363 1548v20l130 259h207v-29l-243 -250h-94z" />
    <glyph glyph-name="tilde.alt9" horiz-adv-x="0" 
d="M492 1201q-42 0 -84 18.5t-81 41t-74.5 41t-66.5 18.5q-55 0 -82 -31t-36 -88h-91q11 102 35 154.5t64.5 83t103.5 30.5q44 0 86 -18.5t81 -41l73.5 -41t64.5 -18.5q100 0 117 119h92q-17 -148 -67 -208t-135 -60z" />
    <glyph glyph-name="dotbelowcomb" unicode="&#x323;" horiz-adv-x="0" 
d="M-769 -311v172h180v-172h-180z" />
    <glyph glyph-name="dotbelow.alt7" horiz-adv-x="0" 
d="M-659 -311v172h180v-172h-180z" />
    <glyph glyph-name="dotbelow.alt8" horiz-adv-x="0" 
d="M-380 -311v172h180v-172h-180z" />
    </font>
</defs>
</svg>
